%TF.GenerationSoftware,KiCad,Pcbnew,7.0.2*%
%TF.CreationDate,2023-05-13T02:57:12+09:00*%
%TF.ProjectId,ver1,76657231-2e6b-4696-9361-645f70636258,rev?*%
%TF.SameCoordinates,Original*%
%TF.FileFunction,Profile,NP*%
%FSLAX46Y46*%
G04 Gerber Fmt 4.6, Leading zero omitted, Abs format (unit mm)*
G04 Created by KiCad (PCBNEW 7.0.2) date 2023-05-13 02:57:12*
%MOMM*%
%LPD*%
G01*
G04 APERTURE LIST*
%TA.AperFunction,Profile*%
%ADD10C,0.100000*%
%TD*%
G04 APERTURE END LIST*
D10*
X216600000Y-98000000D02*
X215800000Y-93400000D01*
X148800000Y-107500000D02*
X156400000Y-142600000D01*
X149900000Y-55800000D02*
X169700000Y-52200000D01*
X89700000Y-44400000D02*
X108400000Y-47800000D01*
X193300000Y-126600000D02*
X194100000Y-131400000D01*
X255600000Y-96000000D02*
X236000000Y-99700000D01*
X169700000Y-52200000D02*
X168900000Y-47500000D01*
X148800000Y-107500000D02*
X128700000Y-107500000D01*
X83550000Y-131050000D02*
X84350000Y-126350000D01*
X225900000Y-37600000D02*
X226700000Y-42100000D01*
X176200000Y-139000000D02*
X156400000Y-142600000D01*
X71200000Y-36300000D02*
X70350000Y-40950000D01*
X207500000Y-94900000D02*
X212400000Y-123200000D01*
X168900000Y-47500000D02*
X187600000Y-44200000D01*
X65600000Y-123000000D02*
X69900000Y-99500000D01*
X127400000Y-55800000D02*
X149900000Y-55800000D01*
X50750000Y-42250000D02*
X51600000Y-37700000D01*
X226700000Y-42100000D02*
X245700000Y-38700000D01*
X32000000Y-39000000D02*
X50750000Y-42250000D01*
X215800000Y-93400000D02*
X207500000Y-94900000D01*
X128700000Y-107500000D02*
X121450000Y-142700000D01*
X42250000Y-94600000D02*
X41500000Y-99500000D01*
X121450000Y-142700000D02*
X101300000Y-139100000D01*
X101300000Y-139100000D02*
X102150000Y-134350000D01*
X41500000Y-99500000D02*
X22000000Y-96000000D01*
X235200000Y-94700000D02*
X216600000Y-98000000D01*
X175300000Y-134500000D02*
X176200000Y-139000000D01*
X245700000Y-38700000D02*
X255600000Y-96000000D01*
X207100000Y-40900000D02*
X225900000Y-37600000D01*
X187600000Y-44200000D02*
X186800000Y-39600000D01*
X108400000Y-47800000D02*
X107600000Y-52300000D01*
X84350000Y-126350000D02*
X65600000Y-123000000D01*
X69900000Y-99500000D02*
X42250000Y-94600000D01*
X90600000Y-39650000D02*
X89700000Y-44400000D01*
X236000000Y-99700000D02*
X235200000Y-94700000D01*
X22000000Y-96000000D02*
X32000000Y-39000000D01*
X194100000Y-131400000D02*
X175300000Y-134500000D01*
X212400000Y-123200000D02*
X193300000Y-126600000D01*
X186800000Y-39600000D02*
X206200000Y-36200000D01*
X107600000Y-52300000D02*
X127400000Y-55800000D01*
X102150000Y-134350000D02*
X83550000Y-131050000D01*
X71200000Y-36300000D02*
X90600000Y-39650000D01*
X207100000Y-40900000D02*
X206200000Y-36200000D01*
X51600000Y-37700000D02*
X70350000Y-40950000D01*
M02*
