M48
; DRILL file {KiCad 7.0.2-0} date 2023 August 23, Wednesday 20:42:19
; FORMAT={-:-/ absolute / inch / decimal}
; #@! TF.CreationDate,2023-08-23T20:42:19+09:00
; #@! TF.GenerationSoftware,Kicad,Pcbnew,7.0.2-0
; #@! TF.FileFunction,NonPlated,1,2,NPTH
FMAT,2
INCH
; #@! TA.AperFunction,NonPlated,NPTH,ComponentDrill
T1C0.0748
; #@! TA.AperFunction,NonPlated,NPTH,ComponentDrill
T2C0.1181
; #@! TA.AperFunction,NonPlated,NPTH,ComponentDrill
T3C0.1614
; #@! TA.AperFunction,NonPlated,NPTH,ComponentDrill
T4C0.1693
%
G90
G05
T1
X1.8733Y-4.4627
X2.0035Y-3.7241
X2.1338Y-2.9855
X2.264Y-2.2469
X2.2672Y-4.5322
X2.3975Y-3.7936
X2.5277Y-3.055
X2.6445Y-4.4083
X2.6579Y-2.3164
X2.7747Y-3.6697
X2.9049Y-2.9311
X3.0352Y-2.1925
X3.0384Y-4.4778
X3.1686Y-3.7392
X3.2989Y-3.0006
X3.4291Y-2.262
X3.5459Y-3.6153
X3.6761Y-2.8767
X3.7198Y-4.7883
X3.8063Y-2.1381
X3.9398Y-3.6848
X4.07Y-2.9462
X4.1137Y-4.8578
X4.2003Y-2.2075
X4.2519Y-3.9302
X4.3821Y-3.1916
X4.4259Y-5.1032
X4.5124Y-2.453
X4.6458Y-3.9996
X4.7761Y-3.261
X4.8198Y-5.1727
X4.9063Y-2.5224
X4.958Y-4.2451
X5.0882Y-3.5065
X5.1319Y-5.4181
X5.2184Y-2.7679
X5.3519Y-4.3145
X5.4821Y-3.5759
X5.5258Y-5.4876
X5.6124Y-2.8373
X6.5311Y-2.8394
X6.6176Y-5.4897
X6.6614Y-3.5781
X6.7916Y-4.3167
X6.925Y-2.77
X7.0116Y-5.4202
X7.0553Y-3.5086
X7.1855Y-4.2472
X7.2372Y-2.5246
X7.3237Y-5.1748
X7.3674Y-3.2632
X7.4976Y-4.0018
X7.6311Y-2.4551
X7.7176Y-5.1053
X7.7613Y-3.1937
X7.8916Y-3.9323
X7.9432Y-2.2097
X8.0297Y-4.8599
X8.0734Y-2.9483
X8.2037Y-3.6869
X8.3371Y-2.1402
X8.4237Y-4.7905
X8.4674Y-2.8788
X8.5976Y-3.6174
X8.7144Y-2.2641
X8.8446Y-3.0027
X8.9748Y-3.7413
X9.1051Y-4.4799
X9.1083Y-2.1946
X9.2385Y-2.9332
X9.3688Y-3.6718
X9.4855Y-2.3185
X9.499Y-4.4104
X9.6158Y-3.0571
X9.746Y-3.7957
X9.8762Y-4.5343
X9.8795Y-2.249
X10.0097Y-2.9876
X10.1399Y-3.7263
X10.2702Y-4.4649
T2
X1.9399Y-4.3729
X2.0701Y-3.6343
X2.2004Y-2.8957
X2.2035Y-4.3179
X2.3306Y-2.1571
X2.3337Y-3.5793
X2.4639Y-2.8407
X2.5942Y-2.102
X2.7111Y-4.3185
X2.8413Y-3.5799
X2.9715Y-2.8413
X2.9746Y-4.2635
X3.1018Y-2.1027
X3.1049Y-3.5248
X3.2351Y-2.7862
X3.3653Y-2.0476
X3.6125Y-3.5255
X3.7427Y-2.7869
X3.7864Y-4.6985
X3.8729Y-2.0483
X3.876Y-3.4704
X4.0063Y-2.7318
X4.05Y-4.6435
X4.1365Y-1.9932
X4.3185Y-3.8404
X4.4488Y-3.1018
X4.4925Y-5.0134
X4.579Y-2.3632
X4.5821Y-3.7853
X4.7123Y-3.0467
X4.756Y-4.9583
X4.8426Y-2.3081
X5.0246Y-4.1553
X5.1548Y-3.4167
X5.1985Y-5.3283
X5.285Y-2.6781
X5.2881Y-4.1002
X5.4184Y-3.3616
X5.4621Y-5.2732
X5.5486Y-2.623
X6.563Y-2.7323
X6.6495Y-5.3825
X6.6932Y-3.4709
X6.7918Y-2.5904
X6.8235Y-4.2095
X6.8784Y-5.2406
X6.9221Y-3.329
X7.0523Y-4.0676
X7.269Y-2.4174
X7.3556Y-5.0676
X7.3993Y-3.156
X7.4979Y-2.2755
X7.5295Y-3.8946
X7.5844Y-4.9257
X7.6281Y-3.0141
X7.7583Y-3.7527
X7.9751Y-2.1025
X8.0616Y-4.7527
X8.1053Y-2.8411
X8.2039Y-1.9606
X8.2356Y-3.5797
X8.2904Y-4.6109
X8.3342Y-2.6992
X8.4644Y-3.4378
X8.7462Y-2.1569
X8.8765Y-2.8955
X8.9751Y-2.015
X9.0067Y-3.6341
X9.1053Y-2.7536
X9.137Y-4.3727
X9.2356Y-3.4922
X9.3658Y-4.2308
X9.5174Y-2.2113
X9.6477Y-2.9499
X9.7463Y-2.0694
X9.7779Y-3.6886
X9.8765Y-2.8081
X9.9081Y-4.4272
X10.0067Y-3.5467
X10.137Y-4.2853
T3
X2.0703Y-4.4975
X2.2005Y-3.7589
X2.3307Y-3.0203
X2.461Y-2.2816
X2.8414Y-4.443
X2.9717Y-3.7044
X3.1019Y-2.9658
X3.2321Y-2.2272
X3.7428Y-3.65
X3.8731Y-2.9114
X3.9168Y-4.8231
X4.0033Y-2.1728
X4.4489Y-3.9649
X4.5791Y-3.2263
X4.6228Y-5.1379
X4.7093Y-2.4877
X5.1549Y-4.2798
X5.2852Y-3.5412
X5.3289Y-5.4528
X5.4154Y-2.8026
X6.7281Y-2.8047
X6.8146Y-5.455
X6.8583Y-3.5433
X6.9886Y-4.2819
X7.4341Y-2.4898
X7.5206Y-5.1401
X7.5644Y-3.2284
X7.6946Y-3.967
X8.1402Y-2.1749
X8.2267Y-4.8252
X8.2704Y-2.9135
X8.4006Y-3.6522
X8.9113Y-2.2294
X9.0416Y-2.968
X9.1718Y-3.7066
X9.302Y-4.4452
X9.6825Y-2.2838
X9.8127Y-3.0224
X9.943Y-3.761
X10.0732Y-4.4996
T4
X2.4921Y-4.878
X2.811Y-1.8583
X4.7992Y-5.6614
X5.2362Y-2.2874
X6.9173Y-2.2795
X7.3465Y-5.6614
X9.3346Y-1.8504
X9.6535Y-4.874
T0
M30
