M48
; DRILL file {KiCad 7.0.2-0} date 2023 August 23, Wednesday 20:42:19
; FORMAT={-:-/ absolute / inch / decimal}
; #@! TF.CreationDate,2023-08-23T20:42:19+09:00
; #@! TF.GenerationSoftware,Kicad,Pcbnew,7.0.2-0
; #@! TF.FileFunction,Plated,1,2,PTH
FMAT,2
INCH
; #@! TA.AperFunction,Plated,PTH,ViaDrill
T1C0.0157
; #@! TA.AperFunction,Plated,PTH,ComponentDrill
T2C0.0320
; #@! TA.AperFunction,Plated,PTH,ComponentDrill
T3C0.0512
%
G90
G05
T1
X6.4724Y-2.9252
X6.563Y-3.063
X6.8976Y-1.8386
X6.9055Y-2.9173
X6.9134Y-1.8898
X7.0354Y-2.5354
X7.1496Y-3.8031
X7.3307Y-4.5512
X7.5787Y-1.7441
X7.7047Y-1.8071
T2
X5.4744Y-1.8145
X5.5729Y-1.8318
X5.5784Y-1.2243
X5.6714Y-1.8492
X5.6769Y-1.2417
X5.7698Y-1.8665
X5.7754Y-1.2591
X5.8683Y-1.8839
X5.8739Y-1.2764
X5.9668Y-1.9013
X5.9724Y-1.2938
X6.0653Y-1.9186
X6.0709Y-1.3112
X6.1638Y-1.936
X6.1693Y-1.3285
X6.2622Y-1.9534
X6.2678Y-1.3459
X6.3607Y-1.9707
X6.3663Y-1.3633
X6.4592Y-1.9881
X6.4648Y-1.3806
X6.5577Y-2.0055
X6.5633Y-1.398
X6.6617Y-1.4154
T3
X6.935Y-1.5906
X7.1909Y-1.5906
T0
M30
