%TF.GenerationSoftware,KiCad,Pcbnew,7.0.2-0*%
%TF.CreationDate,2023-08-23T20:42:08+09:00*%
%TF.ProjectId,rev1,72657631-2e6b-4696-9361-645f70636258,rev?*%
%TF.SameCoordinates,Original*%
%TF.FileFunction,Legend,Bot*%
%TF.FilePolarity,Positive*%
%FSLAX46Y46*%
G04 Gerber Fmt 4.6, Leading zero omitted, Abs format (unit mm)*
G04 Created by KiCad (PCBNEW 7.0.2-0) date 2023-08-23 20:42:08*
%MOMM*%
%LPD*%
G01*
G04 APERTURE LIST*
%ADD10C,0.150000*%
%ADD11C,0.300000*%
%ADD12C,0.500000*%
%ADD13C,0.800000*%
%ADD14C,3.000000*%
%ADD15C,3.500000*%
%ADD16C,1.000000*%
%ADD17C,0.400000*%
G04 APERTURE END LIST*
D10*
%TO.C,U1*%
%TO.C,SW41*%
X180979381Y-40862619D02*
X181312714Y-40386428D01*
X181550809Y-40862619D02*
X181550809Y-39862619D01*
X181550809Y-39862619D02*
X181169857Y-39862619D01*
X181169857Y-39862619D02*
X181074619Y-39910238D01*
X181074619Y-39910238D02*
X181027000Y-39957857D01*
X181027000Y-39957857D02*
X180979381Y-40053095D01*
X180979381Y-40053095D02*
X180979381Y-40195952D01*
X180979381Y-40195952D02*
X181027000Y-40291190D01*
X181027000Y-40291190D02*
X181074619Y-40338809D01*
X181074619Y-40338809D02*
X181169857Y-40386428D01*
X181169857Y-40386428D02*
X181550809Y-40386428D01*
X180550809Y-40338809D02*
X180217476Y-40338809D01*
X180074619Y-40862619D02*
X180550809Y-40862619D01*
X180550809Y-40862619D02*
X180550809Y-39862619D01*
X180550809Y-39862619D02*
X180074619Y-39862619D01*
X179693666Y-40815000D02*
X179550809Y-40862619D01*
X179550809Y-40862619D02*
X179312714Y-40862619D01*
X179312714Y-40862619D02*
X179217476Y-40815000D01*
X179217476Y-40815000D02*
X179169857Y-40767380D01*
X179169857Y-40767380D02*
X179122238Y-40672142D01*
X179122238Y-40672142D02*
X179122238Y-40576904D01*
X179122238Y-40576904D02*
X179169857Y-40481666D01*
X179169857Y-40481666D02*
X179217476Y-40434047D01*
X179217476Y-40434047D02*
X179312714Y-40386428D01*
X179312714Y-40386428D02*
X179503190Y-40338809D01*
X179503190Y-40338809D02*
X179598428Y-40291190D01*
X179598428Y-40291190D02*
X179646047Y-40243571D01*
X179646047Y-40243571D02*
X179693666Y-40148333D01*
X179693666Y-40148333D02*
X179693666Y-40053095D01*
X179693666Y-40053095D02*
X179646047Y-39957857D01*
X179646047Y-39957857D02*
X179598428Y-39910238D01*
X179598428Y-39910238D02*
X179503190Y-39862619D01*
X179503190Y-39862619D02*
X179265095Y-39862619D01*
X179265095Y-39862619D02*
X179122238Y-39910238D01*
X178693666Y-40338809D02*
X178360333Y-40338809D01*
X178217476Y-40862619D02*
X178693666Y-40862619D01*
X178693666Y-40862619D02*
X178693666Y-39862619D01*
X178693666Y-39862619D02*
X178217476Y-39862619D01*
X177931761Y-39862619D02*
X177360333Y-39862619D01*
X177646047Y-40862619D02*
X177646047Y-39862619D01*
%TO.C,SW35*%
X130359081Y-132848779D02*
X130228845Y-133587385D01*
X130228845Y-133587385D02*
X130425806Y-133622115D01*
D11*
X130344690Y-133506269D02*
X130457561Y-132866144D01*
D10*
X130752884Y-132055105D02*
X129980149Y-136437499D01*
X129980149Y-136437499D02*
X132964117Y-136963653D01*
D12*
X130211840Y-136275267D02*
X132624619Y-136700705D01*
D13*
X130411656Y-136005872D02*
X130724223Y-134233219D01*
D14*
X132132257Y-132755268D02*
X131743285Y-134961237D01*
D10*
X135480321Y-135478017D02*
X140207399Y-136311529D01*
D15*
X138747311Y-134226308D02*
X132149099Y-133062865D01*
D16*
X140235939Y-133270281D02*
X139801819Y-135732301D01*
D12*
X140053849Y-136030597D02*
X138782281Y-135755614D01*
D17*
X140650081Y-132937135D02*
X139419072Y-132720075D01*
D10*
X140361351Y-135323248D02*
X140752059Y-133107431D01*
X140832532Y-132766221D02*
X132757108Y-131342306D01*
X140207399Y-136311529D02*
X140832532Y-132766221D01*
X132757108Y-131342307D02*
G75*
G03*
X130359082Y-132848780I-445777J-1952249D01*
G01*
D16*
X135155858Y-135014636D02*
G75*
G03*
X132647008Y-136479765I-440830J-2125744D01*
G01*
D10*
X135480321Y-135478018D02*
G75*
G03*
X132971472Y-136943148I-440829J-2125744D01*
G01*
%TO.C,SW30*%
X245924988Y-91924928D02*
X246055224Y-92663534D01*
X246055224Y-92663534D02*
X246252186Y-92628804D01*
D11*
X246136340Y-92547688D02*
X246023469Y-91907563D01*
D10*
X246023589Y-91044429D02*
X246796323Y-95426824D01*
X246796323Y-95426824D02*
X249780291Y-94900670D01*
D12*
X246958555Y-95195132D02*
X249371334Y-94769694D01*
D13*
X247054182Y-94873643D02*
X246741615Y-93100990D01*
D14*
X247559246Y-91230593D02*
X247948218Y-93436563D01*
D10*
X251636632Y-92644036D02*
X256363710Y-91810525D01*
D15*
X254278489Y-90350438D02*
X247680277Y-91513880D01*
D16*
X255350361Y-88942926D02*
X255784482Y-91404945D01*
D12*
X256123336Y-91599052D02*
X254834403Y-91775555D01*
D17*
X255625585Y-88488226D02*
X254394575Y-88705286D01*
D10*
X256170365Y-90829190D02*
X255779657Y-88613373D01*
X255738576Y-88265217D02*
X247663152Y-89689132D01*
X256363710Y-91810525D02*
X255738576Y-88265217D01*
X247663152Y-89689132D02*
G75*
G03*
X245924988Y-91924929I248816J-1986980D01*
G01*
D16*
X251173250Y-92319572D02*
G75*
G03*
X249316806Y-94554422I312803J-2148319D01*
G01*
D10*
X251636632Y-92644036D02*
G75*
G03*
X249780188Y-94878886I312803J-2148319D01*
G01*
%TO.C,SW27*%
X188816288Y-97158728D02*
X188946524Y-97897334D01*
X188946524Y-97897334D02*
X189143486Y-97862604D01*
D11*
X189027640Y-97781488D02*
X188914769Y-97141363D01*
D10*
X188914889Y-96278229D02*
X189687623Y-100660624D01*
X189687623Y-100660624D02*
X192671591Y-100134470D01*
D12*
X189849855Y-100428932D02*
X192262634Y-100003494D01*
D13*
X189945482Y-100107443D02*
X189632915Y-98334790D01*
D14*
X190450546Y-96464393D02*
X190839518Y-98670363D01*
D10*
X194527932Y-97877836D02*
X199255010Y-97044325D01*
D15*
X197169789Y-95584238D02*
X190571577Y-96747680D01*
D16*
X198241661Y-94176726D02*
X198675782Y-96638745D01*
D12*
X199014636Y-96832852D02*
X197725703Y-97009355D01*
D17*
X198516885Y-93722026D02*
X197285875Y-93939086D01*
D10*
X199061665Y-96062990D02*
X198670957Y-93847173D01*
X198629876Y-93499017D02*
X190554452Y-94922932D01*
X199255010Y-97044325D02*
X198629876Y-93499017D01*
X190554452Y-94922932D02*
G75*
G03*
X188816288Y-97158729I248816J-1986980D01*
G01*
D16*
X194064550Y-97553372D02*
G75*
G03*
X192208106Y-99788222I312803J-2148319D01*
G01*
D10*
X194527932Y-97877836D02*
G75*
G03*
X192671488Y-100112686I312803J-2148319D01*
G01*
%TO.C,SW34*%
X112425481Y-124850579D02*
X112295245Y-125589185D01*
X112295245Y-125589185D02*
X112492206Y-125623915D01*
D11*
X112411090Y-125508069D02*
X112523961Y-124867944D01*
D10*
X112819284Y-124056905D02*
X112046549Y-128439299D01*
X112046549Y-128439299D02*
X115030517Y-128965453D01*
D12*
X112278240Y-128277067D02*
X114691019Y-128702505D01*
D13*
X112478056Y-128007672D02*
X112790623Y-126235019D01*
D14*
X114198657Y-124757068D02*
X113809685Y-126963037D01*
D10*
X117546721Y-127479817D02*
X122273799Y-128313329D01*
D15*
X120813711Y-126228108D02*
X114215499Y-125064665D01*
D16*
X122302339Y-125272081D02*
X121868219Y-127734101D01*
D12*
X122120249Y-128032397D02*
X120848681Y-127757414D01*
D17*
X122716481Y-124938935D02*
X121485472Y-124721875D01*
D10*
X122427751Y-127325048D02*
X122818459Y-125109231D01*
X122898932Y-124768021D02*
X114823508Y-123344106D01*
X122273799Y-128313329D02*
X122898932Y-124768021D01*
X114823508Y-123344107D02*
G75*
G03*
X112425482Y-124850580I-445777J-1952249D01*
G01*
D16*
X117222258Y-127016436D02*
G75*
G03*
X114713408Y-128481565I-440830J-2125744D01*
G01*
D10*
X117546721Y-127479818D02*
G75*
G03*
X115037872Y-128944948I-440829J-2125744D01*
G01*
%TO.C,SW19*%
X223029388Y-71782228D02*
X223159624Y-72520834D01*
X223159624Y-72520834D02*
X223356586Y-72486104D01*
D11*
X223240740Y-72404988D02*
X223127869Y-71764863D01*
D10*
X223127989Y-70901729D02*
X223900723Y-75284124D01*
X223900723Y-75284124D02*
X226884691Y-74757970D01*
D12*
X224062955Y-75052432D02*
X226475734Y-74626994D01*
D13*
X224158582Y-74730943D02*
X223846015Y-72958290D01*
D14*
X224663646Y-71087893D02*
X225052618Y-73293863D01*
D10*
X228741032Y-72501336D02*
X233468110Y-71667825D01*
D15*
X231382889Y-70207738D02*
X224784677Y-71371180D01*
D16*
X232454761Y-68800226D02*
X232888882Y-71262245D01*
D12*
X233227736Y-71456352D02*
X231938803Y-71632855D01*
D17*
X232729985Y-68345526D02*
X231498975Y-68562586D01*
D10*
X233274765Y-70686490D02*
X232884057Y-68470673D01*
X232842976Y-68122517D02*
X224767552Y-69546432D01*
X233468110Y-71667825D02*
X232842976Y-68122517D01*
X224767552Y-69546432D02*
G75*
G03*
X223029388Y-71782229I248816J-1986980D01*
G01*
D16*
X228277650Y-72176872D02*
G75*
G03*
X226421206Y-74411722I312803J-2148319D01*
G01*
D10*
X228741032Y-72501336D02*
G75*
G03*
X226884588Y-74736186I312803J-2148319D01*
G01*
%TO.C,SW36*%
X166464388Y-134951828D02*
X166594624Y-135690434D01*
X166594624Y-135690434D02*
X166791586Y-135655704D01*
D11*
X166675740Y-135574588D02*
X166562869Y-134934463D01*
D10*
X166562989Y-134071329D02*
X167335723Y-138453724D01*
X167335723Y-138453724D02*
X170319691Y-137927570D01*
D12*
X167497955Y-138222032D02*
X169910734Y-137796594D01*
D13*
X167593582Y-137900543D02*
X167281015Y-136127890D01*
D14*
X168098646Y-134257493D02*
X168487618Y-136463463D01*
D10*
X172176032Y-135670936D02*
X176903110Y-134837425D01*
D15*
X174817889Y-133377338D02*
X168219677Y-134540780D01*
D16*
X175889761Y-131969826D02*
X176323882Y-134431845D01*
D12*
X176662736Y-134625952D02*
X175373803Y-134802455D01*
D17*
X176164985Y-131515126D02*
X174933975Y-131732186D01*
D10*
X176709765Y-133856090D02*
X176319057Y-131640273D01*
X176277976Y-131292117D02*
X168202552Y-132716032D01*
X176903110Y-134837425D02*
X176277976Y-131292117D01*
X168202552Y-132716032D02*
G75*
G03*
X166464388Y-134951829I248816J-1986980D01*
G01*
D16*
X171712650Y-135346472D02*
G75*
G03*
X169856206Y-137581322I312803J-2148319D01*
G01*
D10*
X172176032Y-135670936D02*
G75*
G03*
X170319588Y-137905786I312803J-2148319D01*
G01*
%TO.C,SW7*%
X182200288Y-59637628D02*
X182330524Y-60376234D01*
X182330524Y-60376234D02*
X182527486Y-60341504D01*
D11*
X182411640Y-60260388D02*
X182298769Y-59620263D01*
D10*
X182298889Y-58757129D02*
X183071623Y-63139524D01*
X183071623Y-63139524D02*
X186055591Y-62613370D01*
D12*
X183233855Y-62907832D02*
X185646634Y-62482394D01*
D13*
X183329482Y-62586343D02*
X183016915Y-60813690D01*
D14*
X183834546Y-58943293D02*
X184223518Y-61149263D01*
D10*
X187911932Y-60356736D02*
X192639010Y-59523225D01*
D15*
X190553789Y-58063138D02*
X183955577Y-59226580D01*
D16*
X191625661Y-56655626D02*
X192059782Y-59117645D01*
D12*
X192398636Y-59311752D02*
X191109703Y-59488255D01*
D17*
X191900885Y-56200926D02*
X190669875Y-56417986D01*
D10*
X192445665Y-58541890D02*
X192054957Y-56326073D01*
X192013876Y-55977917D02*
X183938452Y-57401832D01*
X192639010Y-59523225D02*
X192013876Y-55977917D01*
X183938452Y-57401832D02*
G75*
G03*
X182200288Y-59637629I248816J-1986980D01*
G01*
D16*
X187448550Y-60032272D02*
G75*
G03*
X185592106Y-62267122I312803J-2148319D01*
G01*
D10*
X187911932Y-60356736D02*
G75*
G03*
X186055488Y-62591586I312803J-2148319D01*
G01*
%TO.C,SW8*%
X200133888Y-51639428D02*
X200264124Y-52378034D01*
X200264124Y-52378034D02*
X200461086Y-52343304D01*
D11*
X200345240Y-52262188D02*
X200232369Y-51622063D01*
D10*
X200232489Y-50758929D02*
X201005223Y-55141324D01*
X201005223Y-55141324D02*
X203989191Y-54615170D01*
D12*
X201167455Y-54909632D02*
X203580234Y-54484194D01*
D13*
X201263082Y-54588143D02*
X200950515Y-52815490D01*
D14*
X201768146Y-50945093D02*
X202157118Y-53151063D01*
D10*
X205845532Y-52358536D02*
X210572610Y-51525025D01*
D15*
X208487389Y-50064938D02*
X201889177Y-51228380D01*
D16*
X209559261Y-48657426D02*
X209993382Y-51119445D01*
D12*
X210332236Y-51313552D02*
X209043303Y-51490055D01*
D17*
X209834485Y-48202726D02*
X208603475Y-48419786D01*
D10*
X210379265Y-50543690D02*
X209988557Y-48327873D01*
X209947476Y-47979717D02*
X201872052Y-49403632D01*
X210572610Y-51525025D02*
X209947476Y-47979717D01*
X201872052Y-49403632D02*
G75*
G03*
X200133888Y-51639429I248816J-1986980D01*
G01*
D16*
X205382150Y-52034072D02*
G75*
G03*
X203525706Y-54268922I312803J-2148319D01*
G01*
D10*
X205845532Y-52358536D02*
G75*
G03*
X203989088Y-54593386I312803J-2148319D01*
G01*
%TO.C,SW29*%
X226337388Y-90542728D02*
X226467624Y-91281334D01*
X226467624Y-91281334D02*
X226664586Y-91246604D01*
D11*
X226548740Y-91165488D02*
X226435869Y-90525363D01*
D10*
X226435989Y-89662229D02*
X227208723Y-94044624D01*
X227208723Y-94044624D02*
X230192691Y-93518470D01*
D12*
X227370955Y-93812932D02*
X229783734Y-93387494D01*
D13*
X227466582Y-93491443D02*
X227154015Y-91718790D01*
D14*
X227971646Y-89848393D02*
X228360618Y-92054363D01*
D10*
X232049032Y-91261836D02*
X236776110Y-90428325D01*
D15*
X234690889Y-88968238D02*
X228092677Y-90131680D01*
D16*
X235762761Y-87560726D02*
X236196882Y-90022745D01*
D12*
X236535736Y-90216852D02*
X235246803Y-90393355D01*
D17*
X236037985Y-87106026D02*
X234806975Y-87323086D01*
D10*
X236582765Y-89446990D02*
X236192057Y-87231173D01*
X236150976Y-86883017D02*
X228075552Y-88306932D01*
X236776110Y-90428325D02*
X236150976Y-86883017D01*
X228075552Y-88306932D02*
G75*
G03*
X226337388Y-90542729I248816J-1986980D01*
G01*
D16*
X231585650Y-90937372D02*
G75*
G03*
X229729206Y-93172222I312803J-2148319D01*
G01*
D10*
X232049032Y-91261836D02*
G75*
G03*
X230192588Y-93496686I312803J-2148319D01*
G01*
%TO.C,SW18*%
X203441888Y-70400028D02*
X203572124Y-71138634D01*
X203572124Y-71138634D02*
X203769086Y-71103904D01*
D11*
X203653240Y-71022788D02*
X203540369Y-70382663D01*
D10*
X203540489Y-69519529D02*
X204313223Y-73901924D01*
X204313223Y-73901924D02*
X207297191Y-73375770D01*
D12*
X204475455Y-73670232D02*
X206888234Y-73244794D01*
D13*
X204571082Y-73348743D02*
X204258515Y-71576090D01*
D14*
X205076146Y-69705693D02*
X205465118Y-71911663D01*
D10*
X209153532Y-71119136D02*
X213880610Y-70285625D01*
D15*
X211795389Y-68825538D02*
X205197177Y-69988980D01*
D16*
X212867261Y-67418026D02*
X213301382Y-69880045D01*
D12*
X213640236Y-70074152D02*
X212351303Y-70250655D01*
D17*
X213142485Y-66963326D02*
X211911475Y-67180386D01*
D10*
X213687265Y-69304290D02*
X213296557Y-67088473D01*
X213255476Y-66740317D02*
X205180052Y-68164232D01*
X213880610Y-70285625D02*
X213255476Y-66740317D01*
X205180052Y-68164232D02*
G75*
G03*
X203441888Y-70400029I248816J-1986980D01*
G01*
D16*
X208690150Y-70794672D02*
G75*
G03*
X206833706Y-73029522I312803J-2148319D01*
G01*
D10*
X209153532Y-71119136D02*
G75*
G03*
X207297088Y-73353986I312803J-2148319D01*
G01*
%TO.C,SW14*%
X111315181Y-76295079D02*
X111184945Y-77033685D01*
X111184945Y-77033685D02*
X111381906Y-77068415D01*
D11*
X111300790Y-76952569D02*
X111413661Y-76312444D01*
D10*
X111708984Y-75501405D02*
X110936249Y-79883799D01*
X110936249Y-79883799D02*
X113920217Y-80409953D01*
D12*
X111167940Y-79721567D02*
X113580719Y-80147005D01*
D13*
X111367756Y-79452172D02*
X111680323Y-77679519D01*
D14*
X113088357Y-76201568D02*
X112699385Y-78407537D01*
D10*
X116436421Y-78924317D02*
X121163499Y-79757829D01*
D15*
X119703411Y-77672608D02*
X113105199Y-76509165D01*
D16*
X121192039Y-76716581D02*
X120757919Y-79178601D01*
D12*
X121009949Y-79476897D02*
X119738381Y-79201914D01*
D17*
X121606181Y-76383435D02*
X120375172Y-76166375D01*
D10*
X121317451Y-78769548D02*
X121708159Y-76553731D01*
X121788632Y-76212521D02*
X113713208Y-74788606D01*
X121163499Y-79757829D02*
X121788632Y-76212521D01*
X113713208Y-74788607D02*
G75*
G03*
X111315182Y-76295080I-445777J-1952249D01*
G01*
D16*
X116111958Y-78460936D02*
G75*
G03*
X113603108Y-79926065I-440830J-2125744D01*
G01*
D10*
X116436421Y-78924318D02*
G75*
G03*
X113927572Y-80389448I-440829J-2125744D01*
G01*
%TO.C,SW3*%
X96689581Y-49536379D02*
X96559345Y-50274985D01*
X96559345Y-50274985D02*
X96756306Y-50309715D01*
D11*
X96675190Y-50193869D02*
X96788061Y-49553744D01*
D10*
X97083384Y-48742705D02*
X96310649Y-53125099D01*
X96310649Y-53125099D02*
X99294617Y-53651253D01*
D12*
X96542340Y-52962867D02*
X98955119Y-53388305D01*
D13*
X96742156Y-52693472D02*
X97054723Y-50920819D01*
D14*
X98462757Y-49442868D02*
X98073785Y-51648837D01*
D10*
X101810821Y-52165617D02*
X106537899Y-52999129D01*
D15*
X105077811Y-50913908D02*
X98479599Y-49750465D01*
D16*
X106566439Y-49957881D02*
X106132319Y-52419901D01*
D12*
X106384349Y-52718197D02*
X105112781Y-52443214D01*
D17*
X106980581Y-49624735D02*
X105749572Y-49407675D01*
D10*
X106691851Y-52010848D02*
X107082559Y-49795031D01*
X107163032Y-49453821D02*
X99087608Y-48029906D01*
X106537899Y-52999129D02*
X107163032Y-49453821D01*
X99087608Y-48029907D02*
G75*
G03*
X96689582Y-49536380I-445777J-1952249D01*
G01*
D16*
X101486358Y-51702236D02*
G75*
G03*
X98977508Y-53167365I-440830J-2125744D01*
G01*
D10*
X101810821Y-52165618D02*
G75*
G03*
X99301972Y-53630748I-440829J-2125744D01*
G01*
%TO.C,SW20*%
X242616988Y-73164328D02*
X242747224Y-73902934D01*
X242747224Y-73902934D02*
X242944186Y-73868204D01*
D11*
X242828340Y-73787088D02*
X242715469Y-73146963D01*
D10*
X242715589Y-72283829D02*
X243488323Y-76666224D01*
X243488323Y-76666224D02*
X246472291Y-76140070D01*
D12*
X243650555Y-76434532D02*
X246063334Y-76009094D01*
D13*
X243746182Y-76113043D02*
X243433615Y-74340390D01*
D14*
X244251246Y-72469993D02*
X244640218Y-74675963D01*
D10*
X248328632Y-73883436D02*
X253055710Y-73049925D01*
D15*
X250970489Y-71589838D02*
X244372277Y-72753280D01*
D16*
X252042361Y-70182326D02*
X252476482Y-72644345D01*
D12*
X252815336Y-72838452D02*
X251526403Y-73014955D01*
D17*
X252317585Y-69727626D02*
X251086575Y-69944686D01*
D10*
X252862365Y-72068590D02*
X252471657Y-69852773D01*
X252430576Y-69504617D02*
X244355152Y-70928532D01*
X253055710Y-73049925D02*
X252430576Y-69504617D01*
X244355152Y-70928532D02*
G75*
G03*
X242616988Y-73164329I248816J-1986980D01*
G01*
D16*
X247865250Y-73558972D02*
G75*
G03*
X246008806Y-75793822I312803J-2148319D01*
G01*
D10*
X248328632Y-73883436D02*
G75*
G03*
X246472188Y-76118286I312803J-2148319D01*
G01*
%TO.C,SW39*%
X229645388Y-109303328D02*
X229775624Y-110041934D01*
X229775624Y-110041934D02*
X229972586Y-110007204D01*
D11*
X229856740Y-109926088D02*
X229743869Y-109285963D01*
D10*
X229743989Y-108422829D02*
X230516723Y-112805224D01*
X230516723Y-112805224D02*
X233500691Y-112279070D01*
D12*
X230678955Y-112573532D02*
X233091734Y-112148094D01*
D13*
X230774582Y-112252043D02*
X230462015Y-110479390D01*
D14*
X231279646Y-108608993D02*
X231668618Y-110814963D01*
D10*
X235357032Y-110022436D02*
X240084110Y-109188925D01*
D15*
X237998889Y-107728838D02*
X231400677Y-108892280D01*
D16*
X239070761Y-106321326D02*
X239504882Y-108783345D01*
D12*
X239843736Y-108977452D02*
X238554803Y-109153955D01*
D17*
X239345985Y-105866626D02*
X238114975Y-106083686D01*
D10*
X239890765Y-108207590D02*
X239500057Y-105991773D01*
X239458976Y-105643617D02*
X231383552Y-107067532D01*
X240084110Y-109188925D02*
X239458976Y-105643617D01*
X231383552Y-107067532D02*
G75*
G03*
X229645388Y-109303329I248816J-1986980D01*
G01*
D16*
X234893650Y-109697972D02*
G75*
G03*
X233037206Y-111932822I312803J-2148319D01*
G01*
D10*
X235357032Y-110022436D02*
G75*
G03*
X233500588Y-112257286I312803J-2148319D01*
G01*
%TO.C,SW32*%
X67177981Y-107200279D02*
X67047745Y-107938885D01*
X67047745Y-107938885D02*
X67244706Y-107973615D01*
D11*
X67163590Y-107857769D02*
X67276461Y-107217644D01*
D10*
X67571784Y-106406605D02*
X66799049Y-110788999D01*
X66799049Y-110788999D02*
X69783017Y-111315153D01*
D12*
X67030740Y-110626767D02*
X69443519Y-111052205D01*
D13*
X67230556Y-110357372D02*
X67543123Y-108584719D01*
D14*
X68951157Y-107106768D02*
X68562185Y-109312737D01*
D10*
X72299221Y-109829517D02*
X77026299Y-110663029D01*
D15*
X75566211Y-108577808D02*
X68967999Y-107414365D01*
D16*
X77054839Y-107621781D02*
X76620719Y-110083801D01*
D12*
X76872749Y-110382097D02*
X75601181Y-110107114D01*
D17*
X77468981Y-107288635D02*
X76237972Y-107071575D01*
D10*
X77180251Y-109674748D02*
X77570959Y-107458931D01*
X77651432Y-107117721D02*
X69576008Y-105693806D01*
X77026299Y-110663029D02*
X77651432Y-107117721D01*
X69576008Y-105693807D02*
G75*
G03*
X67177982Y-107200280I-445777J-1952249D01*
G01*
D16*
X71974758Y-109366136D02*
G75*
G03*
X69465908Y-110831265I-440830J-2125744D01*
G01*
D10*
X72299221Y-109829518D02*
G75*
G03*
X69790372Y-111294648I-440829J-2125744D01*
G01*
%TO.C,SW40*%
X249232988Y-110685528D02*
X249363224Y-111424134D01*
X249363224Y-111424134D02*
X249560186Y-111389404D01*
D11*
X249444340Y-111308288D02*
X249331469Y-110668163D01*
D10*
X249331589Y-109805029D02*
X250104323Y-114187424D01*
X250104323Y-114187424D02*
X253088291Y-113661270D01*
D12*
X250266555Y-113955732D02*
X252679334Y-113530294D01*
D13*
X250362182Y-113634243D02*
X250049615Y-111861590D01*
D14*
X250867246Y-109991193D02*
X251256218Y-112197163D01*
D10*
X254944632Y-111404636D02*
X259671710Y-110571125D01*
D15*
X257586489Y-109111038D02*
X250988277Y-110274480D01*
D16*
X258658361Y-107703526D02*
X259092482Y-110165545D01*
D12*
X259431336Y-110359652D02*
X258142403Y-110536155D01*
D17*
X258933585Y-107248826D02*
X257702575Y-107465886D01*
D10*
X259478365Y-109589790D02*
X259087657Y-107373973D01*
X259046576Y-107025817D02*
X250971152Y-108449732D01*
X259671710Y-110571125D02*
X259046576Y-107025817D01*
X250971152Y-108449732D02*
G75*
G03*
X249232988Y-110685529I248816J-1986980D01*
G01*
D16*
X254481250Y-111080172D02*
G75*
G03*
X252624806Y-113315022I312803J-2148319D01*
G01*
D10*
X254944632Y-111404636D02*
G75*
G03*
X253088188Y-113639486I312803J-2148319D01*
G01*
%TO.C,SW25*%
X125940781Y-103053879D02*
X125810545Y-103792485D01*
X125810545Y-103792485D02*
X126007506Y-103827215D01*
D11*
X125926390Y-103711369D02*
X126039261Y-103071244D01*
D10*
X126334584Y-102260205D02*
X125561849Y-106642599D01*
X125561849Y-106642599D02*
X128545817Y-107168753D01*
D12*
X125793540Y-106480367D02*
X128206319Y-106905805D01*
D13*
X125993356Y-106210972D02*
X126305923Y-104438319D01*
D14*
X127713957Y-102960368D02*
X127324985Y-105166337D01*
D10*
X131062021Y-105683117D02*
X135789099Y-106516629D01*
D15*
X134329011Y-104431408D02*
X127730799Y-103267965D01*
D16*
X135817639Y-103475381D02*
X135383519Y-105937401D01*
D12*
X135635549Y-106235697D02*
X134363981Y-105960714D01*
D17*
X136231781Y-103142235D02*
X135000772Y-102925175D01*
D10*
X135943051Y-105528348D02*
X136333759Y-103312531D01*
X136414232Y-102971321D02*
X128338808Y-101547406D01*
X135789099Y-106516629D02*
X136414232Y-102971321D01*
X128338808Y-101547407D02*
G75*
G03*
X125940782Y-103053880I-445777J-1952249D01*
G01*
D16*
X130737558Y-105219736D02*
G75*
G03*
X128228708Y-106684865I-440830J-2125744D01*
G01*
D10*
X131062021Y-105683118D02*
G75*
G03*
X128553172Y-107148248I-440829J-2125744D01*
G01*
%TO.C,SW9*%
X219721388Y-53021628D02*
X219851624Y-53760234D01*
X219851624Y-53760234D02*
X220048586Y-53725504D01*
D11*
X219932740Y-53644388D02*
X219819869Y-53004263D01*
D10*
X219819989Y-52141129D02*
X220592723Y-56523524D01*
X220592723Y-56523524D02*
X223576691Y-55997370D01*
D12*
X220754955Y-56291832D02*
X223167734Y-55866394D01*
D13*
X220850582Y-55970343D02*
X220538015Y-54197690D01*
D14*
X221355646Y-52327293D02*
X221744618Y-54533263D01*
D10*
X225433032Y-53740736D02*
X230160110Y-52907225D01*
D15*
X228074889Y-51447138D02*
X221476677Y-52610580D01*
D16*
X229146761Y-50039626D02*
X229580882Y-52501645D01*
D12*
X229919736Y-52695752D02*
X228630803Y-52872255D01*
D17*
X229421985Y-49584926D02*
X228190975Y-49801986D01*
D10*
X229966765Y-51925890D02*
X229576057Y-49710073D01*
X229534976Y-49361917D02*
X221459552Y-50785832D01*
X230160110Y-52907225D02*
X229534976Y-49361917D01*
X221459552Y-50785832D02*
G75*
G03*
X219721388Y-53021629I248816J-1986980D01*
G01*
D16*
X224969650Y-53416272D02*
G75*
G03*
X223113206Y-55651122I312803J-2148319D01*
G01*
D10*
X225433032Y-53740736D02*
G75*
G03*
X223576588Y-55975586I312803J-2148319D01*
G01*
%TO.C,SW37*%
X184397988Y-126953628D02*
X184528224Y-127692234D01*
X184528224Y-127692234D02*
X184725186Y-127657504D01*
D11*
X184609340Y-127576388D02*
X184496469Y-126936263D01*
D10*
X184496589Y-126073129D02*
X185269323Y-130455524D01*
X185269323Y-130455524D02*
X188253291Y-129929370D01*
D12*
X185431555Y-130223832D02*
X187844334Y-129798394D01*
D13*
X185527182Y-129902343D02*
X185214615Y-128129690D01*
D14*
X186032246Y-126259293D02*
X186421218Y-128465263D01*
D10*
X190109632Y-127672736D02*
X194836710Y-126839225D01*
D15*
X192751489Y-125379138D02*
X186153277Y-126542580D01*
D16*
X193823361Y-123971626D02*
X194257482Y-126433645D01*
D12*
X194596336Y-126627752D02*
X193307403Y-126804255D01*
D17*
X194098585Y-123516926D02*
X192867575Y-123733986D01*
D10*
X194643365Y-125857890D02*
X194252657Y-123642073D01*
X194211576Y-123293917D02*
X186136152Y-124717832D01*
X194836710Y-126839225D02*
X194211576Y-123293917D01*
X186136152Y-124717832D02*
G75*
G03*
X184397988Y-126953629I248816J-1986980D01*
G01*
D16*
X189646250Y-127348272D02*
G75*
G03*
X187789806Y-129583122I312803J-2148319D01*
G01*
D10*
X190109632Y-127672736D02*
G75*
G03*
X188253188Y-129907586I312803J-2148319D01*
G01*
%TO.C,SW1*%
X57514381Y-52300679D02*
X57384145Y-53039285D01*
X57384145Y-53039285D02*
X57581106Y-53074015D01*
D11*
X57499990Y-52958169D02*
X57612861Y-52318044D01*
D10*
X57908184Y-51507005D02*
X57135449Y-55889399D01*
X57135449Y-55889399D02*
X60119417Y-56415553D01*
D12*
X57367140Y-55727167D02*
X59779919Y-56152605D01*
D13*
X57566956Y-55457772D02*
X57879523Y-53685119D01*
D14*
X59287557Y-52207168D02*
X58898585Y-54413137D01*
D10*
X62635621Y-54929917D02*
X67362699Y-55763429D01*
D15*
X65902611Y-53678208D02*
X59304399Y-52514765D01*
D16*
X67391239Y-52722181D02*
X66957119Y-55184201D01*
D12*
X67209149Y-55482497D02*
X65937581Y-55207514D01*
D17*
X67805381Y-52389035D02*
X66574372Y-52171975D01*
D10*
X67516651Y-54775148D02*
X67907359Y-52559331D01*
X67987832Y-52218121D02*
X59912408Y-50794206D01*
X67362699Y-55763429D02*
X67987832Y-52218121D01*
X59912408Y-50794207D02*
G75*
G03*
X57514382Y-52300680I-445777J-1952249D01*
G01*
D16*
X62311158Y-54466536D02*
G75*
G03*
X59802308Y-55931665I-440830J-2125744D01*
G01*
D10*
X62635621Y-54929918D02*
G75*
G03*
X60126772Y-56395048I-440829J-2125744D01*
G01*
%TO.C,SW2*%
X77101981Y-50918579D02*
X76971745Y-51657185D01*
X76971745Y-51657185D02*
X77168706Y-51691915D01*
D11*
X77087590Y-51576069D02*
X77200461Y-50935944D01*
D10*
X77495784Y-50124905D02*
X76723049Y-54507299D01*
X76723049Y-54507299D02*
X79707017Y-55033453D01*
D12*
X76954740Y-54345067D02*
X79367519Y-54770505D01*
D13*
X77154556Y-54075672D02*
X77467123Y-52303019D01*
D14*
X78875157Y-50825068D02*
X78486185Y-53031037D01*
D10*
X82223221Y-53547817D02*
X86950299Y-54381329D01*
D15*
X85490211Y-52296108D02*
X78891999Y-51132665D01*
D16*
X86978839Y-51340081D02*
X86544719Y-53802101D01*
D12*
X86796749Y-54100397D02*
X85525181Y-53825414D01*
D17*
X87392981Y-51006935D02*
X86161972Y-50789875D01*
D10*
X87104251Y-53393048D02*
X87494959Y-51177231D01*
X87575432Y-50836021D02*
X79500008Y-49412106D01*
X86950299Y-54381329D02*
X87575432Y-50836021D01*
X79500008Y-49412107D02*
G75*
G03*
X77101982Y-50918580I-445777J-1952249D01*
G01*
D16*
X81898758Y-53084436D02*
G75*
G03*
X79389908Y-54549565I-440830J-2125744D01*
G01*
D10*
X82223221Y-53547818D02*
G75*
G03*
X79714372Y-55012948I-440829J-2125744D01*
G01*
%TO.C,SW11*%
X54206381Y-71061279D02*
X54076145Y-71799885D01*
X54076145Y-71799885D02*
X54273106Y-71834615D01*
D11*
X54191990Y-71718769D02*
X54304861Y-71078644D01*
D10*
X54600184Y-70267605D02*
X53827449Y-74649999D01*
X53827449Y-74649999D02*
X56811417Y-75176153D01*
D12*
X54059140Y-74487767D02*
X56471919Y-74913205D01*
D13*
X54258956Y-74218372D02*
X54571523Y-72445719D01*
D14*
X55979557Y-70967768D02*
X55590585Y-73173737D01*
D10*
X59327621Y-73690517D02*
X64054699Y-74524029D01*
D15*
X62594611Y-72438808D02*
X55996399Y-71275365D01*
D16*
X64083239Y-71482781D02*
X63649119Y-73944801D01*
D12*
X63901149Y-74243097D02*
X62629581Y-73968114D01*
D17*
X64497381Y-71149635D02*
X63266372Y-70932575D01*
D10*
X64208651Y-73535748D02*
X64599359Y-71319931D01*
X64679832Y-70978721D02*
X56604408Y-69554806D01*
X64054699Y-74524029D02*
X64679832Y-70978721D01*
X56604408Y-69554807D02*
G75*
G03*
X54206382Y-71061280I-445777J-1952249D01*
G01*
D16*
X59003158Y-73227136D02*
G75*
G03*
X56494308Y-74692265I-440830J-2125744D01*
G01*
D10*
X59327621Y-73690518D02*
G75*
G03*
X56818772Y-75155648I-440829J-2125744D01*
G01*
%TO.C,SW28*%
X206749888Y-89160628D02*
X206880124Y-89899234D01*
X206880124Y-89899234D02*
X207077086Y-89864504D01*
D11*
X206961240Y-89783388D02*
X206848369Y-89143263D01*
D10*
X206848489Y-88280129D02*
X207621223Y-92662524D01*
X207621223Y-92662524D02*
X210605191Y-92136370D01*
D12*
X207783455Y-92430832D02*
X210196234Y-92005394D01*
D13*
X207879082Y-92109343D02*
X207566515Y-90336690D01*
D14*
X208384146Y-88466293D02*
X208773118Y-90672263D01*
D10*
X212461532Y-89879736D02*
X217188610Y-89046225D01*
D15*
X215103389Y-87586138D02*
X208505177Y-88749580D01*
D16*
X216175261Y-86178626D02*
X216609382Y-88640645D01*
D12*
X216948236Y-88834752D02*
X215659303Y-89011255D01*
D17*
X216450485Y-85723926D02*
X215219475Y-85940986D01*
D10*
X216995265Y-88064890D02*
X216604557Y-85849073D01*
X216563476Y-85500917D02*
X208488052Y-86924832D01*
X217188610Y-89046225D02*
X216563476Y-85500917D01*
X208488052Y-86924832D02*
G75*
G03*
X206749888Y-89160629I248816J-1986980D01*
G01*
D16*
X211998150Y-89555272D02*
G75*
G03*
X210141706Y-91790122I312803J-2148319D01*
G01*
D10*
X212461532Y-89879736D02*
G75*
G03*
X210605088Y-92114586I312803J-2148319D01*
G01*
%TO.C,SW22*%
X70485981Y-88439679D02*
X70355745Y-89178285D01*
X70355745Y-89178285D02*
X70552706Y-89213015D01*
D11*
X70471590Y-89097169D02*
X70584461Y-88457044D01*
D10*
X70879784Y-87646005D02*
X70107049Y-92028399D01*
X70107049Y-92028399D02*
X73091017Y-92554553D01*
D12*
X70338740Y-91866167D02*
X72751519Y-92291605D01*
D13*
X70538556Y-91596772D02*
X70851123Y-89824119D01*
D14*
X72259157Y-88346168D02*
X71870185Y-90552137D01*
D10*
X75607221Y-91068917D02*
X80334299Y-91902429D01*
D15*
X78874211Y-89817208D02*
X72275999Y-88653765D01*
D16*
X80362839Y-88861181D02*
X79928719Y-91323201D01*
D12*
X80180749Y-91621497D02*
X78909181Y-91346514D01*
D17*
X80776981Y-88528035D02*
X79545972Y-88310975D01*
D10*
X80488251Y-90914148D02*
X80878959Y-88698331D01*
X80959432Y-88357121D02*
X72884008Y-86933206D01*
X80334299Y-91902429D02*
X80959432Y-88357121D01*
X72884008Y-86933207D02*
G75*
G03*
X70485982Y-88439680I-445777J-1952249D01*
G01*
D16*
X75282758Y-90605536D02*
G75*
G03*
X72773908Y-92070665I-440830J-2125744D01*
G01*
D10*
X75607221Y-91068918D02*
G75*
G03*
X73098372Y-92534048I-440829J-2125744D01*
G01*
%TO.C,SW12*%
X73793981Y-69679179D02*
X73663745Y-70417785D01*
X73663745Y-70417785D02*
X73860706Y-70452515D01*
D11*
X73779590Y-70336669D02*
X73892461Y-69696544D01*
D10*
X74187784Y-68885505D02*
X73415049Y-73267899D01*
X73415049Y-73267899D02*
X76399017Y-73794053D01*
D12*
X73646740Y-73105667D02*
X76059519Y-73531105D01*
D13*
X73846556Y-72836272D02*
X74159123Y-71063619D01*
D14*
X75567157Y-69585668D02*
X75178185Y-71791637D01*
D10*
X78915221Y-72308417D02*
X83642299Y-73141929D01*
D15*
X82182211Y-71056708D02*
X75583999Y-69893265D01*
D16*
X83670839Y-70100681D02*
X83236719Y-72562701D01*
D12*
X83488749Y-72860997D02*
X82217181Y-72586014D01*
D17*
X84084981Y-69767535D02*
X82853972Y-69550475D01*
D10*
X83796251Y-72153648D02*
X84186959Y-69937831D01*
X84267432Y-69596621D02*
X76192008Y-68172706D01*
X83642299Y-73141929D02*
X84267432Y-69596621D01*
X76192008Y-68172707D02*
G75*
G03*
X73793982Y-69679180I-445777J-1952249D01*
G01*
D16*
X78590758Y-71845036D02*
G75*
G03*
X76081908Y-73310165I-440830J-2125744D01*
G01*
D10*
X78915221Y-72308418D02*
G75*
G03*
X76406372Y-73773548I-440829J-2125744D01*
G01*
%TO.C,SW15*%
X129248781Y-84293279D02*
X129118545Y-85031885D01*
X129118545Y-85031885D02*
X129315506Y-85066615D01*
D11*
X129234390Y-84950769D02*
X129347261Y-84310644D01*
D10*
X129642584Y-83499605D02*
X128869849Y-87881999D01*
X128869849Y-87881999D02*
X131853817Y-88408153D01*
D12*
X129101540Y-87719767D02*
X131514319Y-88145205D01*
D13*
X129301356Y-87450372D02*
X129613923Y-85677719D01*
D14*
X131021957Y-84199768D02*
X130632985Y-86405737D01*
D10*
X134370021Y-86922517D02*
X139097099Y-87756029D01*
D15*
X137637011Y-85670808D02*
X131038799Y-84507365D01*
D16*
X139125639Y-84714781D02*
X138691519Y-87176801D01*
D12*
X138943549Y-87475097D02*
X137671981Y-87200114D01*
D17*
X139539781Y-84381635D02*
X138308772Y-84164575D01*
D10*
X139251051Y-86767748D02*
X139641759Y-84551931D01*
X139722232Y-84210721D02*
X131646808Y-82786806D01*
X139097099Y-87756029D02*
X139722232Y-84210721D01*
X131646808Y-82786807D02*
G75*
G03*
X129248782Y-84293280I-445777J-1952249D01*
G01*
D16*
X134045558Y-86459136D02*
G75*
G03*
X131536708Y-87924265I-440830J-2125744D01*
G01*
D10*
X134370021Y-86922518D02*
G75*
G03*
X131861172Y-88387648I-440829J-2125744D01*
G01*
%TO.C,SW41*%
X176400000Y-38650000D02*
X182400000Y-38650000D01*
X176400000Y-38900000D02*
X176400000Y-38650000D01*
X176400000Y-42150000D02*
X176400000Y-41900000D01*
X182400000Y-38650000D02*
X182400000Y-38900000D01*
X182400000Y-41900000D02*
X182400000Y-42150000D01*
X182400000Y-42150000D02*
X176400000Y-42150000D01*
%TO.C,SW10*%
X239308988Y-54403728D02*
X239439224Y-55142334D01*
X239439224Y-55142334D02*
X239636186Y-55107604D01*
D11*
X239520340Y-55026488D02*
X239407469Y-54386363D01*
D10*
X239407589Y-53523229D02*
X240180323Y-57905624D01*
X240180323Y-57905624D02*
X243164291Y-57379470D01*
D12*
X240342555Y-57673932D02*
X242755334Y-57248494D01*
D13*
X240438182Y-57352443D02*
X240125615Y-55579790D01*
D14*
X240943246Y-53709393D02*
X241332218Y-55915363D01*
D10*
X245020632Y-55122836D02*
X249747710Y-54289325D01*
D15*
X247662489Y-52829238D02*
X241064277Y-53992680D01*
D16*
X248734361Y-51421726D02*
X249168482Y-53883745D01*
D12*
X249507336Y-54077852D02*
X248218403Y-54254355D01*
D17*
X249009585Y-50967026D02*
X247778575Y-51184086D01*
D10*
X249554365Y-53307990D02*
X249163657Y-51092173D01*
X249122576Y-50744017D02*
X241047152Y-52167932D01*
X249747710Y-54289325D02*
X249122576Y-50744017D01*
X241047152Y-52167932D02*
G75*
G03*
X239308988Y-54403729I248816J-1986980D01*
G01*
D16*
X244557250Y-54798372D02*
G75*
G03*
X242700806Y-57033222I312803J-2148319D01*
G01*
D10*
X245020632Y-55122836D02*
G75*
G03*
X243164188Y-57357686I312803J-2148319D01*
G01*
%TO.C,SW5*%
X132556781Y-65532679D02*
X132426545Y-66271285D01*
X132426545Y-66271285D02*
X132623506Y-66306015D01*
D11*
X132542390Y-66190169D02*
X132655261Y-65550044D01*
D10*
X132950584Y-64739005D02*
X132177849Y-69121399D01*
X132177849Y-69121399D02*
X135161817Y-69647553D01*
D12*
X132409540Y-68959167D02*
X134822319Y-69384605D01*
D13*
X132609356Y-68689772D02*
X132921923Y-66917119D01*
D14*
X134329957Y-65439168D02*
X133940985Y-67645137D01*
D10*
X137678021Y-68161917D02*
X142405099Y-68995429D01*
D15*
X140945011Y-66910208D02*
X134346799Y-65746765D01*
D16*
X142433639Y-65954181D02*
X141999519Y-68416201D01*
D12*
X142251549Y-68714497D02*
X140979981Y-68439514D01*
D17*
X142847781Y-65621035D02*
X141616772Y-65403975D01*
D10*
X142559051Y-68007148D02*
X142949759Y-65791331D01*
X143030232Y-65450121D02*
X134954808Y-64026206D01*
X142405099Y-68995429D02*
X143030232Y-65450121D01*
X134954808Y-64026207D02*
G75*
G03*
X132556782Y-65532680I-445777J-1952249D01*
G01*
D16*
X137353558Y-67698536D02*
G75*
G03*
X134844708Y-69163665I-440830J-2125744D01*
G01*
D10*
X137678021Y-68161918D02*
G75*
G03*
X135169172Y-69627048I-440829J-2125744D01*
G01*
%TO.C,SW24*%
X108007181Y-95055679D02*
X107876945Y-95794285D01*
X107876945Y-95794285D02*
X108073906Y-95829015D01*
D11*
X107992790Y-95713169D02*
X108105661Y-95073044D01*
D10*
X108400984Y-94262005D02*
X107628249Y-98644399D01*
X107628249Y-98644399D02*
X110612217Y-99170553D01*
D12*
X107859940Y-98482167D02*
X110272719Y-98907605D01*
D13*
X108059756Y-98212772D02*
X108372323Y-96440119D01*
D14*
X109780357Y-94962168D02*
X109391385Y-97168137D01*
D10*
X113128421Y-97684917D02*
X117855499Y-98518429D01*
D15*
X116395411Y-96433208D02*
X109797199Y-95269765D01*
D16*
X117884039Y-95477181D02*
X117449919Y-97939201D01*
D12*
X117701949Y-98237497D02*
X116430381Y-97962514D01*
D17*
X118298181Y-95144035D02*
X117067172Y-94926975D01*
D10*
X118009451Y-97530148D02*
X118400159Y-95314331D01*
X118480632Y-94973121D02*
X110405208Y-93549206D01*
X117855499Y-98518429D02*
X118480632Y-94973121D01*
X110405208Y-93549207D02*
G75*
G03*
X108007182Y-95055680I-445777J-1952249D01*
G01*
D16*
X112803958Y-97221536D02*
G75*
G03*
X110295108Y-98686665I-440830J-2125744D01*
G01*
D10*
X113128421Y-97684918D02*
G75*
G03*
X110619572Y-99150048I-440829J-2125744D01*
G01*
%TO.C,SW23*%
X90073581Y-87057579D02*
X89943345Y-87796185D01*
X89943345Y-87796185D02*
X90140306Y-87830915D01*
D11*
X90059190Y-87715069D02*
X90172061Y-87074944D01*
D10*
X90467384Y-86263905D02*
X89694649Y-90646299D01*
X89694649Y-90646299D02*
X92678617Y-91172453D01*
D12*
X89926340Y-90484067D02*
X92339119Y-90909505D01*
D13*
X90126156Y-90214672D02*
X90438723Y-88442019D01*
D14*
X91846757Y-86964068D02*
X91457785Y-89170037D01*
D10*
X95194821Y-89686817D02*
X99921899Y-90520329D01*
D15*
X98461811Y-88435108D02*
X91863599Y-87271665D01*
D16*
X99950439Y-87479081D02*
X99516319Y-89941101D01*
D12*
X99768349Y-90239397D02*
X98496781Y-89964414D01*
D17*
X100364581Y-87145935D02*
X99133572Y-86928875D01*
D10*
X100075851Y-89532048D02*
X100466559Y-87316231D01*
X100547032Y-86975021D02*
X92471608Y-85551106D01*
X99921899Y-90520329D02*
X100547032Y-86975021D01*
X92471608Y-85551107D02*
G75*
G03*
X90073582Y-87057580I-445777J-1952249D01*
G01*
D16*
X94870358Y-89223436D02*
G75*
G03*
X92361508Y-90688565I-440830J-2125744D01*
G01*
D10*
X95194821Y-89686818D02*
G75*
G03*
X92685972Y-91151948I-440829J-2125744D01*
G01*
%TO.C,SW4*%
X114623181Y-57534579D02*
X114492945Y-58273185D01*
X114492945Y-58273185D02*
X114689906Y-58307915D01*
D11*
X114608790Y-58192069D02*
X114721661Y-57551944D01*
D10*
X115016984Y-56740905D02*
X114244249Y-61123299D01*
X114244249Y-61123299D02*
X117228217Y-61649453D01*
D12*
X114475940Y-60961067D02*
X116888719Y-61386505D01*
D13*
X114675756Y-60691672D02*
X114988323Y-58919019D01*
D14*
X116396357Y-57441068D02*
X116007385Y-59647037D01*
D10*
X119744421Y-60163817D02*
X124471499Y-60997329D01*
D15*
X123011411Y-58912108D02*
X116413199Y-57748665D01*
D16*
X124500039Y-57956081D02*
X124065919Y-60418101D01*
D12*
X124317949Y-60716397D02*
X123046381Y-60441414D01*
D17*
X124914181Y-57622935D02*
X123683172Y-57405875D01*
D10*
X124625451Y-60009048D02*
X125016159Y-57793231D01*
X125096632Y-57452021D02*
X117021208Y-56028106D01*
X124471499Y-60997329D02*
X125096632Y-57452021D01*
X117021208Y-56028107D02*
G75*
G03*
X114623182Y-57534580I-445777J-1952249D01*
G01*
D16*
X119419958Y-59700436D02*
G75*
G03*
X116911108Y-61165565I-440830J-2125744D01*
G01*
D10*
X119744421Y-60163818D02*
G75*
G03*
X117235572Y-61628948I-440829J-2125744D01*
G01*
%TO.C,SW38*%
X202331588Y-118955528D02*
X202461824Y-119694134D01*
X202461824Y-119694134D02*
X202658786Y-119659404D01*
D11*
X202542940Y-119578288D02*
X202430069Y-118938163D01*
D10*
X202430189Y-118075029D02*
X203202923Y-122457424D01*
X203202923Y-122457424D02*
X206186891Y-121931270D01*
D12*
X203365155Y-122225732D02*
X205777934Y-121800294D01*
D13*
X203460782Y-121904243D02*
X203148215Y-120131590D01*
D14*
X203965846Y-118261193D02*
X204354818Y-120467163D01*
D10*
X208043232Y-119674636D02*
X212770310Y-118841125D01*
D15*
X210685089Y-117381038D02*
X204086877Y-118544480D01*
D16*
X211756961Y-115973526D02*
X212191082Y-118435545D01*
D12*
X212529936Y-118629652D02*
X211241003Y-118806155D01*
D17*
X212032185Y-115518826D02*
X210801175Y-115735886D01*
D10*
X212576965Y-117859790D02*
X212186257Y-115643973D01*
X212145176Y-115295817D02*
X204069752Y-116719732D01*
X212770310Y-118841125D02*
X212145176Y-115295817D01*
X204069752Y-116719732D02*
G75*
G03*
X202331588Y-118955529I248816J-1986980D01*
G01*
D16*
X207579850Y-119350172D02*
G75*
G03*
X205723406Y-121585022I312803J-2148319D01*
G01*
D10*
X208043232Y-119674636D02*
G75*
G03*
X206186788Y-121909486I312803J-2148319D01*
G01*
%TO.C,SW21*%
X50898381Y-89821879D02*
X50768145Y-90560485D01*
X50768145Y-90560485D02*
X50965106Y-90595215D01*
D11*
X50883990Y-90479369D02*
X50996861Y-89839244D01*
D10*
X51292184Y-89028205D02*
X50519449Y-93410599D01*
X50519449Y-93410599D02*
X53503417Y-93936753D01*
D12*
X50751140Y-93248367D02*
X53163919Y-93673805D01*
D13*
X50950956Y-92978972D02*
X51263523Y-91206319D01*
D14*
X52671557Y-89728368D02*
X52282585Y-91934337D01*
D10*
X56019621Y-92451117D02*
X60746699Y-93284629D01*
D15*
X59286611Y-91199408D02*
X52688399Y-90035965D01*
D16*
X60775239Y-90243381D02*
X60341119Y-92705401D01*
D12*
X60593149Y-93003697D02*
X59321581Y-92728714D01*
D17*
X61189381Y-89910235D02*
X59958372Y-89693175D01*
D10*
X60900651Y-92296348D02*
X61291359Y-90080531D01*
X61371832Y-89739321D02*
X53296408Y-88315406D01*
X60746699Y-93284629D02*
X61371832Y-89739321D01*
X53296408Y-88315407D02*
G75*
G03*
X50898382Y-89821880I-445777J-1952249D01*
G01*
D16*
X55695158Y-91987736D02*
G75*
G03*
X53186308Y-93452865I-440830J-2125744D01*
G01*
D10*
X56019621Y-92451118D02*
G75*
G03*
X53510772Y-93916248I-440829J-2125744D01*
G01*
%TO.C,SW31*%
X47590381Y-108582479D02*
X47460145Y-109321085D01*
X47460145Y-109321085D02*
X47657106Y-109355815D01*
D11*
X47575990Y-109239969D02*
X47688861Y-108599844D01*
D10*
X47984184Y-107788805D02*
X47211449Y-112171199D01*
X47211449Y-112171199D02*
X50195417Y-112697353D01*
D12*
X47443140Y-112008967D02*
X49855919Y-112434405D01*
D13*
X47642956Y-111739572D02*
X47955523Y-109966919D01*
D14*
X49363557Y-108488968D02*
X48974585Y-110694937D01*
D10*
X52711621Y-111211717D02*
X57438699Y-112045229D01*
D15*
X55978611Y-109960008D02*
X49380399Y-108796565D01*
D16*
X57467239Y-109003981D02*
X57033119Y-111466001D01*
D12*
X57285149Y-111764297D02*
X56013581Y-111489314D01*
D17*
X57881381Y-108670835D02*
X56650372Y-108453775D01*
D10*
X57592651Y-111056948D02*
X57983359Y-108841131D01*
X58063832Y-108499921D02*
X49988408Y-107076006D01*
X57438699Y-112045229D02*
X58063832Y-108499921D01*
X49988408Y-107076007D02*
G75*
G03*
X47590382Y-108582480I-445777J-1952249D01*
G01*
D16*
X52387158Y-110748336D02*
G75*
G03*
X49878308Y-112213465I-440830J-2125744D01*
G01*
D10*
X52711621Y-111211718D02*
G75*
G03*
X50202772Y-112676848I-440829J-2125744D01*
G01*
%TO.C,SW26*%
X170882688Y-105156928D02*
X171012924Y-105895534D01*
X171012924Y-105895534D02*
X171209886Y-105860804D01*
D11*
X171094040Y-105779688D02*
X170981169Y-105139563D01*
D10*
X170981289Y-104276429D02*
X171754023Y-108658824D01*
X171754023Y-108658824D02*
X174737991Y-108132670D01*
D12*
X171916255Y-108427132D02*
X174329034Y-108001694D01*
D13*
X172011882Y-108105643D02*
X171699315Y-106332990D01*
D14*
X172516946Y-104462593D02*
X172905918Y-106668563D01*
D10*
X176594332Y-105876036D02*
X181321410Y-105042525D01*
D15*
X179236189Y-103582438D02*
X172637977Y-104745880D01*
D16*
X180308061Y-102174926D02*
X180742182Y-104636945D01*
D12*
X181081036Y-104831052D02*
X179792103Y-105007555D01*
D17*
X180583285Y-101720226D02*
X179352275Y-101937286D01*
D10*
X181128065Y-104061190D02*
X180737357Y-101845373D01*
X180696276Y-101497217D02*
X172620852Y-102921132D01*
X181321410Y-105042525D02*
X180696276Y-101497217D01*
X172620852Y-102921132D02*
G75*
G03*
X170882688Y-105156929I248816J-1986980D01*
G01*
D16*
X176130950Y-105551572D02*
G75*
G03*
X174274506Y-107786422I312803J-2148319D01*
G01*
D10*
X176594332Y-105876036D02*
G75*
G03*
X174737888Y-108110886I312803J-2148319D01*
G01*
%TO.C,SW13*%
X93381581Y-68296979D02*
X93251345Y-69035585D01*
X93251345Y-69035585D02*
X93448306Y-69070315D01*
D11*
X93367190Y-68954469D02*
X93480061Y-68314344D01*
D10*
X93775384Y-67503305D02*
X93002649Y-71885699D01*
X93002649Y-71885699D02*
X95986617Y-72411853D01*
D12*
X93234340Y-71723467D02*
X95647119Y-72148905D01*
D13*
X93434156Y-71454072D02*
X93746723Y-69681419D01*
D14*
X95154757Y-68203468D02*
X94765785Y-70409437D01*
D10*
X98502821Y-70926217D02*
X103229899Y-71759729D01*
D15*
X101769811Y-69674508D02*
X95171599Y-68511065D01*
D16*
X103258439Y-68718481D02*
X102824319Y-71180501D01*
D12*
X103076349Y-71478797D02*
X101804781Y-71203814D01*
D17*
X103672581Y-68385335D02*
X102441572Y-68168275D01*
D10*
X103383851Y-70771448D02*
X103774559Y-68555631D01*
X103855032Y-68214421D02*
X95779608Y-66790506D01*
X103229899Y-71759729D02*
X103855032Y-68214421D01*
X95779608Y-66790507D02*
G75*
G03*
X93381582Y-68296980I-445777J-1952249D01*
G01*
D16*
X98178358Y-70462836D02*
G75*
G03*
X95669508Y-71927965I-440830J-2125744D01*
G01*
D10*
X98502821Y-70926218D02*
G75*
G03*
X95993972Y-72391348I-440829J-2125744D01*
G01*
%TO.C,SW16*%
X167574688Y-86396328D02*
X167704924Y-87134934D01*
X167704924Y-87134934D02*
X167901886Y-87100204D01*
D11*
X167786040Y-87019088D02*
X167673169Y-86378963D01*
D10*
X167673289Y-85515829D02*
X168446023Y-89898224D01*
X168446023Y-89898224D02*
X171429991Y-89372070D01*
D12*
X168608255Y-89666532D02*
X171021034Y-89241094D01*
D13*
X168703882Y-89345043D02*
X168391315Y-87572390D01*
D14*
X169208946Y-85701993D02*
X169597918Y-87907963D01*
D10*
X173286332Y-87115436D02*
X178013410Y-86281925D01*
D15*
X175928189Y-84821838D02*
X169329977Y-85985280D01*
D16*
X177000061Y-83414326D02*
X177434182Y-85876345D01*
D12*
X177773036Y-86070452D02*
X176484103Y-86246955D01*
D17*
X177275285Y-82959626D02*
X176044275Y-83176686D01*
D10*
X177820065Y-85300590D02*
X177429357Y-83084773D01*
X177388276Y-82736617D02*
X169312852Y-84160532D01*
X178013410Y-86281925D02*
X177388276Y-82736617D01*
X169312852Y-84160532D02*
G75*
G03*
X167574688Y-86396329I248816J-1986980D01*
G01*
D16*
X172822950Y-86790972D02*
G75*
G03*
X170966506Y-89025822I312803J-2148319D01*
G01*
D10*
X173286332Y-87115436D02*
G75*
G03*
X171429888Y-89350286I312803J-2148319D01*
G01*
%TO.C,SW17*%
X185508288Y-78398228D02*
X185638524Y-79136834D01*
X185638524Y-79136834D02*
X185835486Y-79102104D01*
D11*
X185719640Y-79020988D02*
X185606769Y-78380863D01*
D10*
X185606889Y-77517729D02*
X186379623Y-81900124D01*
X186379623Y-81900124D02*
X189363591Y-81373970D01*
D12*
X186541855Y-81668432D02*
X188954634Y-81242994D01*
D13*
X186637482Y-81346943D02*
X186324915Y-79574290D01*
D14*
X187142546Y-77703893D02*
X187531518Y-79909863D01*
D10*
X191219932Y-79117336D02*
X195947010Y-78283825D01*
D15*
X193861789Y-76823738D02*
X187263577Y-77987180D01*
D16*
X194933661Y-75416226D02*
X195367782Y-77878245D01*
D12*
X195706636Y-78072352D02*
X194417703Y-78248855D01*
D17*
X195208885Y-74961526D02*
X193977875Y-75178586D01*
D10*
X195753665Y-77302490D02*
X195362957Y-75086673D01*
X195321876Y-74738517D02*
X187246452Y-76162432D01*
X195947010Y-78283825D02*
X195321876Y-74738517D01*
X187246452Y-76162432D02*
G75*
G03*
X185508288Y-78398229I248816J-1986980D01*
G01*
D16*
X190756550Y-78792872D02*
G75*
G03*
X188900106Y-81027722I312803J-2148319D01*
G01*
D10*
X191219932Y-79117336D02*
G75*
G03*
X189363488Y-81352186I312803J-2148319D01*
G01*
%TO.C,SW6*%
X164266688Y-67635728D02*
X164396924Y-68374334D01*
X164396924Y-68374334D02*
X164593886Y-68339604D01*
D11*
X164478040Y-68258488D02*
X164365169Y-67618363D01*
D10*
X164365289Y-66755229D02*
X165138023Y-71137624D01*
X165138023Y-71137624D02*
X168121991Y-70611470D01*
D12*
X165300255Y-70905932D02*
X167713034Y-70480494D01*
D13*
X165395882Y-70584443D02*
X165083315Y-68811790D01*
D14*
X165900946Y-66941393D02*
X166289918Y-69147363D01*
D10*
X169978332Y-68354836D02*
X174705410Y-67521325D01*
D15*
X172620189Y-66061238D02*
X166021977Y-67224680D01*
D16*
X173692061Y-64653726D02*
X174126182Y-67115745D01*
D12*
X174465036Y-67309852D02*
X173176103Y-67486355D01*
D17*
X173967285Y-64199026D02*
X172736275Y-64416086D01*
D10*
X174512065Y-66539990D02*
X174121357Y-64324173D01*
X174080276Y-63976017D02*
X166004852Y-65399932D01*
X174705410Y-67521325D02*
X174080276Y-63976017D01*
X166004852Y-65399932D02*
G75*
G03*
X164266688Y-67635729I248816J-1986980D01*
G01*
D16*
X169514950Y-68030372D02*
G75*
G03*
X167658506Y-70265222I312803J-2148319D01*
G01*
D10*
X169978332Y-68354836D02*
G75*
G03*
X168121888Y-70589686I312803J-2148319D01*
G01*
%TO.C,SW33*%
X94491881Y-116852479D02*
X94361645Y-117591085D01*
X94361645Y-117591085D02*
X94558606Y-117625815D01*
D11*
X94477490Y-117509969D02*
X94590361Y-116869844D01*
D10*
X94885684Y-116058805D02*
X94112949Y-120441199D01*
X94112949Y-120441199D02*
X97096917Y-120967353D01*
D12*
X94344640Y-120278967D02*
X96757419Y-120704405D01*
D13*
X94544456Y-120009572D02*
X94857023Y-118236919D01*
D14*
X96265057Y-116758968D02*
X95876085Y-118964937D01*
D10*
X99613121Y-119481717D02*
X104340199Y-120315229D01*
D15*
X102880111Y-118230008D02*
X96281899Y-117066565D01*
D16*
X104368739Y-117273981D02*
X103934619Y-119736001D01*
D12*
X104186649Y-120034297D02*
X102915081Y-119759314D01*
D17*
X104782881Y-116940835D02*
X103551872Y-116723775D01*
D10*
X104494151Y-119326948D02*
X104884859Y-117111131D01*
X104965332Y-116769921D02*
X96889908Y-115346006D01*
X104340199Y-120315229D02*
X104965332Y-116769921D01*
X96889908Y-115346007D02*
G75*
G03*
X94491882Y-116852480I-445777J-1952249D01*
G01*
D16*
X99288658Y-119018336D02*
G75*
G03*
X96779808Y-120483465I-440830J-2125744D01*
G01*
D10*
X99613121Y-119481718D02*
G75*
G03*
X97104272Y-120946848I-440829J-2125744D01*
G01*
%TO.C,D15*%
X136028745Y-96307456D02*
X130710783Y-95369756D01*
X136289217Y-94830244D02*
X136028745Y-96307456D01*
X134079228Y-94694420D02*
X133905580Y-95679228D01*
X133893923Y-95169459D02*
X133094420Y-94520772D01*
X132920772Y-95505580D02*
X133893923Y-95169459D01*
X133094420Y-94520772D02*
X132920772Y-95505580D01*
X130971255Y-93892544D02*
X136289217Y-94830244D01*
X130971255Y-93892544D02*
X130710783Y-95369756D01*
%TO.C,D39*%
X239889217Y-119269756D02*
X234571255Y-120207456D01*
X239628745Y-117792544D02*
X239889217Y-119269756D01*
X237505580Y-118420772D02*
X237679228Y-119405580D01*
X237493923Y-118930541D02*
X236520772Y-118594420D01*
X236694420Y-119579228D02*
X237493923Y-118930541D01*
X236520772Y-118594420D02*
X236694420Y-119579228D01*
X234310783Y-118730244D02*
X239628745Y-117792544D01*
X234310783Y-118730244D02*
X234571255Y-120207456D01*
%TO.C,D5*%
X139028745Y-77607456D02*
X133710783Y-76669756D01*
X139289217Y-76130244D02*
X139028745Y-77607456D01*
X137079228Y-75994420D02*
X136905580Y-76979228D01*
X136893923Y-76469459D02*
X136094420Y-75820772D01*
X135920772Y-76805580D02*
X136893923Y-76469459D01*
X136094420Y-75820772D02*
X135920772Y-76805580D01*
X133971255Y-75192544D02*
X139289217Y-76130244D01*
X133971255Y-75192544D02*
X133710783Y-76669756D01*
%TO.C,D26*%
X181689217Y-114069756D02*
X176371255Y-115007456D01*
X181428745Y-112592544D02*
X181689217Y-114069756D01*
X179305580Y-113220772D02*
X179479228Y-114205580D01*
X179293923Y-113730541D02*
X178320772Y-113394420D01*
X178494420Y-114379228D02*
X179293923Y-113730541D01*
X178320772Y-113394420D02*
X178494420Y-114379228D01*
X176110783Y-113530244D02*
X181428745Y-112592544D01*
X176110783Y-113530244D02*
X176371255Y-115007456D01*
%TO.C,D9*%
X230289217Y-62069756D02*
X224971255Y-63007456D01*
X230028745Y-60592544D02*
X230289217Y-62069756D01*
X227905580Y-61220772D02*
X228079228Y-62205580D01*
X227893923Y-61730541D02*
X226920772Y-61394420D01*
X227094420Y-62379228D02*
X227893923Y-61730541D01*
X226920772Y-61394420D02*
X227094420Y-62379228D01*
X224710783Y-61530244D02*
X230028745Y-60592544D01*
X224710783Y-61530244D02*
X224971255Y-63007456D01*
%TO.C,D24*%
X115028745Y-107507456D02*
X109710783Y-106569756D01*
X115289217Y-106030244D02*
X115028745Y-107507456D01*
X113079228Y-105894420D02*
X112905580Y-106879228D01*
X112893923Y-106369459D02*
X112094420Y-105720772D01*
X111920772Y-106705580D02*
X112893923Y-106369459D01*
X112094420Y-105720772D02*
X111920772Y-106705580D01*
X109971255Y-105092544D02*
X115289217Y-106030244D01*
X109971255Y-105092544D02*
X109710783Y-106569756D01*
%TO.C,D35*%
X137428745Y-145607456D02*
X132110783Y-144669756D01*
X137689217Y-144130244D02*
X137428745Y-145607456D01*
X135479228Y-143994420D02*
X135305580Y-144979228D01*
X135293923Y-144469459D02*
X134494420Y-143820772D01*
X134320772Y-144805580D02*
X135293923Y-144469459D01*
X134494420Y-143820772D02*
X134320772Y-144805580D01*
X132371255Y-143192544D02*
X137689217Y-144130244D01*
X132371255Y-143192544D02*
X132110783Y-144669756D01*
%TO.C,D14*%
X118476745Y-88215656D02*
X113158783Y-87277956D01*
X118737217Y-86738444D02*
X118476745Y-88215656D01*
X116527228Y-86602620D02*
X116353580Y-87587428D01*
X116341923Y-87077659D02*
X115542420Y-86428972D01*
X115368772Y-87413780D02*
X116341923Y-87077659D01*
X115542420Y-86428972D02*
X115368772Y-87413780D01*
X113419255Y-85800744D02*
X118737217Y-86738444D01*
X113419255Y-85800744D02*
X113158783Y-87277956D01*
%TO.C,D6*%
X174689217Y-76869756D02*
X169371255Y-77807456D01*
X174428745Y-75392544D02*
X174689217Y-76869756D01*
X172305580Y-76020772D02*
X172479228Y-77005580D01*
X172293923Y-76530541D02*
X171320772Y-76194420D01*
X171494420Y-77179228D02*
X172293923Y-76530541D01*
X171320772Y-76194420D02*
X171494420Y-77179228D01*
X169110783Y-76330244D02*
X174428745Y-75392544D01*
X169110783Y-76330244D02*
X169371255Y-77807456D01*
%TO.C,D33*%
X100828745Y-129607456D02*
X95510783Y-128669756D01*
X101089217Y-128130244D02*
X100828745Y-129607456D01*
X98879228Y-127994420D02*
X98705580Y-128979228D01*
X98693923Y-128469459D02*
X97894420Y-127820772D01*
X97720772Y-128805580D02*
X98693923Y-128469459D01*
X97894420Y-127820772D02*
X97720772Y-128805580D01*
X95771255Y-127192544D02*
X101089217Y-128130244D01*
X95771255Y-127192544D02*
X95510783Y-128669756D01*
%TO.C,D23*%
X96928745Y-99707456D02*
X91610783Y-98769756D01*
X97189217Y-98230244D02*
X96928745Y-99707456D01*
X94979228Y-98094420D02*
X94805580Y-99079228D01*
X94793923Y-98569459D02*
X93994420Y-97920772D01*
X93820772Y-98905580D02*
X94793923Y-98569459D01*
X93994420Y-97920772D02*
X93820772Y-98905580D01*
X91871255Y-97292544D02*
X97189217Y-98230244D01*
X91871255Y-97292544D02*
X91610783Y-98769756D01*
%TO.C,D28*%
X217289217Y-98469756D02*
X211971255Y-99407456D01*
X217028745Y-96992544D02*
X217289217Y-98469756D01*
X214905580Y-97620772D02*
X215079228Y-98605580D01*
X214893923Y-98130541D02*
X213920772Y-97794420D01*
X214094420Y-98779228D02*
X214893923Y-98130541D01*
X213920772Y-97794420D02*
X214094420Y-98779228D01*
X211710783Y-97930244D02*
X217028745Y-96992544D01*
X211710783Y-97930244D02*
X211971255Y-99407456D01*
%TO.C,D1*%
X63828745Y-64507456D02*
X58510783Y-63569756D01*
X64089217Y-63030244D02*
X63828745Y-64507456D01*
X61879228Y-62894420D02*
X61705580Y-63879228D01*
X61693923Y-63369459D02*
X60894420Y-62720772D01*
X60720772Y-63705580D02*
X61693923Y-63369459D01*
X60894420Y-62720772D02*
X60720772Y-63705580D01*
X58771255Y-62092544D02*
X64089217Y-63030244D01*
X58771255Y-62092544D02*
X58510783Y-63569756D01*
%TO.C,D22*%
X76676745Y-101115656D02*
X71358783Y-100177956D01*
X76937217Y-99638444D02*
X76676745Y-101115656D01*
X74727228Y-99502620D02*
X74553580Y-100487428D01*
X74541923Y-99977659D02*
X73742420Y-99328972D01*
X73568772Y-100313780D02*
X74541923Y-99977659D01*
X73742420Y-99328972D02*
X73568772Y-100313780D01*
X71619255Y-98700744D02*
X76937217Y-99638444D01*
X71619255Y-98700744D02*
X71358783Y-100177956D01*
%TO.C,D27*%
X199689217Y-106569756D02*
X194371255Y-107507456D01*
X199428745Y-105092544D02*
X199689217Y-106569756D01*
X197305580Y-105720772D02*
X197479228Y-106705580D01*
X197293923Y-106230541D02*
X196320772Y-105894420D01*
X196494420Y-106879228D02*
X197293923Y-106230541D01*
X196320772Y-105894420D02*
X196494420Y-106879228D01*
X194110783Y-106030244D02*
X199428745Y-105092544D01*
X194110783Y-106030244D02*
X194371255Y-107507456D01*
%TO.C,D2*%
X83528745Y-63307456D02*
X78210783Y-62369756D01*
X83789217Y-61830244D02*
X83528745Y-63307456D01*
X81579228Y-61694420D02*
X81405580Y-62679228D01*
X81393923Y-62169459D02*
X80594420Y-61520772D01*
X80420772Y-62505580D02*
X81393923Y-62169459D01*
X80594420Y-61520772D02*
X80420772Y-62505580D01*
X78471255Y-60892544D02*
X83789217Y-61830244D01*
X78471255Y-60892544D02*
X78210783Y-62369756D01*
%TO.C,D38*%
X212489217Y-128569756D02*
X207171255Y-129507456D01*
X212228745Y-127092544D02*
X212489217Y-128569756D01*
X210105580Y-127720772D02*
X210279228Y-128705580D01*
X210093923Y-128230541D02*
X209120772Y-127894420D01*
X209294420Y-128879228D02*
X210093923Y-128230541D01*
X209120772Y-127894420D02*
X209294420Y-128879228D01*
X206910783Y-128030244D02*
X212228745Y-127092544D01*
X206910783Y-128030244D02*
X207171255Y-129507456D01*
%TO.C,D37*%
X195089217Y-136969756D02*
X189771255Y-137907456D01*
X194828745Y-135492544D02*
X195089217Y-136969756D01*
X192705580Y-136120772D02*
X192879228Y-137105580D01*
X192693923Y-136630541D02*
X191720772Y-136294420D01*
X191894420Y-137279228D02*
X192693923Y-136630541D01*
X191720772Y-136294420D02*
X191894420Y-137279228D01*
X189510783Y-136430244D02*
X194828745Y-135492544D01*
X189510783Y-136430244D02*
X189771255Y-137907456D01*
%TO.C,D30*%
X256689217Y-101269756D02*
X251371255Y-102207456D01*
X256428745Y-99792544D02*
X256689217Y-101269756D01*
X254305580Y-100420772D02*
X254479228Y-101405580D01*
X254293923Y-100930541D02*
X253320772Y-100594420D01*
X253494420Y-101579228D02*
X254293923Y-100930541D01*
X253320772Y-100594420D02*
X253494420Y-101579228D01*
X251110783Y-100730244D02*
X256428745Y-99792544D01*
X251110783Y-100730244D02*
X251371255Y-102207456D01*
%TO.C,D29*%
X237289217Y-100169756D02*
X231971255Y-101107456D01*
X237028745Y-98692544D02*
X237289217Y-100169756D01*
X234905580Y-99320772D02*
X235079228Y-100305580D01*
X234893923Y-99830541D02*
X233920772Y-99494420D01*
X234094420Y-100479228D02*
X234893923Y-99830541D01*
X233920772Y-99494420D02*
X234094420Y-100479228D01*
X231710783Y-99630244D02*
X237028745Y-98692544D01*
X231710783Y-99630244D02*
X231971255Y-101107456D01*
%TO.C,D4*%
X121028745Y-69907456D02*
X115710783Y-68969756D01*
X121289217Y-68430244D02*
X121028745Y-69907456D01*
X119079228Y-68294420D02*
X118905580Y-69279228D01*
X118893923Y-68769459D02*
X118094420Y-68120772D01*
X117920772Y-69105580D02*
X118893923Y-68769459D01*
X118094420Y-68120772D02*
X117920772Y-69105580D01*
X115971255Y-67492544D02*
X121289217Y-68430244D01*
X115971255Y-67492544D02*
X115710783Y-68969756D01*
%TO.C,D20*%
X253437217Y-83061556D02*
X248119255Y-83999256D01*
X253176745Y-81584344D02*
X253437217Y-83061556D01*
X251053580Y-82212572D02*
X251227228Y-83197380D01*
X251041923Y-82722341D02*
X250068772Y-82386220D01*
X250242420Y-83371028D02*
X251041923Y-82722341D01*
X250068772Y-82386220D02*
X250242420Y-83371028D01*
X247858783Y-82522044D02*
X253176745Y-81584344D01*
X247858783Y-82522044D02*
X248119255Y-83999256D01*
%TO.C,D32*%
X73528745Y-119807456D02*
X68210783Y-118869756D01*
X73789217Y-118330244D02*
X73528745Y-119807456D01*
X71579228Y-118194420D02*
X71405580Y-119179228D01*
X71393923Y-118669459D02*
X70594420Y-118020772D01*
X70420772Y-119005580D02*
X71393923Y-118669459D01*
X70594420Y-118020772D02*
X70420772Y-119005580D01*
X68471255Y-117392544D02*
X73789217Y-118330244D01*
X68471255Y-117392544D02*
X68210783Y-118869756D01*
%TO.C,D17*%
X195937217Y-87961556D02*
X190619255Y-88899256D01*
X195676745Y-86484344D02*
X195937217Y-87961556D01*
X193553580Y-87112572D02*
X193727228Y-88097380D01*
X193541923Y-87622341D02*
X192568772Y-87286220D01*
X192742420Y-88271028D02*
X193541923Y-87622341D01*
X192568772Y-87286220D02*
X192742420Y-88271028D01*
X190358783Y-87422044D02*
X195676745Y-86484344D01*
X190358783Y-87422044D02*
X190619255Y-88899256D01*
%TO.C,D10*%
X250289217Y-63069756D02*
X244971255Y-64007456D01*
X250028745Y-61592544D02*
X250289217Y-63069756D01*
X247905580Y-62220772D02*
X248079228Y-63205580D01*
X247893923Y-62730541D02*
X246920772Y-62394420D01*
X247094420Y-63379228D02*
X247893923Y-62730541D01*
X246920772Y-62394420D02*
X247094420Y-63379228D01*
X244710783Y-62530244D02*
X250028745Y-61592544D01*
X244710783Y-62530244D02*
X244971255Y-64007456D01*
%TO.C,D7*%
X192789217Y-68369756D02*
X187471255Y-69307456D01*
X192528745Y-66892544D02*
X192789217Y-68369756D01*
X190405580Y-67520772D02*
X190579228Y-68505580D01*
X190393923Y-68030541D02*
X189420772Y-67694420D01*
X189594420Y-68679228D02*
X190393923Y-68030541D01*
X189420772Y-67694420D02*
X189594420Y-68679228D01*
X187210783Y-67830244D02*
X192528745Y-66892544D01*
X187210783Y-67830244D02*
X187471255Y-69307456D01*
%TO.C,D13*%
X99928745Y-80807456D02*
X94610783Y-79869756D01*
X100189217Y-79330244D02*
X99928745Y-80807456D01*
X97979228Y-79194420D02*
X97805580Y-80179228D01*
X97793923Y-79669459D02*
X96994420Y-79020772D01*
X96820772Y-80005580D02*
X97793923Y-79669459D01*
X96994420Y-79020772D02*
X96820772Y-80005580D01*
X94871255Y-78392544D02*
X100189217Y-79330244D01*
X94871255Y-78392544D02*
X94610783Y-79869756D01*
%TO.C,D16*%
X178089217Y-95669756D02*
X172771255Y-96607456D01*
X177828745Y-94192544D02*
X178089217Y-95669756D01*
X175705580Y-94820772D02*
X175879228Y-95805580D01*
X175693923Y-95330541D02*
X174720772Y-94994420D01*
X174894420Y-95979228D02*
X175693923Y-95330541D01*
X174720772Y-94994420D02*
X174894420Y-95979228D01*
X172510783Y-95130244D02*
X177828745Y-94192544D01*
X172510783Y-95130244D02*
X172771255Y-96607456D01*
%TO.C,D12*%
X80376745Y-81615656D02*
X75058783Y-80677956D01*
X80637217Y-80138444D02*
X80376745Y-81615656D01*
X78427228Y-80002620D02*
X78253580Y-80987428D01*
X78241923Y-80477659D02*
X77442420Y-79828972D01*
X77268772Y-80813780D02*
X78241923Y-80477659D01*
X77442420Y-79828972D02*
X77268772Y-80813780D01*
X75319255Y-79200744D02*
X80637217Y-80138444D01*
X75319255Y-79200744D02*
X75058783Y-80677956D01*
%TO.C,D18*%
X213737217Y-80261556D02*
X208419255Y-81199256D01*
X213476745Y-78784344D02*
X213737217Y-80261556D01*
X211353580Y-79412572D02*
X211527228Y-80397380D01*
X211341923Y-79922341D02*
X210368772Y-79586220D01*
X210542420Y-80571028D02*
X211341923Y-79922341D01*
X210368772Y-79586220D02*
X210542420Y-80571028D01*
X208158783Y-79722044D02*
X213476745Y-78784344D01*
X208158783Y-79722044D02*
X208419255Y-81199256D01*
%TO.C,D19*%
X233537217Y-81361556D02*
X228219255Y-82299256D01*
X233276745Y-79884344D02*
X233537217Y-81361556D01*
X231153580Y-80512572D02*
X231327228Y-81497380D01*
X231141923Y-81022341D02*
X230168772Y-80686220D01*
X230342420Y-81671028D02*
X231141923Y-81022341D01*
X230168772Y-80686220D02*
X230342420Y-81671028D01*
X227958783Y-80822044D02*
X233276745Y-79884344D01*
X227958783Y-80822044D02*
X228219255Y-82299256D01*
%TO.C,D34*%
X119328745Y-137807456D02*
X114010783Y-136869756D01*
X119589217Y-136330244D02*
X119328745Y-137807456D01*
X117379228Y-136194420D02*
X117205580Y-137179228D01*
X117193923Y-136669459D02*
X116394420Y-136020772D01*
X116220772Y-137005580D02*
X117193923Y-136669459D01*
X116394420Y-136020772D02*
X116220772Y-137005580D01*
X114271255Y-135392544D02*
X119589217Y-136330244D01*
X114271255Y-135392544D02*
X114010783Y-136869756D01*
%TO.C,D31*%
X54428745Y-120907456D02*
X49110783Y-119969756D01*
X54689217Y-119430244D02*
X54428745Y-120907456D01*
X52479228Y-119294420D02*
X52305580Y-120279228D01*
X52293923Y-119769459D02*
X51494420Y-119120772D01*
X51320772Y-120105580D02*
X52293923Y-119769459D01*
X51494420Y-119120772D02*
X51320772Y-120105580D01*
X49371255Y-118492544D02*
X54689217Y-119430244D01*
X49371255Y-118492544D02*
X49110783Y-119969756D01*
%TO.C,D3*%
X103928745Y-61907456D02*
X98610783Y-60969756D01*
X104189217Y-60430244D02*
X103928745Y-61907456D01*
X101979228Y-60294420D02*
X101805580Y-61279228D01*
X101793923Y-60769459D02*
X100994420Y-60120772D01*
X100820772Y-61105580D02*
X101793923Y-60769459D01*
X100994420Y-60120772D02*
X100820772Y-61105580D01*
X98871255Y-59492544D02*
X104189217Y-60430244D01*
X98871255Y-59492544D02*
X98610783Y-60969756D01*
%TO.C,D8*%
X210889217Y-60569756D02*
X205571255Y-61507456D01*
X210628745Y-59092544D02*
X210889217Y-60569756D01*
X208505580Y-59720772D02*
X208679228Y-60705580D01*
X208493923Y-60230541D02*
X207520772Y-59894420D01*
X207694420Y-60879228D02*
X208493923Y-60230541D01*
X207520772Y-59894420D02*
X207694420Y-60879228D01*
X205310783Y-60030244D02*
X210628745Y-59092544D01*
X205310783Y-60030244D02*
X205571255Y-61507456D01*
%TO.C,D40*%
X259889217Y-120369756D02*
X254571255Y-121307456D01*
X259628745Y-118892544D02*
X259889217Y-120369756D01*
X257505580Y-119520772D02*
X257679228Y-120505580D01*
X257493923Y-120030541D02*
X256520772Y-119694420D01*
X256694420Y-120679228D02*
X257493923Y-120030541D01*
X256520772Y-119694420D02*
X256694420Y-120679228D01*
X254310783Y-119830244D02*
X259628745Y-118892544D01*
X254310783Y-119830244D02*
X254571255Y-121307456D01*
%TO.C,D25*%
X132928745Y-115507456D02*
X127610783Y-114569756D01*
X133189217Y-114030244D02*
X132928745Y-115507456D01*
X130979228Y-113894420D02*
X130805580Y-114879228D01*
X130793923Y-114369459D02*
X129994420Y-113720772D01*
X129820772Y-114705580D02*
X130793923Y-114369459D01*
X129994420Y-113720772D02*
X129820772Y-114705580D01*
X127871255Y-113092544D02*
X133189217Y-114030244D01*
X127871255Y-113092544D02*
X127610783Y-114569756D01*
%TO.C,D36*%
X177289217Y-144169756D02*
X171971255Y-145107456D01*
X177028745Y-142692544D02*
X177289217Y-144169756D01*
X174905580Y-143320772D02*
X175079228Y-144305580D01*
X174893923Y-143830541D02*
X173920772Y-143494420D01*
X174094420Y-144479228D02*
X174893923Y-143830541D01*
X173920772Y-143494420D02*
X174094420Y-144479228D01*
X171710783Y-143630244D02*
X177028745Y-142692544D01*
X171710783Y-143630244D02*
X171971255Y-145107456D01*
%TO.C,D11*%
X60776745Y-83115656D02*
X55458783Y-82177956D01*
X61037217Y-81638444D02*
X60776745Y-83115656D01*
X58827228Y-81502620D02*
X58653580Y-82487428D01*
X58641923Y-81977659D02*
X57842420Y-81328972D01*
X57668772Y-82313780D02*
X58641923Y-81977659D01*
X57842420Y-81328972D02*
X57668772Y-82313780D01*
X55719255Y-80700744D02*
X61037217Y-81638444D01*
X55719255Y-80700744D02*
X55458783Y-82177956D01*
%TO.C,D21*%
X57128745Y-102307456D02*
X51810783Y-101369756D01*
X57389217Y-100830244D02*
X57128745Y-102307456D01*
X55179228Y-100694420D02*
X55005580Y-101679228D01*
X54993923Y-101169459D02*
X54194420Y-100520772D01*
X54020772Y-101505580D02*
X54993923Y-101169459D01*
X54194420Y-100520772D02*
X54020772Y-101505580D01*
X52071255Y-99892544D02*
X57389217Y-100830244D01*
X52071255Y-99892544D02*
X51810783Y-101369756D01*
%TD*%
M02*
