M48
; DRILL file {KiCad 7.0.2} date Sat May 13 02:56:24 2023
; FORMAT={-:-/ absolute / metric / decimal}
; #@! TF.CreationDate,2023-05-13T02:56:24+09:00
; #@! TF.GenerationSoftware,Kicad,Pcbnew,7.0.2
; #@! TF.FileFunction,Plated,1,2,PTH
FMAT,2
METRIC
; #@! TA.AperFunction,Plated,PTH,ViaDrill
T1C0.400
; #@! TA.AperFunction,Plated,PTH,ComponentDrill
T2C0.813
; #@! TA.AperFunction,Plated,PTH,ComponentDrill
T3C1.300
%
G90
G05
T1
X39.0Y-97.7
X41.8Y-93.6
X42.4Y-78.4
X43.3Y-92.8
X44.9Y-73.9
X45.3Y-59.8
X48.1Y-55.1
X54.1Y-94.7
X58.2Y-95.8
X58.7Y-92.2
X61.5Y-77.1
X62.5Y-74.1
X65.0Y-93.6
X65.2Y-58.3
X65.5Y-55.2
X71.1Y-104.7
X72.2Y-99.4
X78.1Y-94.3
X78.7Y-90.9
X81.4Y-75.3
X82.1Y-124.0
X82.2Y-72.1
X82.6Y-120.8
X84.9Y-56.9
X85.4Y-53.6
X88.9Y-42.5
X96.1Y-101.7
X96.7Y-99.0
X99.6Y-83.1
X99.8Y-132.5
X100.0Y-80.4
X100.5Y-128.5
X102.7Y-64.3
X103.3Y-61.4
X106.5Y-50.1
X114.3Y-109.6
X114.7Y-107.3
X116.8Y-90.8
X117.7Y-88.1
X117.7Y-94.5
X118.4Y-140.5
X119.2Y-137.0
X120.6Y-69.5
X121.0Y-74.5
X122.4Y-126.3
X127.5Y-104.7
X132.5Y-82.9
X141.4Y-71.7
X143.7Y-72.4
X145.5Y-91.3
X146.3Y-93.5
X147.675Y-67.4
X148.4Y-79.4
X148.4Y-82.8
X148.9Y-100.3
X149.124Y-67.3
X150.4Y-83.4
X150.5Y-76.3
X150.8Y-72.2
X151.6Y-75.1
X153.3Y-77.8
X169.3Y-53.649
X169.5Y-66.6
X170.2Y-69.8
X172.0Y-134.2
X173.2Y-138.3
X173.5Y-85.2
X173.9Y-89.5
X176.6Y-103.9
X177.5Y-108.4
X187.8Y-58.0
X189.8Y-62.8
X190.2Y-126.0
X190.9Y-130.4
X191.3Y-77.7
X193.2Y-82.4
X193.896Y-87.696
X194.124Y-95.9
X195.1Y-96.2
X195.5Y-99.5
X195.8Y-93.3
X197.0Y-90.1
X198.9Y-93.3
X205.6Y-50.0
X206.8Y-54.8
X208.5Y-118.3
X209.1Y-69.2
X209.3Y-122.2
X209.9Y-73.7
X212.3Y-88.0
X213.7Y-92.1
X215.8Y-89.6
X225.3Y-51.7
X226.0Y-55.4
X228.9Y-70.7
X229.6Y-74.4
X231.9Y-89.2
X234.7Y-92.5
X244.6Y-53.2
X247.0Y-57.9
X248.7Y-72.0
X249.3Y-75.6
X251.6Y-90.9
X252.3Y-95.0
T2
X130.891Y-59.947
X130.891Y-62.487
X130.891Y-65.027
X130.891Y-67.567
X130.891Y-70.107
X130.891Y-72.647
X130.891Y-75.187
X130.891Y-77.727
X130.891Y-80.267
X130.891Y-82.807
X130.891Y-85.347
X130.891Y-87.887
X146.111Y-59.947
X146.111Y-62.487
X146.111Y-65.027
X146.111Y-67.567
X146.111Y-70.107
X146.111Y-72.647
X146.111Y-75.187
X146.111Y-77.727
X146.111Y-80.267
X146.111Y-82.807
X146.111Y-85.347
X146.111Y-87.887
T3
X134.85Y-95.2
X141.35Y-95.2
T0
M30
