%TF.GenerationSoftware,KiCad,Pcbnew,7.0.2*%
%TF.CreationDate,2023-05-13T02:55:16+09:00*%
%TF.ProjectId,ver1,76657231-2e6b-4696-9361-645f70636258,rev?*%
%TF.SameCoordinates,Original*%
%TF.FileFunction,Legend,Top*%
%TF.FilePolarity,Positive*%
%FSLAX46Y46*%
G04 Gerber Fmt 4.6, Leading zero omitted, Abs format (unit mm)*
G04 Created by KiCad (PCBNEW 7.0.2) date 2023-05-13 02:55:16*
%MOMM*%
%LPD*%
G01*
G04 APERTURE LIST*
%ADD10C,0.150000*%
%ADD11C,0.125000*%
%ADD12C,0.120000*%
%ADD13C,2.000000*%
%ADD14C,1.524000*%
G04 APERTURE END LIST*
D10*
%TO.C,SW37*%
X136647618Y-95662619D02*
X136314285Y-95186428D01*
X136076190Y-95662619D02*
X136076190Y-94662619D01*
X136076190Y-94662619D02*
X136457142Y-94662619D01*
X136457142Y-94662619D02*
X136552380Y-94710238D01*
X136552380Y-94710238D02*
X136599999Y-94757857D01*
X136599999Y-94757857D02*
X136647618Y-94853095D01*
X136647618Y-94853095D02*
X136647618Y-94995952D01*
X136647618Y-94995952D02*
X136599999Y-95091190D01*
X136599999Y-95091190D02*
X136552380Y-95138809D01*
X136552380Y-95138809D02*
X136457142Y-95186428D01*
X136457142Y-95186428D02*
X136076190Y-95186428D01*
X137076190Y-95138809D02*
X137409523Y-95138809D01*
X137552380Y-95662619D02*
X137076190Y-95662619D01*
X137076190Y-95662619D02*
X137076190Y-94662619D01*
X137076190Y-94662619D02*
X137552380Y-94662619D01*
X137933333Y-95615000D02*
X138076190Y-95662619D01*
X138076190Y-95662619D02*
X138314285Y-95662619D01*
X138314285Y-95662619D02*
X138409523Y-95615000D01*
X138409523Y-95615000D02*
X138457142Y-95567380D01*
X138457142Y-95567380D02*
X138504761Y-95472142D01*
X138504761Y-95472142D02*
X138504761Y-95376904D01*
X138504761Y-95376904D02*
X138457142Y-95281666D01*
X138457142Y-95281666D02*
X138409523Y-95234047D01*
X138409523Y-95234047D02*
X138314285Y-95186428D01*
X138314285Y-95186428D02*
X138123809Y-95138809D01*
X138123809Y-95138809D02*
X138028571Y-95091190D01*
X138028571Y-95091190D02*
X137980952Y-95043571D01*
X137980952Y-95043571D02*
X137933333Y-94948333D01*
X137933333Y-94948333D02*
X137933333Y-94853095D01*
X137933333Y-94853095D02*
X137980952Y-94757857D01*
X137980952Y-94757857D02*
X138028571Y-94710238D01*
X138028571Y-94710238D02*
X138123809Y-94662619D01*
X138123809Y-94662619D02*
X138361904Y-94662619D01*
X138361904Y-94662619D02*
X138504761Y-94710238D01*
X138933333Y-95138809D02*
X139266666Y-95138809D01*
X139409523Y-95662619D02*
X138933333Y-95662619D01*
X138933333Y-95662619D02*
X138933333Y-94662619D01*
X138933333Y-94662619D02*
X139409523Y-94662619D01*
X139695238Y-94662619D02*
X140266666Y-94662619D01*
X139980952Y-95662619D02*
X139980952Y-94662619D01*
D11*
%TO.C,U1*%
X126219286Y-77857678D02*
X126538333Y-77857678D01*
X126155476Y-78071964D02*
X126378809Y-77321964D01*
X126378809Y-77321964D02*
X126602143Y-78071964D01*
X126953095Y-77321964D02*
X127016905Y-77321964D01*
X127016905Y-77321964D02*
X127080714Y-77357678D01*
X127080714Y-77357678D02*
X127112619Y-77393392D01*
X127112619Y-77393392D02*
X127144524Y-77464821D01*
X127144524Y-77464821D02*
X127176429Y-77607678D01*
X127176429Y-77607678D02*
X127176429Y-77786250D01*
X127176429Y-77786250D02*
X127144524Y-77929107D01*
X127144524Y-77929107D02*
X127112619Y-78000535D01*
X127112619Y-78000535D02*
X127080714Y-78036250D01*
X127080714Y-78036250D02*
X127016905Y-78071964D01*
X127016905Y-78071964D02*
X126953095Y-78071964D01*
X126953095Y-78071964D02*
X126889286Y-78036250D01*
X126889286Y-78036250D02*
X126857381Y-78000535D01*
X126857381Y-78000535D02*
X126825476Y-77929107D01*
X126825476Y-77929107D02*
X126793572Y-77786250D01*
X126793572Y-77786250D02*
X126793572Y-77607678D01*
X126793572Y-77607678D02*
X126825476Y-77464821D01*
X126825476Y-77464821D02*
X126857381Y-77393392D01*
X126857381Y-77393392D02*
X126889286Y-77357678D01*
X126889286Y-77357678D02*
X126953095Y-77321964D01*
X127942143Y-77286250D02*
X127367857Y-78250535D01*
X128388810Y-77679107D02*
X128165476Y-77679107D01*
X128165476Y-78071964D02*
X128165476Y-77321964D01*
X128165476Y-77321964D02*
X128484524Y-77321964D01*
X128675953Y-77321964D02*
X129122619Y-77321964D01*
X129122619Y-77321964D02*
X128835477Y-78071964D01*
X147766429Y-70536250D02*
X147862143Y-70571964D01*
X147862143Y-70571964D02*
X148021667Y-70571964D01*
X148021667Y-70571964D02*
X148085476Y-70536250D01*
X148085476Y-70536250D02*
X148117381Y-70500535D01*
X148117381Y-70500535D02*
X148149286Y-70429107D01*
X148149286Y-70429107D02*
X148149286Y-70357678D01*
X148149286Y-70357678D02*
X148117381Y-70286250D01*
X148117381Y-70286250D02*
X148085476Y-70250535D01*
X148085476Y-70250535D02*
X148021667Y-70214821D01*
X148021667Y-70214821D02*
X147894048Y-70179107D01*
X147894048Y-70179107D02*
X147830238Y-70143392D01*
X147830238Y-70143392D02*
X147798333Y-70107678D01*
X147798333Y-70107678D02*
X147766429Y-70036250D01*
X147766429Y-70036250D02*
X147766429Y-69964821D01*
X147766429Y-69964821D02*
X147798333Y-69893392D01*
X147798333Y-69893392D02*
X147830238Y-69857678D01*
X147830238Y-69857678D02*
X147894048Y-69821964D01*
X147894048Y-69821964D02*
X148053571Y-69821964D01*
X148053571Y-69821964D02*
X148149286Y-69857678D01*
X148436428Y-70571964D02*
X148436428Y-69821964D01*
X148436428Y-69821964D02*
X148595952Y-69821964D01*
X148595952Y-69821964D02*
X148691666Y-69857678D01*
X148691666Y-69857678D02*
X148755476Y-69929107D01*
X148755476Y-69929107D02*
X148787381Y-70000535D01*
X148787381Y-70000535D02*
X148819285Y-70143392D01*
X148819285Y-70143392D02*
X148819285Y-70250535D01*
X148819285Y-70250535D02*
X148787381Y-70393392D01*
X148787381Y-70393392D02*
X148755476Y-70464821D01*
X148755476Y-70464821D02*
X148691666Y-70536250D01*
X148691666Y-70536250D02*
X148595952Y-70571964D01*
X148595952Y-70571964D02*
X148436428Y-70571964D01*
X149074524Y-70357678D02*
X149393571Y-70357678D01*
X149010714Y-70571964D02*
X149234047Y-69821964D01*
X149234047Y-69821964D02*
X149457381Y-70571964D01*
X150159286Y-69786250D02*
X149585000Y-70750535D01*
X150382619Y-70571964D02*
X150382619Y-69821964D01*
X150382619Y-69821964D02*
X150542143Y-69821964D01*
X150542143Y-69821964D02*
X150637857Y-69857678D01*
X150637857Y-69857678D02*
X150701667Y-69929107D01*
X150701667Y-69929107D02*
X150733572Y-70000535D01*
X150733572Y-70000535D02*
X150765476Y-70143392D01*
X150765476Y-70143392D02*
X150765476Y-70250535D01*
X150765476Y-70250535D02*
X150733572Y-70393392D01*
X150733572Y-70393392D02*
X150701667Y-70464821D01*
X150701667Y-70464821D02*
X150637857Y-70536250D01*
X150637857Y-70536250D02*
X150542143Y-70571964D01*
X150542143Y-70571964D02*
X150382619Y-70571964D01*
X151403572Y-70571964D02*
X151020715Y-70571964D01*
X151212143Y-70571964D02*
X151212143Y-69821964D01*
X151212143Y-69821964D02*
X151148334Y-69929107D01*
X151148334Y-69929107D02*
X151084524Y-70000535D01*
X151084524Y-70000535D02*
X151020715Y-70036250D01*
X152169286Y-69786250D02*
X151595000Y-70750535D01*
X152360715Y-69893392D02*
X152392619Y-69857678D01*
X152392619Y-69857678D02*
X152456429Y-69821964D01*
X152456429Y-69821964D02*
X152615953Y-69821964D01*
X152615953Y-69821964D02*
X152679762Y-69857678D01*
X152679762Y-69857678D02*
X152711667Y-69893392D01*
X152711667Y-69893392D02*
X152743572Y-69964821D01*
X152743572Y-69964821D02*
X152743572Y-70036250D01*
X152743572Y-70036250D02*
X152711667Y-70143392D01*
X152711667Y-70143392D02*
X152328810Y-70571964D01*
X152328810Y-70571964D02*
X152743572Y-70571964D01*
X126522381Y-85721964D02*
X126139524Y-85721964D01*
X126330952Y-85721964D02*
X126330952Y-84971964D01*
X126330952Y-84971964D02*
X126267143Y-85079107D01*
X126267143Y-85079107D02*
X126203333Y-85150535D01*
X126203333Y-85150535D02*
X126139524Y-85186250D01*
X127096666Y-84971964D02*
X126969047Y-84971964D01*
X126969047Y-84971964D02*
X126905238Y-85007678D01*
X126905238Y-85007678D02*
X126873333Y-85043392D01*
X126873333Y-85043392D02*
X126809523Y-85150535D01*
X126809523Y-85150535D02*
X126777619Y-85293392D01*
X126777619Y-85293392D02*
X126777619Y-85579107D01*
X126777619Y-85579107D02*
X126809523Y-85650535D01*
X126809523Y-85650535D02*
X126841428Y-85686250D01*
X126841428Y-85686250D02*
X126905238Y-85721964D01*
X126905238Y-85721964D02*
X127032857Y-85721964D01*
X127032857Y-85721964D02*
X127096666Y-85686250D01*
X127096666Y-85686250D02*
X127128571Y-85650535D01*
X127128571Y-85650535D02*
X127160476Y-85579107D01*
X127160476Y-85579107D02*
X127160476Y-85400535D01*
X127160476Y-85400535D02*
X127128571Y-85329107D01*
X127128571Y-85329107D02*
X127096666Y-85293392D01*
X127096666Y-85293392D02*
X127032857Y-85257678D01*
X127032857Y-85257678D02*
X126905238Y-85257678D01*
X126905238Y-85257678D02*
X126841428Y-85293392D01*
X126841428Y-85293392D02*
X126809523Y-85329107D01*
X126809523Y-85329107D02*
X126777619Y-85400535D01*
X127926190Y-84936250D02*
X127351904Y-85900535D01*
X128372857Y-85329107D02*
X128468571Y-85364821D01*
X128468571Y-85364821D02*
X128500476Y-85400535D01*
X128500476Y-85400535D02*
X128532380Y-85471964D01*
X128532380Y-85471964D02*
X128532380Y-85579107D01*
X128532380Y-85579107D02*
X128500476Y-85650535D01*
X128500476Y-85650535D02*
X128468571Y-85686250D01*
X128468571Y-85686250D02*
X128404761Y-85721964D01*
X128404761Y-85721964D02*
X128149523Y-85721964D01*
X128149523Y-85721964D02*
X128149523Y-84971964D01*
X128149523Y-84971964D02*
X128372857Y-84971964D01*
X128372857Y-84971964D02*
X128436666Y-85007678D01*
X128436666Y-85007678D02*
X128468571Y-85043392D01*
X128468571Y-85043392D02*
X128500476Y-85114821D01*
X128500476Y-85114821D02*
X128500476Y-85186250D01*
X128500476Y-85186250D02*
X128468571Y-85257678D01*
X128468571Y-85257678D02*
X128436666Y-85293392D01*
X128436666Y-85293392D02*
X128372857Y-85329107D01*
X128372857Y-85329107D02*
X128149523Y-85329107D01*
X128787619Y-85043392D02*
X128819523Y-85007678D01*
X128819523Y-85007678D02*
X128883333Y-84971964D01*
X128883333Y-84971964D02*
X129042857Y-84971964D01*
X129042857Y-84971964D02*
X129106666Y-85007678D01*
X129106666Y-85007678D02*
X129138571Y-85043392D01*
X129138571Y-85043392D02*
X129170476Y-85114821D01*
X129170476Y-85114821D02*
X129170476Y-85186250D01*
X129170476Y-85186250D02*
X129138571Y-85293392D01*
X129138571Y-85293392D02*
X128755714Y-85721964D01*
X128755714Y-85721964D02*
X129170476Y-85721964D01*
X126522381Y-80621964D02*
X126139524Y-80621964D01*
X126330952Y-80621964D02*
X126330952Y-79871964D01*
X126330952Y-79871964D02*
X126267143Y-79979107D01*
X126267143Y-79979107D02*
X126203333Y-80050535D01*
X126203333Y-80050535D02*
X126139524Y-80086250D01*
X127128571Y-79871964D02*
X126809523Y-79871964D01*
X126809523Y-79871964D02*
X126777619Y-80229107D01*
X126777619Y-80229107D02*
X126809523Y-80193392D01*
X126809523Y-80193392D02*
X126873333Y-80157678D01*
X126873333Y-80157678D02*
X127032857Y-80157678D01*
X127032857Y-80157678D02*
X127096666Y-80193392D01*
X127096666Y-80193392D02*
X127128571Y-80229107D01*
X127128571Y-80229107D02*
X127160476Y-80300535D01*
X127160476Y-80300535D02*
X127160476Y-80479107D01*
X127160476Y-80479107D02*
X127128571Y-80550535D01*
X127128571Y-80550535D02*
X127096666Y-80586250D01*
X127096666Y-80586250D02*
X127032857Y-80621964D01*
X127032857Y-80621964D02*
X126873333Y-80621964D01*
X126873333Y-80621964D02*
X126809523Y-80586250D01*
X126809523Y-80586250D02*
X126777619Y-80550535D01*
X127926190Y-79836250D02*
X127351904Y-80800535D01*
X128372857Y-80229107D02*
X128468571Y-80264821D01*
X128468571Y-80264821D02*
X128500476Y-80300535D01*
X128500476Y-80300535D02*
X128532380Y-80371964D01*
X128532380Y-80371964D02*
X128532380Y-80479107D01*
X128532380Y-80479107D02*
X128500476Y-80550535D01*
X128500476Y-80550535D02*
X128468571Y-80586250D01*
X128468571Y-80586250D02*
X128404761Y-80621964D01*
X128404761Y-80621964D02*
X128149523Y-80621964D01*
X128149523Y-80621964D02*
X128149523Y-79871964D01*
X128149523Y-79871964D02*
X128372857Y-79871964D01*
X128372857Y-79871964D02*
X128436666Y-79907678D01*
X128436666Y-79907678D02*
X128468571Y-79943392D01*
X128468571Y-79943392D02*
X128500476Y-80014821D01*
X128500476Y-80014821D02*
X128500476Y-80086250D01*
X128500476Y-80086250D02*
X128468571Y-80157678D01*
X128468571Y-80157678D02*
X128436666Y-80193392D01*
X128436666Y-80193392D02*
X128372857Y-80229107D01*
X128372857Y-80229107D02*
X128149523Y-80229107D01*
X129170476Y-80621964D02*
X128787619Y-80621964D01*
X128979047Y-80621964D02*
X128979047Y-79871964D01*
X128979047Y-79871964D02*
X128915238Y-79979107D01*
X128915238Y-79979107D02*
X128851428Y-80050535D01*
X128851428Y-80050535D02*
X128787619Y-80086250D01*
X147940476Y-80571964D02*
X147940476Y-79821964D01*
X147940476Y-79821964D02*
X148100000Y-79821964D01*
X148100000Y-79821964D02*
X148195714Y-79857678D01*
X148195714Y-79857678D02*
X148259524Y-79929107D01*
X148259524Y-79929107D02*
X148291429Y-80000535D01*
X148291429Y-80000535D02*
X148323333Y-80143392D01*
X148323333Y-80143392D02*
X148323333Y-80250535D01*
X148323333Y-80250535D02*
X148291429Y-80393392D01*
X148291429Y-80393392D02*
X148259524Y-80464821D01*
X148259524Y-80464821D02*
X148195714Y-80536250D01*
X148195714Y-80536250D02*
X148100000Y-80571964D01*
X148100000Y-80571964D02*
X147940476Y-80571964D01*
X148546667Y-79821964D02*
X148993333Y-79821964D01*
X148993333Y-79821964D02*
X148706191Y-80571964D01*
X149727143Y-79786250D02*
X149152857Y-80750535D01*
X150237619Y-79821964D02*
X150110000Y-79821964D01*
X150110000Y-79821964D02*
X150046191Y-79857678D01*
X150046191Y-79857678D02*
X150014286Y-79893392D01*
X150014286Y-79893392D02*
X149950476Y-80000535D01*
X149950476Y-80000535D02*
X149918572Y-80143392D01*
X149918572Y-80143392D02*
X149918572Y-80429107D01*
X149918572Y-80429107D02*
X149950476Y-80500535D01*
X149950476Y-80500535D02*
X149982381Y-80536250D01*
X149982381Y-80536250D02*
X150046191Y-80571964D01*
X150046191Y-80571964D02*
X150173810Y-80571964D01*
X150173810Y-80571964D02*
X150237619Y-80536250D01*
X150237619Y-80536250D02*
X150269524Y-80500535D01*
X150269524Y-80500535D02*
X150301429Y-80429107D01*
X150301429Y-80429107D02*
X150301429Y-80250535D01*
X150301429Y-80250535D02*
X150269524Y-80179107D01*
X150269524Y-80179107D02*
X150237619Y-80143392D01*
X150237619Y-80143392D02*
X150173810Y-80107678D01*
X150173810Y-80107678D02*
X150046191Y-80107678D01*
X150046191Y-80107678D02*
X149982381Y-80143392D01*
X149982381Y-80143392D02*
X149950476Y-80179107D01*
X149950476Y-80179107D02*
X149918572Y-80250535D01*
X147972381Y-82729107D02*
X148195715Y-82729107D01*
X148291429Y-83121964D02*
X147972381Y-83121964D01*
X147972381Y-83121964D02*
X147972381Y-82371964D01*
X147972381Y-82371964D02*
X148291429Y-82371964D01*
X148865714Y-82371964D02*
X148738095Y-82371964D01*
X148738095Y-82371964D02*
X148674286Y-82407678D01*
X148674286Y-82407678D02*
X148642381Y-82443392D01*
X148642381Y-82443392D02*
X148578571Y-82550535D01*
X148578571Y-82550535D02*
X148546667Y-82693392D01*
X148546667Y-82693392D02*
X148546667Y-82979107D01*
X148546667Y-82979107D02*
X148578571Y-83050535D01*
X148578571Y-83050535D02*
X148610476Y-83086250D01*
X148610476Y-83086250D02*
X148674286Y-83121964D01*
X148674286Y-83121964D02*
X148801905Y-83121964D01*
X148801905Y-83121964D02*
X148865714Y-83086250D01*
X148865714Y-83086250D02*
X148897619Y-83050535D01*
X148897619Y-83050535D02*
X148929524Y-82979107D01*
X148929524Y-82979107D02*
X148929524Y-82800535D01*
X148929524Y-82800535D02*
X148897619Y-82729107D01*
X148897619Y-82729107D02*
X148865714Y-82693392D01*
X148865714Y-82693392D02*
X148801905Y-82657678D01*
X148801905Y-82657678D02*
X148674286Y-82657678D01*
X148674286Y-82657678D02*
X148610476Y-82693392D01*
X148610476Y-82693392D02*
X148578571Y-82729107D01*
X148578571Y-82729107D02*
X148546667Y-82800535D01*
X149695238Y-82336250D02*
X149120952Y-83300535D01*
X149854762Y-82371964D02*
X150301428Y-82371964D01*
X150301428Y-82371964D02*
X150014286Y-83121964D01*
X127842380Y-60271964D02*
X127619047Y-59914821D01*
X127459523Y-60271964D02*
X127459523Y-59521964D01*
X127459523Y-59521964D02*
X127714761Y-59521964D01*
X127714761Y-59521964D02*
X127778571Y-59557678D01*
X127778571Y-59557678D02*
X127810476Y-59593392D01*
X127810476Y-59593392D02*
X127842380Y-59664821D01*
X127842380Y-59664821D02*
X127842380Y-59771964D01*
X127842380Y-59771964D02*
X127810476Y-59843392D01*
X127810476Y-59843392D02*
X127778571Y-59879107D01*
X127778571Y-59879107D02*
X127714761Y-59914821D01*
X127714761Y-59914821D02*
X127459523Y-59914821D01*
X128097619Y-60057678D02*
X128416666Y-60057678D01*
X128033809Y-60271964D02*
X128257142Y-59521964D01*
X128257142Y-59521964D02*
X128480476Y-60271964D01*
X128640000Y-59521964D02*
X128799524Y-60271964D01*
X128799524Y-60271964D02*
X128927143Y-59736250D01*
X128927143Y-59736250D02*
X129054762Y-60271964D01*
X129054762Y-60271964D02*
X129214286Y-59521964D01*
X147736428Y-62871964D02*
X147736428Y-62121964D01*
X147736428Y-62121964D02*
X147895952Y-62121964D01*
X147895952Y-62121964D02*
X147991666Y-62157678D01*
X147991666Y-62157678D02*
X148055476Y-62229107D01*
X148055476Y-62229107D02*
X148087381Y-62300535D01*
X148087381Y-62300535D02*
X148119285Y-62443392D01*
X148119285Y-62443392D02*
X148119285Y-62550535D01*
X148119285Y-62550535D02*
X148087381Y-62693392D01*
X148087381Y-62693392D02*
X148055476Y-62764821D01*
X148055476Y-62764821D02*
X147991666Y-62836250D01*
X147991666Y-62836250D02*
X147895952Y-62871964D01*
X147895952Y-62871964D02*
X147736428Y-62871964D01*
X148374524Y-62193392D02*
X148406428Y-62157678D01*
X148406428Y-62157678D02*
X148470238Y-62121964D01*
X148470238Y-62121964D02*
X148629762Y-62121964D01*
X148629762Y-62121964D02*
X148693571Y-62157678D01*
X148693571Y-62157678D02*
X148725476Y-62193392D01*
X148725476Y-62193392D02*
X148757381Y-62264821D01*
X148757381Y-62264821D02*
X148757381Y-62336250D01*
X148757381Y-62336250D02*
X148725476Y-62443392D01*
X148725476Y-62443392D02*
X148342619Y-62871964D01*
X148342619Y-62871964D02*
X148757381Y-62871964D01*
X149523095Y-62086250D02*
X148948809Y-63050535D01*
X150129285Y-62871964D02*
X149905952Y-62514821D01*
X149746428Y-62871964D02*
X149746428Y-62121964D01*
X149746428Y-62121964D02*
X150001666Y-62121964D01*
X150001666Y-62121964D02*
X150065476Y-62157678D01*
X150065476Y-62157678D02*
X150097381Y-62193392D01*
X150097381Y-62193392D02*
X150129285Y-62264821D01*
X150129285Y-62264821D02*
X150129285Y-62371964D01*
X150129285Y-62371964D02*
X150097381Y-62443392D01*
X150097381Y-62443392D02*
X150065476Y-62479107D01*
X150065476Y-62479107D02*
X150001666Y-62514821D01*
X150001666Y-62514821D02*
X149746428Y-62514821D01*
X150352619Y-62121964D02*
X150799285Y-62871964D01*
X150799285Y-62121964D02*
X150352619Y-62871964D01*
X151405476Y-62871964D02*
X151022619Y-62871964D01*
X151214047Y-62871964D02*
X151214047Y-62121964D01*
X151214047Y-62121964D02*
X151150238Y-62229107D01*
X151150238Y-62229107D02*
X151086428Y-62300535D01*
X151086428Y-62300535D02*
X151022619Y-62336250D01*
X148094524Y-67207678D02*
X148030714Y-67171964D01*
X148030714Y-67171964D02*
X147935000Y-67171964D01*
X147935000Y-67171964D02*
X147839286Y-67207678D01*
X147839286Y-67207678D02*
X147775476Y-67279107D01*
X147775476Y-67279107D02*
X147743571Y-67350535D01*
X147743571Y-67350535D02*
X147711667Y-67493392D01*
X147711667Y-67493392D02*
X147711667Y-67600535D01*
X147711667Y-67600535D02*
X147743571Y-67743392D01*
X147743571Y-67743392D02*
X147775476Y-67814821D01*
X147775476Y-67814821D02*
X147839286Y-67886250D01*
X147839286Y-67886250D02*
X147935000Y-67921964D01*
X147935000Y-67921964D02*
X147998809Y-67921964D01*
X147998809Y-67921964D02*
X148094524Y-67886250D01*
X148094524Y-67886250D02*
X148126428Y-67850535D01*
X148126428Y-67850535D02*
X148126428Y-67600535D01*
X148126428Y-67600535D02*
X147998809Y-67600535D01*
X148413571Y-67921964D02*
X148413571Y-67171964D01*
X148413571Y-67171964D02*
X148796428Y-67921964D01*
X148796428Y-67921964D02*
X148796428Y-67171964D01*
X149115476Y-67921964D02*
X149115476Y-67171964D01*
X149115476Y-67171964D02*
X149275000Y-67171964D01*
X149275000Y-67171964D02*
X149370714Y-67207678D01*
X149370714Y-67207678D02*
X149434524Y-67279107D01*
X149434524Y-67279107D02*
X149466429Y-67350535D01*
X149466429Y-67350535D02*
X149498333Y-67493392D01*
X149498333Y-67493392D02*
X149498333Y-67600535D01*
X149498333Y-67600535D02*
X149466429Y-67743392D01*
X149466429Y-67743392D02*
X149434524Y-67814821D01*
X149434524Y-67814821D02*
X149370714Y-67886250D01*
X149370714Y-67886250D02*
X149275000Y-67921964D01*
X149275000Y-67921964D02*
X149115476Y-67921964D01*
X147782381Y-73036250D02*
X147878095Y-73071964D01*
X147878095Y-73071964D02*
X148037619Y-73071964D01*
X148037619Y-73071964D02*
X148101428Y-73036250D01*
X148101428Y-73036250D02*
X148133333Y-73000535D01*
X148133333Y-73000535D02*
X148165238Y-72929107D01*
X148165238Y-72929107D02*
X148165238Y-72857678D01*
X148165238Y-72857678D02*
X148133333Y-72786250D01*
X148133333Y-72786250D02*
X148101428Y-72750535D01*
X148101428Y-72750535D02*
X148037619Y-72714821D01*
X148037619Y-72714821D02*
X147910000Y-72679107D01*
X147910000Y-72679107D02*
X147846190Y-72643392D01*
X147846190Y-72643392D02*
X147814285Y-72607678D01*
X147814285Y-72607678D02*
X147782381Y-72536250D01*
X147782381Y-72536250D02*
X147782381Y-72464821D01*
X147782381Y-72464821D02*
X147814285Y-72393392D01*
X147814285Y-72393392D02*
X147846190Y-72357678D01*
X147846190Y-72357678D02*
X147910000Y-72321964D01*
X147910000Y-72321964D02*
X148069523Y-72321964D01*
X148069523Y-72321964D02*
X148165238Y-72357678D01*
X148835237Y-73000535D02*
X148803333Y-73036250D01*
X148803333Y-73036250D02*
X148707618Y-73071964D01*
X148707618Y-73071964D02*
X148643809Y-73071964D01*
X148643809Y-73071964D02*
X148548095Y-73036250D01*
X148548095Y-73036250D02*
X148484285Y-72964821D01*
X148484285Y-72964821D02*
X148452380Y-72893392D01*
X148452380Y-72893392D02*
X148420476Y-72750535D01*
X148420476Y-72750535D02*
X148420476Y-72643392D01*
X148420476Y-72643392D02*
X148452380Y-72500535D01*
X148452380Y-72500535D02*
X148484285Y-72429107D01*
X148484285Y-72429107D02*
X148548095Y-72357678D01*
X148548095Y-72357678D02*
X148643809Y-72321964D01*
X148643809Y-72321964D02*
X148707618Y-72321964D01*
X148707618Y-72321964D02*
X148803333Y-72357678D01*
X148803333Y-72357678D02*
X148835237Y-72393392D01*
X149441428Y-73071964D02*
X149122380Y-73071964D01*
X149122380Y-73071964D02*
X149122380Y-72321964D01*
X150143333Y-72286250D02*
X149569047Y-73250535D01*
X150366666Y-73071964D02*
X150366666Y-72321964D01*
X150366666Y-72321964D02*
X150526190Y-72321964D01*
X150526190Y-72321964D02*
X150621904Y-72357678D01*
X150621904Y-72357678D02*
X150685714Y-72429107D01*
X150685714Y-72429107D02*
X150717619Y-72500535D01*
X150717619Y-72500535D02*
X150749523Y-72643392D01*
X150749523Y-72643392D02*
X150749523Y-72750535D01*
X150749523Y-72750535D02*
X150717619Y-72893392D01*
X150717619Y-72893392D02*
X150685714Y-72964821D01*
X150685714Y-72964821D02*
X150621904Y-73036250D01*
X150621904Y-73036250D02*
X150526190Y-73071964D01*
X150526190Y-73071964D02*
X150366666Y-73071964D01*
X151164285Y-72321964D02*
X151228095Y-72321964D01*
X151228095Y-72321964D02*
X151291904Y-72357678D01*
X151291904Y-72357678D02*
X151323809Y-72393392D01*
X151323809Y-72393392D02*
X151355714Y-72464821D01*
X151355714Y-72464821D02*
X151387619Y-72607678D01*
X151387619Y-72607678D02*
X151387619Y-72786250D01*
X151387619Y-72786250D02*
X151355714Y-72929107D01*
X151355714Y-72929107D02*
X151323809Y-73000535D01*
X151323809Y-73000535D02*
X151291904Y-73036250D01*
X151291904Y-73036250D02*
X151228095Y-73071964D01*
X151228095Y-73071964D02*
X151164285Y-73071964D01*
X151164285Y-73071964D02*
X151100476Y-73036250D01*
X151100476Y-73036250D02*
X151068571Y-73000535D01*
X151068571Y-73000535D02*
X151036666Y-72929107D01*
X151036666Y-72929107D02*
X151004762Y-72786250D01*
X151004762Y-72786250D02*
X151004762Y-72607678D01*
X151004762Y-72607678D02*
X151036666Y-72464821D01*
X151036666Y-72464821D02*
X151068571Y-72393392D01*
X151068571Y-72393392D02*
X151100476Y-72357678D01*
X151100476Y-72357678D02*
X151164285Y-72321964D01*
X152153333Y-72286250D02*
X151579047Y-73250535D01*
X152312857Y-72321964D02*
X152727619Y-72321964D01*
X152727619Y-72321964D02*
X152504285Y-72607678D01*
X152504285Y-72607678D02*
X152600000Y-72607678D01*
X152600000Y-72607678D02*
X152663809Y-72643392D01*
X152663809Y-72643392D02*
X152695714Y-72679107D01*
X152695714Y-72679107D02*
X152727619Y-72750535D01*
X152727619Y-72750535D02*
X152727619Y-72929107D01*
X152727619Y-72929107D02*
X152695714Y-73000535D01*
X152695714Y-73000535D02*
X152663809Y-73036250D01*
X152663809Y-73036250D02*
X152600000Y-73071964D01*
X152600000Y-73071964D02*
X152408571Y-73071964D01*
X152408571Y-73071964D02*
X152344762Y-73036250D01*
X152344762Y-73036250D02*
X152312857Y-73000535D01*
X126522381Y-83171964D02*
X126139524Y-83171964D01*
X126330952Y-83171964D02*
X126330952Y-82421964D01*
X126330952Y-82421964D02*
X126267143Y-82529107D01*
X126267143Y-82529107D02*
X126203333Y-82600535D01*
X126203333Y-82600535D02*
X126139524Y-82636250D01*
X127096666Y-82671964D02*
X127096666Y-83171964D01*
X126937142Y-82386250D02*
X126777619Y-82921964D01*
X126777619Y-82921964D02*
X127192380Y-82921964D01*
X127926190Y-82386250D02*
X127351904Y-83350535D01*
X128372857Y-82779107D02*
X128468571Y-82814821D01*
X128468571Y-82814821D02*
X128500476Y-82850535D01*
X128500476Y-82850535D02*
X128532380Y-82921964D01*
X128532380Y-82921964D02*
X128532380Y-83029107D01*
X128532380Y-83029107D02*
X128500476Y-83100535D01*
X128500476Y-83100535D02*
X128468571Y-83136250D01*
X128468571Y-83136250D02*
X128404761Y-83171964D01*
X128404761Y-83171964D02*
X128149523Y-83171964D01*
X128149523Y-83171964D02*
X128149523Y-82421964D01*
X128149523Y-82421964D02*
X128372857Y-82421964D01*
X128372857Y-82421964D02*
X128436666Y-82457678D01*
X128436666Y-82457678D02*
X128468571Y-82493392D01*
X128468571Y-82493392D02*
X128500476Y-82564821D01*
X128500476Y-82564821D02*
X128500476Y-82636250D01*
X128500476Y-82636250D02*
X128468571Y-82707678D01*
X128468571Y-82707678D02*
X128436666Y-82743392D01*
X128436666Y-82743392D02*
X128372857Y-82779107D01*
X128372857Y-82779107D02*
X128149523Y-82779107D01*
X128755714Y-82421964D02*
X129170476Y-82421964D01*
X129170476Y-82421964D02*
X128947142Y-82707678D01*
X128947142Y-82707678D02*
X129042857Y-82707678D01*
X129042857Y-82707678D02*
X129106666Y-82743392D01*
X129106666Y-82743392D02*
X129138571Y-82779107D01*
X129138571Y-82779107D02*
X129170476Y-82850535D01*
X129170476Y-82850535D02*
X129170476Y-83029107D01*
X129170476Y-83029107D02*
X129138571Y-83100535D01*
X129138571Y-83100535D02*
X129106666Y-83136250D01*
X129106666Y-83136250D02*
X129042857Y-83171964D01*
X129042857Y-83171964D02*
X128851428Y-83171964D01*
X128851428Y-83171964D02*
X128787619Y-83136250D01*
X128787619Y-83136250D02*
X128755714Y-83100535D01*
X127938095Y-65371964D02*
X127714762Y-65014821D01*
X127555238Y-65371964D02*
X127555238Y-64621964D01*
X127555238Y-64621964D02*
X127810476Y-64621964D01*
X127810476Y-64621964D02*
X127874286Y-64657678D01*
X127874286Y-64657678D02*
X127906191Y-64693392D01*
X127906191Y-64693392D02*
X127938095Y-64764821D01*
X127938095Y-64764821D02*
X127938095Y-64871964D01*
X127938095Y-64871964D02*
X127906191Y-64943392D01*
X127906191Y-64943392D02*
X127874286Y-64979107D01*
X127874286Y-64979107D02*
X127810476Y-65014821D01*
X127810476Y-65014821D02*
X127555238Y-65014821D01*
X128193334Y-65336250D02*
X128289048Y-65371964D01*
X128289048Y-65371964D02*
X128448572Y-65371964D01*
X128448572Y-65371964D02*
X128512381Y-65336250D01*
X128512381Y-65336250D02*
X128544286Y-65300535D01*
X128544286Y-65300535D02*
X128576191Y-65229107D01*
X128576191Y-65229107D02*
X128576191Y-65157678D01*
X128576191Y-65157678D02*
X128544286Y-65086250D01*
X128544286Y-65086250D02*
X128512381Y-65050535D01*
X128512381Y-65050535D02*
X128448572Y-65014821D01*
X128448572Y-65014821D02*
X128320953Y-64979107D01*
X128320953Y-64979107D02*
X128257143Y-64943392D01*
X128257143Y-64943392D02*
X128225238Y-64907678D01*
X128225238Y-64907678D02*
X128193334Y-64836250D01*
X128193334Y-64836250D02*
X128193334Y-64764821D01*
X128193334Y-64764821D02*
X128225238Y-64693392D01*
X128225238Y-64693392D02*
X128257143Y-64657678D01*
X128257143Y-64657678D02*
X128320953Y-64621964D01*
X128320953Y-64621964D02*
X128480476Y-64621964D01*
X128480476Y-64621964D02*
X128576191Y-64657678D01*
X128767619Y-64621964D02*
X129150476Y-64621964D01*
X128959048Y-65371964D02*
X128959048Y-64621964D01*
X148163810Y-87779107D02*
X148259524Y-87814821D01*
X148259524Y-87814821D02*
X148291429Y-87850535D01*
X148291429Y-87850535D02*
X148323333Y-87921964D01*
X148323333Y-87921964D02*
X148323333Y-88029107D01*
X148323333Y-88029107D02*
X148291429Y-88100535D01*
X148291429Y-88100535D02*
X148259524Y-88136250D01*
X148259524Y-88136250D02*
X148195714Y-88171964D01*
X148195714Y-88171964D02*
X147940476Y-88171964D01*
X147940476Y-88171964D02*
X147940476Y-87421964D01*
X147940476Y-87421964D02*
X148163810Y-87421964D01*
X148163810Y-87421964D02*
X148227619Y-87457678D01*
X148227619Y-87457678D02*
X148259524Y-87493392D01*
X148259524Y-87493392D02*
X148291429Y-87564821D01*
X148291429Y-87564821D02*
X148291429Y-87636250D01*
X148291429Y-87636250D02*
X148259524Y-87707678D01*
X148259524Y-87707678D02*
X148227619Y-87743392D01*
X148227619Y-87743392D02*
X148163810Y-87779107D01*
X148163810Y-87779107D02*
X147940476Y-87779107D01*
X148929524Y-87421964D02*
X148610476Y-87421964D01*
X148610476Y-87421964D02*
X148578572Y-87779107D01*
X148578572Y-87779107D02*
X148610476Y-87743392D01*
X148610476Y-87743392D02*
X148674286Y-87707678D01*
X148674286Y-87707678D02*
X148833810Y-87707678D01*
X148833810Y-87707678D02*
X148897619Y-87743392D01*
X148897619Y-87743392D02*
X148929524Y-87779107D01*
X148929524Y-87779107D02*
X148961429Y-87850535D01*
X148961429Y-87850535D02*
X148961429Y-88029107D01*
X148961429Y-88029107D02*
X148929524Y-88100535D01*
X148929524Y-88100535D02*
X148897619Y-88136250D01*
X148897619Y-88136250D02*
X148833810Y-88171964D01*
X148833810Y-88171964D02*
X148674286Y-88171964D01*
X148674286Y-88171964D02*
X148610476Y-88136250D01*
X148610476Y-88136250D02*
X148578572Y-88100535D01*
X149727143Y-87386250D02*
X149152857Y-88350535D01*
X149982381Y-88171964D02*
X150110000Y-88171964D01*
X150110000Y-88171964D02*
X150173810Y-88136250D01*
X150173810Y-88136250D02*
X150205714Y-88100535D01*
X150205714Y-88100535D02*
X150269524Y-87993392D01*
X150269524Y-87993392D02*
X150301429Y-87850535D01*
X150301429Y-87850535D02*
X150301429Y-87564821D01*
X150301429Y-87564821D02*
X150269524Y-87493392D01*
X150269524Y-87493392D02*
X150237619Y-87457678D01*
X150237619Y-87457678D02*
X150173810Y-87421964D01*
X150173810Y-87421964D02*
X150046191Y-87421964D01*
X150046191Y-87421964D02*
X149982381Y-87457678D01*
X149982381Y-87457678D02*
X149950476Y-87493392D01*
X149950476Y-87493392D02*
X149918572Y-87564821D01*
X149918572Y-87564821D02*
X149918572Y-87743392D01*
X149918572Y-87743392D02*
X149950476Y-87814821D01*
X149950476Y-87814821D02*
X149982381Y-87850535D01*
X149982381Y-87850535D02*
X150046191Y-87886250D01*
X150046191Y-87886250D02*
X150173810Y-87886250D01*
X150173810Y-87886250D02*
X150237619Y-87850535D01*
X150237619Y-87850535D02*
X150269524Y-87814821D01*
X150269524Y-87814821D02*
X150301429Y-87743392D01*
D12*
X136003571Y-55821964D02*
X136003571Y-55071964D01*
X136003571Y-55071964D02*
X136253571Y-55607678D01*
X136253571Y-55607678D02*
X136503571Y-55071964D01*
X136503571Y-55071964D02*
X136503571Y-55821964D01*
X136860714Y-55821964D02*
X136860714Y-55321964D01*
X136860714Y-55071964D02*
X136825000Y-55107678D01*
X136825000Y-55107678D02*
X136860714Y-55143392D01*
X136860714Y-55143392D02*
X136896428Y-55107678D01*
X136896428Y-55107678D02*
X136860714Y-55071964D01*
X136860714Y-55071964D02*
X136860714Y-55143392D01*
X137539286Y-55786250D02*
X137467857Y-55821964D01*
X137467857Y-55821964D02*
X137325000Y-55821964D01*
X137325000Y-55821964D02*
X137253571Y-55786250D01*
X137253571Y-55786250D02*
X137217857Y-55750535D01*
X137217857Y-55750535D02*
X137182143Y-55679107D01*
X137182143Y-55679107D02*
X137182143Y-55464821D01*
X137182143Y-55464821D02*
X137217857Y-55393392D01*
X137217857Y-55393392D02*
X137253571Y-55357678D01*
X137253571Y-55357678D02*
X137325000Y-55321964D01*
X137325000Y-55321964D02*
X137467857Y-55321964D01*
X137467857Y-55321964D02*
X137539286Y-55357678D01*
X137860714Y-55821964D02*
X137860714Y-55321964D01*
X137860714Y-55464821D02*
X137896428Y-55393392D01*
X137896428Y-55393392D02*
X137932143Y-55357678D01*
X137932143Y-55357678D02*
X138003571Y-55321964D01*
X138003571Y-55321964D02*
X138075000Y-55321964D01*
X138432143Y-55821964D02*
X138360714Y-55786250D01*
X138360714Y-55786250D02*
X138325000Y-55750535D01*
X138325000Y-55750535D02*
X138289286Y-55679107D01*
X138289286Y-55679107D02*
X138289286Y-55464821D01*
X138289286Y-55464821D02*
X138325000Y-55393392D01*
X138325000Y-55393392D02*
X138360714Y-55357678D01*
X138360714Y-55357678D02*
X138432143Y-55321964D01*
X138432143Y-55321964D02*
X138539286Y-55321964D01*
X138539286Y-55321964D02*
X138610714Y-55357678D01*
X138610714Y-55357678D02*
X138646429Y-55393392D01*
X138646429Y-55393392D02*
X138682143Y-55464821D01*
X138682143Y-55464821D02*
X138682143Y-55679107D01*
X138682143Y-55679107D02*
X138646429Y-55750535D01*
X138646429Y-55750535D02*
X138610714Y-55786250D01*
X138610714Y-55786250D02*
X138539286Y-55821964D01*
X138539286Y-55821964D02*
X138432143Y-55821964D01*
X139003571Y-55071964D02*
X139003571Y-55679107D01*
X139003571Y-55679107D02*
X139039285Y-55750535D01*
X139039285Y-55750535D02*
X139075000Y-55786250D01*
X139075000Y-55786250D02*
X139146428Y-55821964D01*
X139146428Y-55821964D02*
X139289285Y-55821964D01*
X139289285Y-55821964D02*
X139360714Y-55786250D01*
X139360714Y-55786250D02*
X139396428Y-55750535D01*
X139396428Y-55750535D02*
X139432142Y-55679107D01*
X139432142Y-55679107D02*
X139432142Y-55071964D01*
X139753571Y-55786250D02*
X139860714Y-55821964D01*
X139860714Y-55821964D02*
X140039285Y-55821964D01*
X140039285Y-55821964D02*
X140110714Y-55786250D01*
X140110714Y-55786250D02*
X140146428Y-55750535D01*
X140146428Y-55750535D02*
X140182142Y-55679107D01*
X140182142Y-55679107D02*
X140182142Y-55607678D01*
X140182142Y-55607678D02*
X140146428Y-55536250D01*
X140146428Y-55536250D02*
X140110714Y-55500535D01*
X140110714Y-55500535D02*
X140039285Y-55464821D01*
X140039285Y-55464821D02*
X139896428Y-55429107D01*
X139896428Y-55429107D02*
X139824999Y-55393392D01*
X139824999Y-55393392D02*
X139789285Y-55357678D01*
X139789285Y-55357678D02*
X139753571Y-55286250D01*
X139753571Y-55286250D02*
X139753571Y-55214821D01*
X139753571Y-55214821D02*
X139789285Y-55143392D01*
X139789285Y-55143392D02*
X139824999Y-55107678D01*
X139824999Y-55107678D02*
X139896428Y-55071964D01*
X139896428Y-55071964D02*
X140074999Y-55071964D01*
X140074999Y-55071964D02*
X140182142Y-55107678D01*
X140753571Y-55429107D02*
X140860714Y-55464821D01*
X140860714Y-55464821D02*
X140896428Y-55500535D01*
X140896428Y-55500535D02*
X140932142Y-55571964D01*
X140932142Y-55571964D02*
X140932142Y-55679107D01*
X140932142Y-55679107D02*
X140896428Y-55750535D01*
X140896428Y-55750535D02*
X140860714Y-55786250D01*
X140860714Y-55786250D02*
X140789285Y-55821964D01*
X140789285Y-55821964D02*
X140503571Y-55821964D01*
X140503571Y-55821964D02*
X140503571Y-55071964D01*
X140503571Y-55071964D02*
X140753571Y-55071964D01*
X140753571Y-55071964D02*
X140825000Y-55107678D01*
X140825000Y-55107678D02*
X140860714Y-55143392D01*
X140860714Y-55143392D02*
X140896428Y-55214821D01*
X140896428Y-55214821D02*
X140896428Y-55286250D01*
X140896428Y-55286250D02*
X140860714Y-55357678D01*
X140860714Y-55357678D02*
X140825000Y-55393392D01*
X140825000Y-55393392D02*
X140753571Y-55429107D01*
X140753571Y-55429107D02*
X140503571Y-55429107D01*
D11*
X148094524Y-64757678D02*
X148030714Y-64721964D01*
X148030714Y-64721964D02*
X147935000Y-64721964D01*
X147935000Y-64721964D02*
X147839286Y-64757678D01*
X147839286Y-64757678D02*
X147775476Y-64829107D01*
X147775476Y-64829107D02*
X147743571Y-64900535D01*
X147743571Y-64900535D02*
X147711667Y-65043392D01*
X147711667Y-65043392D02*
X147711667Y-65150535D01*
X147711667Y-65150535D02*
X147743571Y-65293392D01*
X147743571Y-65293392D02*
X147775476Y-65364821D01*
X147775476Y-65364821D02*
X147839286Y-65436250D01*
X147839286Y-65436250D02*
X147935000Y-65471964D01*
X147935000Y-65471964D02*
X147998809Y-65471964D01*
X147998809Y-65471964D02*
X148094524Y-65436250D01*
X148094524Y-65436250D02*
X148126428Y-65400535D01*
X148126428Y-65400535D02*
X148126428Y-65150535D01*
X148126428Y-65150535D02*
X147998809Y-65150535D01*
X148413571Y-65471964D02*
X148413571Y-64721964D01*
X148413571Y-64721964D02*
X148796428Y-65471964D01*
X148796428Y-65471964D02*
X148796428Y-64721964D01*
X149115476Y-65471964D02*
X149115476Y-64721964D01*
X149115476Y-64721964D02*
X149275000Y-64721964D01*
X149275000Y-64721964D02*
X149370714Y-64757678D01*
X149370714Y-64757678D02*
X149434524Y-64829107D01*
X149434524Y-64829107D02*
X149466429Y-64900535D01*
X149466429Y-64900535D02*
X149498333Y-65043392D01*
X149498333Y-65043392D02*
X149498333Y-65150535D01*
X149498333Y-65150535D02*
X149466429Y-65293392D01*
X149466429Y-65293392D02*
X149434524Y-65364821D01*
X149434524Y-65364821D02*
X149370714Y-65436250D01*
X149370714Y-65436250D02*
X149275000Y-65471964D01*
X149275000Y-65471964D02*
X149115476Y-65471964D01*
X126522381Y-88221964D02*
X126139524Y-88221964D01*
X126330952Y-88221964D02*
X126330952Y-87471964D01*
X126330952Y-87471964D02*
X126267143Y-87579107D01*
X126267143Y-87579107D02*
X126203333Y-87650535D01*
X126203333Y-87650535D02*
X126139524Y-87686250D01*
X126937142Y-87471964D02*
X127000952Y-87471964D01*
X127000952Y-87471964D02*
X127064761Y-87507678D01*
X127064761Y-87507678D02*
X127096666Y-87543392D01*
X127096666Y-87543392D02*
X127128571Y-87614821D01*
X127128571Y-87614821D02*
X127160476Y-87757678D01*
X127160476Y-87757678D02*
X127160476Y-87936250D01*
X127160476Y-87936250D02*
X127128571Y-88079107D01*
X127128571Y-88079107D02*
X127096666Y-88150535D01*
X127096666Y-88150535D02*
X127064761Y-88186250D01*
X127064761Y-88186250D02*
X127000952Y-88221964D01*
X127000952Y-88221964D02*
X126937142Y-88221964D01*
X126937142Y-88221964D02*
X126873333Y-88186250D01*
X126873333Y-88186250D02*
X126841428Y-88150535D01*
X126841428Y-88150535D02*
X126809523Y-88079107D01*
X126809523Y-88079107D02*
X126777619Y-87936250D01*
X126777619Y-87936250D02*
X126777619Y-87757678D01*
X126777619Y-87757678D02*
X126809523Y-87614821D01*
X126809523Y-87614821D02*
X126841428Y-87543392D01*
X126841428Y-87543392D02*
X126873333Y-87507678D01*
X126873333Y-87507678D02*
X126937142Y-87471964D01*
X127926190Y-87436250D02*
X127351904Y-88400535D01*
X128372857Y-87829107D02*
X128468571Y-87864821D01*
X128468571Y-87864821D02*
X128500476Y-87900535D01*
X128500476Y-87900535D02*
X128532380Y-87971964D01*
X128532380Y-87971964D02*
X128532380Y-88079107D01*
X128532380Y-88079107D02*
X128500476Y-88150535D01*
X128500476Y-88150535D02*
X128468571Y-88186250D01*
X128468571Y-88186250D02*
X128404761Y-88221964D01*
X128404761Y-88221964D02*
X128149523Y-88221964D01*
X128149523Y-88221964D02*
X128149523Y-87471964D01*
X128149523Y-87471964D02*
X128372857Y-87471964D01*
X128372857Y-87471964D02*
X128436666Y-87507678D01*
X128436666Y-87507678D02*
X128468571Y-87543392D01*
X128468571Y-87543392D02*
X128500476Y-87614821D01*
X128500476Y-87614821D02*
X128500476Y-87686250D01*
X128500476Y-87686250D02*
X128468571Y-87757678D01*
X128468571Y-87757678D02*
X128436666Y-87793392D01*
X128436666Y-87793392D02*
X128372857Y-87829107D01*
X128372857Y-87829107D02*
X128149523Y-87829107D01*
X129106666Y-87471964D02*
X128979047Y-87471964D01*
X128979047Y-87471964D02*
X128915238Y-87507678D01*
X128915238Y-87507678D02*
X128883333Y-87543392D01*
X128883333Y-87543392D02*
X128819523Y-87650535D01*
X128819523Y-87650535D02*
X128787619Y-87793392D01*
X128787619Y-87793392D02*
X128787619Y-88079107D01*
X128787619Y-88079107D02*
X128819523Y-88150535D01*
X128819523Y-88150535D02*
X128851428Y-88186250D01*
X128851428Y-88186250D02*
X128915238Y-88221964D01*
X128915238Y-88221964D02*
X129042857Y-88221964D01*
X129042857Y-88221964D02*
X129106666Y-88186250D01*
X129106666Y-88186250D02*
X129138571Y-88150535D01*
X129138571Y-88150535D02*
X129170476Y-88079107D01*
X129170476Y-88079107D02*
X129170476Y-87900535D01*
X129170476Y-87900535D02*
X129138571Y-87829107D01*
X129138571Y-87829107D02*
X129106666Y-87793392D01*
X129106666Y-87793392D02*
X129042857Y-87757678D01*
X129042857Y-87757678D02*
X128915238Y-87757678D01*
X128915238Y-87757678D02*
X128851428Y-87793392D01*
X128851428Y-87793392D02*
X128819523Y-87829107D01*
X128819523Y-87829107D02*
X128787619Y-87900535D01*
X148163810Y-85279107D02*
X148259524Y-85314821D01*
X148259524Y-85314821D02*
X148291429Y-85350535D01*
X148291429Y-85350535D02*
X148323333Y-85421964D01*
X148323333Y-85421964D02*
X148323333Y-85529107D01*
X148323333Y-85529107D02*
X148291429Y-85600535D01*
X148291429Y-85600535D02*
X148259524Y-85636250D01*
X148259524Y-85636250D02*
X148195714Y-85671964D01*
X148195714Y-85671964D02*
X147940476Y-85671964D01*
X147940476Y-85671964D02*
X147940476Y-84921964D01*
X147940476Y-84921964D02*
X148163810Y-84921964D01*
X148163810Y-84921964D02*
X148227619Y-84957678D01*
X148227619Y-84957678D02*
X148259524Y-84993392D01*
X148259524Y-84993392D02*
X148291429Y-85064821D01*
X148291429Y-85064821D02*
X148291429Y-85136250D01*
X148291429Y-85136250D02*
X148259524Y-85207678D01*
X148259524Y-85207678D02*
X148227619Y-85243392D01*
X148227619Y-85243392D02*
X148163810Y-85279107D01*
X148163810Y-85279107D02*
X147940476Y-85279107D01*
X148897619Y-85171964D02*
X148897619Y-85671964D01*
X148738095Y-84886250D02*
X148578572Y-85421964D01*
X148578572Y-85421964D02*
X148993333Y-85421964D01*
X149727143Y-84886250D02*
X149152857Y-85850535D01*
X150046191Y-85243392D02*
X149982381Y-85207678D01*
X149982381Y-85207678D02*
X149950476Y-85171964D01*
X149950476Y-85171964D02*
X149918572Y-85100535D01*
X149918572Y-85100535D02*
X149918572Y-85064821D01*
X149918572Y-85064821D02*
X149950476Y-84993392D01*
X149950476Y-84993392D02*
X149982381Y-84957678D01*
X149982381Y-84957678D02*
X150046191Y-84921964D01*
X150046191Y-84921964D02*
X150173810Y-84921964D01*
X150173810Y-84921964D02*
X150237619Y-84957678D01*
X150237619Y-84957678D02*
X150269524Y-84993392D01*
X150269524Y-84993392D02*
X150301429Y-85064821D01*
X150301429Y-85064821D02*
X150301429Y-85100535D01*
X150301429Y-85100535D02*
X150269524Y-85171964D01*
X150269524Y-85171964D02*
X150237619Y-85207678D01*
X150237619Y-85207678D02*
X150173810Y-85243392D01*
X150173810Y-85243392D02*
X150046191Y-85243392D01*
X150046191Y-85243392D02*
X149982381Y-85279107D01*
X149982381Y-85279107D02*
X149950476Y-85314821D01*
X149950476Y-85314821D02*
X149918572Y-85386250D01*
X149918572Y-85386250D02*
X149918572Y-85529107D01*
X149918572Y-85529107D02*
X149950476Y-85600535D01*
X149950476Y-85600535D02*
X149982381Y-85636250D01*
X149982381Y-85636250D02*
X150046191Y-85671964D01*
X150046191Y-85671964D02*
X150173810Y-85671964D01*
X150173810Y-85671964D02*
X150237619Y-85636250D01*
X150237619Y-85636250D02*
X150269524Y-85600535D01*
X150269524Y-85600535D02*
X150301429Y-85529107D01*
X150301429Y-85529107D02*
X150301429Y-85386250D01*
X150301429Y-85386250D02*
X150269524Y-85314821D01*
X150269524Y-85314821D02*
X150237619Y-85279107D01*
X150237619Y-85279107D02*
X150173810Y-85243392D01*
X127794524Y-62107678D02*
X127730714Y-62071964D01*
X127730714Y-62071964D02*
X127635000Y-62071964D01*
X127635000Y-62071964D02*
X127539286Y-62107678D01*
X127539286Y-62107678D02*
X127475476Y-62179107D01*
X127475476Y-62179107D02*
X127443571Y-62250535D01*
X127443571Y-62250535D02*
X127411667Y-62393392D01*
X127411667Y-62393392D02*
X127411667Y-62500535D01*
X127411667Y-62500535D02*
X127443571Y-62643392D01*
X127443571Y-62643392D02*
X127475476Y-62714821D01*
X127475476Y-62714821D02*
X127539286Y-62786250D01*
X127539286Y-62786250D02*
X127635000Y-62821964D01*
X127635000Y-62821964D02*
X127698809Y-62821964D01*
X127698809Y-62821964D02*
X127794524Y-62786250D01*
X127794524Y-62786250D02*
X127826428Y-62750535D01*
X127826428Y-62750535D02*
X127826428Y-62500535D01*
X127826428Y-62500535D02*
X127698809Y-62500535D01*
X128113571Y-62821964D02*
X128113571Y-62071964D01*
X128113571Y-62071964D02*
X128496428Y-62821964D01*
X128496428Y-62821964D02*
X128496428Y-62071964D01*
X128815476Y-62821964D02*
X128815476Y-62071964D01*
X128815476Y-62071964D02*
X128975000Y-62071964D01*
X128975000Y-62071964D02*
X129070714Y-62107678D01*
X129070714Y-62107678D02*
X129134524Y-62179107D01*
X129134524Y-62179107D02*
X129166429Y-62250535D01*
X129166429Y-62250535D02*
X129198333Y-62393392D01*
X129198333Y-62393392D02*
X129198333Y-62500535D01*
X129198333Y-62500535D02*
X129166429Y-62643392D01*
X129166429Y-62643392D02*
X129134524Y-62714821D01*
X129134524Y-62714821D02*
X129070714Y-62786250D01*
X129070714Y-62786250D02*
X128975000Y-62821964D01*
X128975000Y-62821964D02*
X128815476Y-62821964D01*
D10*
D11*
X127411666Y-67071964D02*
X127634999Y-67821964D01*
X127634999Y-67821964D02*
X127858333Y-67071964D01*
X128464523Y-67750535D02*
X128432619Y-67786250D01*
X128432619Y-67786250D02*
X128336904Y-67821964D01*
X128336904Y-67821964D02*
X128273095Y-67821964D01*
X128273095Y-67821964D02*
X128177381Y-67786250D01*
X128177381Y-67786250D02*
X128113571Y-67714821D01*
X128113571Y-67714821D02*
X128081666Y-67643392D01*
X128081666Y-67643392D02*
X128049762Y-67500535D01*
X128049762Y-67500535D02*
X128049762Y-67393392D01*
X128049762Y-67393392D02*
X128081666Y-67250535D01*
X128081666Y-67250535D02*
X128113571Y-67179107D01*
X128113571Y-67179107D02*
X128177381Y-67107678D01*
X128177381Y-67107678D02*
X128273095Y-67071964D01*
X128273095Y-67071964D02*
X128336904Y-67071964D01*
X128336904Y-67071964D02*
X128432619Y-67107678D01*
X128432619Y-67107678D02*
X128464523Y-67143392D01*
X129134523Y-67750535D02*
X129102619Y-67786250D01*
X129102619Y-67786250D02*
X129006904Y-67821964D01*
X129006904Y-67821964D02*
X128943095Y-67821964D01*
X128943095Y-67821964D02*
X128847381Y-67786250D01*
X128847381Y-67786250D02*
X128783571Y-67714821D01*
X128783571Y-67714821D02*
X128751666Y-67643392D01*
X128751666Y-67643392D02*
X128719762Y-67500535D01*
X128719762Y-67500535D02*
X128719762Y-67393392D01*
X128719762Y-67393392D02*
X128751666Y-67250535D01*
X128751666Y-67250535D02*
X128783571Y-67179107D01*
X128783571Y-67179107D02*
X128847381Y-67107678D01*
X128847381Y-67107678D02*
X128943095Y-67071964D01*
X128943095Y-67071964D02*
X129006904Y-67071964D01*
X129006904Y-67071964D02*
X129102619Y-67107678D01*
X129102619Y-67107678D02*
X129134523Y-67143392D01*
X147816190Y-60321964D02*
X147816190Y-59571964D01*
X147816190Y-59571964D02*
X147975714Y-59571964D01*
X147975714Y-59571964D02*
X148071428Y-59607678D01*
X148071428Y-59607678D02*
X148135238Y-59679107D01*
X148135238Y-59679107D02*
X148167143Y-59750535D01*
X148167143Y-59750535D02*
X148199047Y-59893392D01*
X148199047Y-59893392D02*
X148199047Y-60000535D01*
X148199047Y-60000535D02*
X148167143Y-60143392D01*
X148167143Y-60143392D02*
X148135238Y-60214821D01*
X148135238Y-60214821D02*
X148071428Y-60286250D01*
X148071428Y-60286250D02*
X147975714Y-60321964D01*
X147975714Y-60321964D02*
X147816190Y-60321964D01*
X148422381Y-59571964D02*
X148837143Y-59571964D01*
X148837143Y-59571964D02*
X148613809Y-59857678D01*
X148613809Y-59857678D02*
X148709524Y-59857678D01*
X148709524Y-59857678D02*
X148773333Y-59893392D01*
X148773333Y-59893392D02*
X148805238Y-59929107D01*
X148805238Y-59929107D02*
X148837143Y-60000535D01*
X148837143Y-60000535D02*
X148837143Y-60179107D01*
X148837143Y-60179107D02*
X148805238Y-60250535D01*
X148805238Y-60250535D02*
X148773333Y-60286250D01*
X148773333Y-60286250D02*
X148709524Y-60321964D01*
X148709524Y-60321964D02*
X148518095Y-60321964D01*
X148518095Y-60321964D02*
X148454286Y-60286250D01*
X148454286Y-60286250D02*
X148422381Y-60250535D01*
X149602857Y-59536250D02*
X149028571Y-60500535D01*
X149730476Y-59571964D02*
X150113333Y-59571964D01*
X149921905Y-60321964D02*
X149921905Y-59571964D01*
X150272857Y-59571964D02*
X150719523Y-60321964D01*
X150719523Y-59571964D02*
X150272857Y-60321964D01*
X151102380Y-59571964D02*
X151166190Y-59571964D01*
X151166190Y-59571964D02*
X151229999Y-59607678D01*
X151229999Y-59607678D02*
X151261904Y-59643392D01*
X151261904Y-59643392D02*
X151293809Y-59714821D01*
X151293809Y-59714821D02*
X151325714Y-59857678D01*
X151325714Y-59857678D02*
X151325714Y-60036250D01*
X151325714Y-60036250D02*
X151293809Y-60179107D01*
X151293809Y-60179107D02*
X151261904Y-60250535D01*
X151261904Y-60250535D02*
X151229999Y-60286250D01*
X151229999Y-60286250D02*
X151166190Y-60321964D01*
X151166190Y-60321964D02*
X151102380Y-60321964D01*
X151102380Y-60321964D02*
X151038571Y-60286250D01*
X151038571Y-60286250D02*
X151006666Y-60250535D01*
X151006666Y-60250535D02*
X150974761Y-60179107D01*
X150974761Y-60179107D02*
X150942857Y-60036250D01*
X150942857Y-60036250D02*
X150942857Y-59857678D01*
X150942857Y-59857678D02*
X150974761Y-59714821D01*
X150974761Y-59714821D02*
X151006666Y-59643392D01*
X151006666Y-59643392D02*
X151038571Y-59607678D01*
X151038571Y-59607678D02*
X151102380Y-59571964D01*
X147940476Y-75471964D02*
X147940476Y-74721964D01*
X147940476Y-74721964D02*
X148100000Y-74721964D01*
X148100000Y-74721964D02*
X148195714Y-74757678D01*
X148195714Y-74757678D02*
X148259524Y-74829107D01*
X148259524Y-74829107D02*
X148291429Y-74900535D01*
X148291429Y-74900535D02*
X148323333Y-75043392D01*
X148323333Y-75043392D02*
X148323333Y-75150535D01*
X148323333Y-75150535D02*
X148291429Y-75293392D01*
X148291429Y-75293392D02*
X148259524Y-75364821D01*
X148259524Y-75364821D02*
X148195714Y-75436250D01*
X148195714Y-75436250D02*
X148100000Y-75471964D01*
X148100000Y-75471964D02*
X147940476Y-75471964D01*
X148897619Y-74971964D02*
X148897619Y-75471964D01*
X148738095Y-74686250D02*
X148578572Y-75221964D01*
X148578572Y-75221964D02*
X148993333Y-75221964D01*
X149727143Y-74686250D02*
X149152857Y-75650535D01*
X150237619Y-74971964D02*
X150237619Y-75471964D01*
X150078095Y-74686250D02*
X149918572Y-75221964D01*
X149918572Y-75221964D02*
X150333333Y-75221964D01*
X126219286Y-70307678D02*
X126538333Y-70307678D01*
X126155476Y-70521964D02*
X126378809Y-69771964D01*
X126378809Y-69771964D02*
X126602143Y-70521964D01*
X126761667Y-69771964D02*
X127176429Y-69771964D01*
X127176429Y-69771964D02*
X126953095Y-70057678D01*
X126953095Y-70057678D02*
X127048810Y-70057678D01*
X127048810Y-70057678D02*
X127112619Y-70093392D01*
X127112619Y-70093392D02*
X127144524Y-70129107D01*
X127144524Y-70129107D02*
X127176429Y-70200535D01*
X127176429Y-70200535D02*
X127176429Y-70379107D01*
X127176429Y-70379107D02*
X127144524Y-70450535D01*
X127144524Y-70450535D02*
X127112619Y-70486250D01*
X127112619Y-70486250D02*
X127048810Y-70521964D01*
X127048810Y-70521964D02*
X126857381Y-70521964D01*
X126857381Y-70521964D02*
X126793572Y-70486250D01*
X126793572Y-70486250D02*
X126761667Y-70450535D01*
X127942143Y-69736250D02*
X127367857Y-70700535D01*
X128388810Y-70129107D02*
X128165476Y-70129107D01*
X128165476Y-70521964D02*
X128165476Y-69771964D01*
X128165476Y-69771964D02*
X128484524Y-69771964D01*
X129026905Y-70021964D02*
X129026905Y-70521964D01*
X128867381Y-69736250D02*
X128707858Y-70271964D01*
X128707858Y-70271964D02*
X129122619Y-70271964D01*
X148323333Y-77950535D02*
X148291429Y-77986250D01*
X148291429Y-77986250D02*
X148195714Y-78021964D01*
X148195714Y-78021964D02*
X148131905Y-78021964D01*
X148131905Y-78021964D02*
X148036191Y-77986250D01*
X148036191Y-77986250D02*
X147972381Y-77914821D01*
X147972381Y-77914821D02*
X147940476Y-77843392D01*
X147940476Y-77843392D02*
X147908572Y-77700535D01*
X147908572Y-77700535D02*
X147908572Y-77593392D01*
X147908572Y-77593392D02*
X147940476Y-77450535D01*
X147940476Y-77450535D02*
X147972381Y-77379107D01*
X147972381Y-77379107D02*
X148036191Y-77307678D01*
X148036191Y-77307678D02*
X148131905Y-77271964D01*
X148131905Y-77271964D02*
X148195714Y-77271964D01*
X148195714Y-77271964D02*
X148291429Y-77307678D01*
X148291429Y-77307678D02*
X148323333Y-77343392D01*
X148897619Y-77271964D02*
X148770000Y-77271964D01*
X148770000Y-77271964D02*
X148706191Y-77307678D01*
X148706191Y-77307678D02*
X148674286Y-77343392D01*
X148674286Y-77343392D02*
X148610476Y-77450535D01*
X148610476Y-77450535D02*
X148578572Y-77593392D01*
X148578572Y-77593392D02*
X148578572Y-77879107D01*
X148578572Y-77879107D02*
X148610476Y-77950535D01*
X148610476Y-77950535D02*
X148642381Y-77986250D01*
X148642381Y-77986250D02*
X148706191Y-78021964D01*
X148706191Y-78021964D02*
X148833810Y-78021964D01*
X148833810Y-78021964D02*
X148897619Y-77986250D01*
X148897619Y-77986250D02*
X148929524Y-77950535D01*
X148929524Y-77950535D02*
X148961429Y-77879107D01*
X148961429Y-77879107D02*
X148961429Y-77700535D01*
X148961429Y-77700535D02*
X148929524Y-77629107D01*
X148929524Y-77629107D02*
X148897619Y-77593392D01*
X148897619Y-77593392D02*
X148833810Y-77557678D01*
X148833810Y-77557678D02*
X148706191Y-77557678D01*
X148706191Y-77557678D02*
X148642381Y-77593392D01*
X148642381Y-77593392D02*
X148610476Y-77629107D01*
X148610476Y-77629107D02*
X148578572Y-77700535D01*
X149727143Y-77236250D02*
X149152857Y-78200535D01*
X150269524Y-77271964D02*
X149950476Y-77271964D01*
X149950476Y-77271964D02*
X149918572Y-77629107D01*
X149918572Y-77629107D02*
X149950476Y-77593392D01*
X149950476Y-77593392D02*
X150014286Y-77557678D01*
X150014286Y-77557678D02*
X150173810Y-77557678D01*
X150173810Y-77557678D02*
X150237619Y-77593392D01*
X150237619Y-77593392D02*
X150269524Y-77629107D01*
X150269524Y-77629107D02*
X150301429Y-77700535D01*
X150301429Y-77700535D02*
X150301429Y-77879107D01*
X150301429Y-77879107D02*
X150269524Y-77950535D01*
X150269524Y-77950535D02*
X150237619Y-77986250D01*
X150237619Y-77986250D02*
X150173810Y-78021964D01*
X150173810Y-78021964D02*
X150014286Y-78021964D01*
X150014286Y-78021964D02*
X149950476Y-77986250D01*
X149950476Y-77986250D02*
X149918572Y-77950535D01*
X126219286Y-72807678D02*
X126538333Y-72807678D01*
X126155476Y-73021964D02*
X126378809Y-72271964D01*
X126378809Y-72271964D02*
X126602143Y-73021964D01*
X126793572Y-72343392D02*
X126825476Y-72307678D01*
X126825476Y-72307678D02*
X126889286Y-72271964D01*
X126889286Y-72271964D02*
X127048810Y-72271964D01*
X127048810Y-72271964D02*
X127112619Y-72307678D01*
X127112619Y-72307678D02*
X127144524Y-72343392D01*
X127144524Y-72343392D02*
X127176429Y-72414821D01*
X127176429Y-72414821D02*
X127176429Y-72486250D01*
X127176429Y-72486250D02*
X127144524Y-72593392D01*
X127144524Y-72593392D02*
X126761667Y-73021964D01*
X126761667Y-73021964D02*
X127176429Y-73021964D01*
X127942143Y-72236250D02*
X127367857Y-73200535D01*
X128388810Y-72629107D02*
X128165476Y-72629107D01*
X128165476Y-73021964D02*
X128165476Y-72271964D01*
X128165476Y-72271964D02*
X128484524Y-72271964D01*
X129058810Y-72271964D02*
X128739762Y-72271964D01*
X128739762Y-72271964D02*
X128707858Y-72629107D01*
X128707858Y-72629107D02*
X128739762Y-72593392D01*
X128739762Y-72593392D02*
X128803572Y-72557678D01*
X128803572Y-72557678D02*
X128963096Y-72557678D01*
X128963096Y-72557678D02*
X129026905Y-72593392D01*
X129026905Y-72593392D02*
X129058810Y-72629107D01*
X129058810Y-72629107D02*
X129090715Y-72700535D01*
X129090715Y-72700535D02*
X129090715Y-72879107D01*
X129090715Y-72879107D02*
X129058810Y-72950535D01*
X129058810Y-72950535D02*
X129026905Y-72986250D01*
X129026905Y-72986250D02*
X128963096Y-73021964D01*
X128963096Y-73021964D02*
X128803572Y-73021964D01*
X128803572Y-73021964D02*
X128739762Y-72986250D01*
X128739762Y-72986250D02*
X128707858Y-72950535D01*
X126219286Y-75307678D02*
X126538333Y-75307678D01*
X126155476Y-75521964D02*
X126378809Y-74771964D01*
X126378809Y-74771964D02*
X126602143Y-75521964D01*
X127176429Y-75521964D02*
X126793572Y-75521964D01*
X126985000Y-75521964D02*
X126985000Y-74771964D01*
X126985000Y-74771964D02*
X126921191Y-74879107D01*
X126921191Y-74879107D02*
X126857381Y-74950535D01*
X126857381Y-74950535D02*
X126793572Y-74986250D01*
X127942143Y-74736250D02*
X127367857Y-75700535D01*
X128388810Y-75129107D02*
X128165476Y-75129107D01*
X128165476Y-75521964D02*
X128165476Y-74771964D01*
X128165476Y-74771964D02*
X128484524Y-74771964D01*
X129026905Y-74771964D02*
X128899286Y-74771964D01*
X128899286Y-74771964D02*
X128835477Y-74807678D01*
X128835477Y-74807678D02*
X128803572Y-74843392D01*
X128803572Y-74843392D02*
X128739762Y-74950535D01*
X128739762Y-74950535D02*
X128707858Y-75093392D01*
X128707858Y-75093392D02*
X128707858Y-75379107D01*
X128707858Y-75379107D02*
X128739762Y-75450535D01*
X128739762Y-75450535D02*
X128771667Y-75486250D01*
X128771667Y-75486250D02*
X128835477Y-75521964D01*
X128835477Y-75521964D02*
X128963096Y-75521964D01*
X128963096Y-75521964D02*
X129026905Y-75486250D01*
X129026905Y-75486250D02*
X129058810Y-75450535D01*
X129058810Y-75450535D02*
X129090715Y-75379107D01*
X129090715Y-75379107D02*
X129090715Y-75200535D01*
X129090715Y-75200535D02*
X129058810Y-75129107D01*
X129058810Y-75129107D02*
X129026905Y-75093392D01*
X129026905Y-75093392D02*
X128963096Y-75057678D01*
X128963096Y-75057678D02*
X128835477Y-75057678D01*
X128835477Y-75057678D02*
X128771667Y-75093392D01*
X128771667Y-75093392D02*
X128739762Y-75129107D01*
X128739762Y-75129107D02*
X128707858Y-75200535D01*
D10*
%TO.C,SW37*%
X135100000Y-93450000D02*
X135100000Y-93700000D01*
X135100000Y-93450000D02*
X141100000Y-93450000D01*
X135100000Y-96950000D02*
X135100000Y-96700000D01*
X135100000Y-96950000D02*
X141100000Y-96950000D01*
X141100000Y-93450000D02*
X141100000Y-93700000D01*
X141100000Y-96950000D02*
X141100000Y-96700000D01*
%TO.C,U1*%
X129600000Y-56125000D02*
X129600000Y-57125000D01*
X129600000Y-56125000D02*
X130600000Y-56125000D01*
X129600000Y-88125000D02*
X129600000Y-89175000D01*
X129600000Y-89175000D02*
X130600000Y-89175000D01*
X134750000Y-53225000D02*
X134750000Y-54525000D01*
X134750000Y-54525000D02*
X142250000Y-54525000D01*
X138000000Y-53575000D02*
X139000000Y-53575000D01*
X138150000Y-53725000D02*
X138850000Y-53725000D01*
X138250000Y-53875000D02*
X138750000Y-53875000D01*
X138350000Y-54025000D02*
X138650000Y-54025000D01*
X138500000Y-54225000D02*
X138000000Y-53575000D01*
X139000000Y-53575000D02*
X138500000Y-54225000D01*
X142250000Y-53225000D02*
X134750000Y-53225000D01*
X142250000Y-54525000D02*
X142250000Y-53225000D01*
X147400000Y-56125000D02*
X146450000Y-56125000D01*
X147400000Y-56125000D02*
X147400000Y-57125000D01*
X147400000Y-88175000D02*
X147400000Y-89175000D01*
X147400000Y-89175000D02*
X146390000Y-89175000D01*
%TO.C,D13*%
X81730527Y-76473932D02*
X82668227Y-71155970D01*
X83207739Y-76734404D02*
X81730527Y-76473932D01*
X83343563Y-74524415D02*
X82358755Y-74350767D01*
X82868524Y-74339110D02*
X83517211Y-73539607D01*
X82532403Y-73365959D02*
X82868524Y-74339110D01*
X83517211Y-73539607D02*
X82532403Y-73365959D01*
X82668227Y-71155970D02*
X84145439Y-71416442D01*
X84145439Y-71416442D02*
X83207739Y-76734404D01*
%TO.C,D27*%
X196030244Y-100589217D02*
X195092544Y-95271255D01*
X197507456Y-100328745D02*
X196030244Y-100589217D01*
X196879228Y-98205580D02*
X195894420Y-98379228D01*
X196369459Y-98193923D02*
X196705580Y-97220772D01*
X195720772Y-97394420D02*
X196369459Y-98193923D01*
X196705580Y-97220772D02*
X195720772Y-97394420D01*
X195092544Y-95271255D02*
X196569756Y-95010783D01*
X196569756Y-95010783D02*
X197507456Y-100328745D01*
%TO.C,D28*%
X213830244Y-92589217D02*
X212892544Y-87271255D01*
X215307456Y-92328745D02*
X213830244Y-92589217D01*
X214679228Y-90205580D02*
X213694420Y-90379228D01*
X214169459Y-90193923D02*
X214505580Y-89220772D01*
X213520772Y-89394420D02*
X214169459Y-90193923D01*
X214505580Y-89220772D02*
X213520772Y-89394420D01*
X212892544Y-87271255D02*
X214369756Y-87010783D01*
X214369756Y-87010783D02*
X215307456Y-92328745D01*
%TO.C,D34*%
X173530244Y-138589217D02*
X172592544Y-133271255D01*
X175007456Y-138328745D02*
X173530244Y-138589217D01*
X174379228Y-136205580D02*
X173394420Y-136379228D01*
X173869459Y-136193923D02*
X174205580Y-135220772D01*
X173220772Y-135394420D02*
X173869459Y-136193923D01*
X174205580Y-135220772D02*
X173220772Y-135394420D01*
X172592544Y-133271255D02*
X174069756Y-133010783D01*
X174069756Y-133010783D02*
X175007456Y-138328745D01*
%TO.C,D3*%
X85130527Y-57773932D02*
X86068227Y-52455970D01*
X86607739Y-58034404D02*
X85130527Y-57773932D01*
X86743563Y-55824415D02*
X85758755Y-55650767D01*
X86268524Y-55639110D02*
X86917211Y-54839607D01*
X85932403Y-54665959D02*
X86268524Y-55639110D01*
X86917211Y-54839607D02*
X85932403Y-54665959D01*
X86068227Y-52455970D02*
X87545439Y-52716442D01*
X87545439Y-52716442D02*
X86607739Y-58034404D01*
%TO.C,D20*%
X249830244Y-76589217D02*
X248892544Y-71271255D01*
X251307456Y-76328745D02*
X249830244Y-76589217D01*
X250679228Y-74205580D02*
X249694420Y-74379228D01*
X250169459Y-74193923D02*
X250505580Y-73220772D01*
X249520772Y-73394420D02*
X250169459Y-74193923D01*
X250505580Y-73220772D02*
X249520772Y-73394420D01*
X248892544Y-71271255D02*
X250369756Y-71010783D01*
X250369756Y-71010783D02*
X251307456Y-76328745D01*
%TO.C,D12*%
X62222301Y-78221966D02*
X63160001Y-72904004D01*
X63699513Y-78482438D02*
X62222301Y-78221966D01*
X63835337Y-76272449D02*
X62850529Y-76098801D01*
X63360298Y-76087144D02*
X64008985Y-75287641D01*
X63024177Y-75113993D02*
X63360298Y-76087144D01*
X64008985Y-75287641D02*
X63024177Y-75113993D01*
X63160001Y-72904004D02*
X64637213Y-73164476D01*
X64637213Y-73164476D02*
X63699513Y-78482438D01*
%TO.C,D10*%
X246430244Y-57689217D02*
X245492544Y-52371255D01*
X247907456Y-57428745D02*
X246430244Y-57689217D01*
X247279228Y-55305580D02*
X246294420Y-55479228D01*
X246769459Y-55293923D02*
X247105580Y-54320772D01*
X246120772Y-54494420D02*
X246769459Y-55293923D01*
X247105580Y-54320772D02*
X246120772Y-54494420D01*
X245492544Y-52371255D02*
X246969756Y-52110783D01*
X246969756Y-52110783D02*
X247907456Y-57428745D01*
%TO.C,D22*%
X58530527Y-96373932D02*
X59468227Y-91055970D01*
X60007739Y-96634404D02*
X58530527Y-96373932D01*
X60143563Y-94424415D02*
X59158755Y-94250767D01*
X59668524Y-94239110D02*
X60317211Y-93439607D01*
X59332403Y-93265959D02*
X59668524Y-94239110D01*
X60317211Y-93439607D02*
X59332403Y-93265959D01*
X59468227Y-91055970D02*
X60945439Y-91316442D01*
X60945439Y-91316442D02*
X60007739Y-96634404D01*
%TO.C,D6*%
X171230244Y-70889217D02*
X170292544Y-65571255D01*
X172707456Y-70628745D02*
X171230244Y-70889217D01*
X172079228Y-68505580D02*
X171094420Y-68679228D01*
X171569459Y-68493923D02*
X171905580Y-67520772D01*
X170920772Y-67694420D02*
X171569459Y-68493923D01*
X171905580Y-67520772D02*
X170920772Y-67694420D01*
X170292544Y-65571255D02*
X171769756Y-65310783D01*
X171769756Y-65310783D02*
X172707456Y-70628745D01*
%TO.C,D17*%
X192630244Y-82089217D02*
X191692544Y-76771255D01*
X194107456Y-81828745D02*
X192630244Y-82089217D01*
X193479228Y-79705580D02*
X192494420Y-79879228D01*
X192969459Y-79693923D02*
X193305580Y-78720772D01*
X192320772Y-78894420D02*
X192969459Y-79693923D01*
X193305580Y-78720772D02*
X192320772Y-78894420D01*
X191692544Y-76771255D02*
X193169756Y-76510783D01*
X193169756Y-76510783D02*
X194107456Y-81828745D01*
%TO.C,D16*%
X174730244Y-89989217D02*
X173792544Y-84671255D01*
X176207456Y-89728745D02*
X174730244Y-89989217D01*
X175579228Y-87605580D02*
X174594420Y-87779228D01*
X175069459Y-87593923D02*
X175405580Y-86620772D01*
X174420772Y-86794420D02*
X175069459Y-87593923D01*
X175405580Y-86620772D02*
X174420772Y-86794420D01*
X173792544Y-84671255D02*
X175269756Y-84410783D01*
X175269756Y-84410783D02*
X176207456Y-89728745D01*
%TO.C,D24*%
X96330527Y-103273932D02*
X97268227Y-97955970D01*
X97807739Y-103534404D02*
X96330527Y-103273932D01*
X97943563Y-101324415D02*
X96958755Y-101150767D01*
X97468524Y-101139110D02*
X98117211Y-100339607D01*
X97132403Y-100165959D02*
X97468524Y-101139110D01*
X98117211Y-100339607D02*
X97132403Y-100165959D01*
X97268227Y-97955970D02*
X98745439Y-98216442D01*
X98745439Y-98216442D02*
X97807739Y-103534404D01*
%TO.C,D29*%
X233322018Y-94041183D02*
X232384318Y-88723221D01*
X234799230Y-93780711D02*
X233322018Y-94041183D01*
X234171002Y-91657546D02*
X233186194Y-91831194D01*
X233661233Y-91645889D02*
X233997354Y-90672738D01*
X233012546Y-90846386D02*
X233661233Y-91645889D01*
X233997354Y-90672738D02*
X233012546Y-90846386D01*
X232384318Y-88723221D02*
X233861530Y-88462749D01*
X233861530Y-88462749D02*
X234799230Y-93780711D01*
%TO.C,D15*%
X117530527Y-92473932D02*
X118468227Y-87155970D01*
X119007739Y-92734404D02*
X117530527Y-92473932D01*
X119143563Y-90524415D02*
X118158755Y-90350767D01*
X118668524Y-90339110D02*
X119317211Y-89539607D01*
X118332403Y-89365959D02*
X118668524Y-90339110D01*
X119317211Y-89539607D02*
X118332403Y-89365959D01*
X118468227Y-87155970D02*
X119945439Y-87416442D01*
X119945439Y-87416442D02*
X119007739Y-92734404D01*
%TO.C,D36*%
X209630244Y-122589217D02*
X208692544Y-117271255D01*
X211107456Y-122328745D02*
X209630244Y-122589217D01*
X210479228Y-120205580D02*
X209494420Y-120379228D01*
X209969459Y-120193923D02*
X210305580Y-119220772D01*
X209320772Y-119394420D02*
X209969459Y-120193923D01*
X210305580Y-119220772D02*
X209320772Y-119394420D01*
X208692544Y-117271255D02*
X210169756Y-117010783D01*
X210169756Y-117010783D02*
X211107456Y-122328745D01*
%TO.C,D9*%
X226830244Y-56189217D02*
X225892544Y-50871255D01*
X228307456Y-55928745D02*
X226830244Y-56189217D01*
X227679228Y-53805580D02*
X226694420Y-53979228D01*
X227169459Y-53793923D02*
X227505580Y-52820772D01*
X226520772Y-52994420D02*
X227169459Y-53793923D01*
X227505580Y-52820772D02*
X226520772Y-52994420D01*
X225892544Y-50871255D02*
X227369756Y-50610783D01*
X227369756Y-50610783D02*
X228307456Y-55928745D01*
%TO.C,D7*%
X189222018Y-62441183D02*
X188284318Y-57123221D01*
X190699230Y-62180711D02*
X189222018Y-62441183D01*
X190071002Y-60057546D02*
X189086194Y-60231194D01*
X189561233Y-60045889D02*
X189897354Y-59072738D01*
X188912546Y-59246386D02*
X189561233Y-60045889D01*
X189897354Y-59072738D02*
X188912546Y-59246386D01*
X188284318Y-57123221D02*
X189761530Y-56862749D01*
X189761530Y-56862749D02*
X190699230Y-62180711D01*
%TO.C,D14*%
X99630527Y-84673932D02*
X100568227Y-79355970D01*
X101107739Y-84934404D02*
X99630527Y-84673932D01*
X101243563Y-82724415D02*
X100258755Y-82550767D01*
X100768524Y-82539110D02*
X101417211Y-81739607D01*
X100432403Y-81565959D02*
X100768524Y-82539110D01*
X101417211Y-81739607D02*
X100432403Y-81565959D01*
X100568227Y-79355970D02*
X102045439Y-79616442D01*
X102045439Y-79616442D02*
X101107739Y-84934404D01*
%TO.C,D2*%
X65430527Y-59373932D02*
X66368227Y-54055970D01*
X66907739Y-59634404D02*
X65430527Y-59373932D01*
X67043563Y-57424415D02*
X66058755Y-57250767D01*
X66568524Y-57239110D02*
X67217211Y-56439607D01*
X66232403Y-56265959D02*
X66568524Y-57239110D01*
X67217211Y-56439607D02*
X66232403Y-56265959D01*
X66368227Y-54055970D02*
X67845439Y-54316442D01*
X67845439Y-54316442D02*
X66907739Y-59634404D01*
%TO.C,D25*%
X114330527Y-111273932D02*
X115268227Y-105955970D01*
X115807739Y-111534404D02*
X114330527Y-111273932D01*
X115943563Y-109324415D02*
X114958755Y-109150767D01*
X115468524Y-109139110D02*
X116117211Y-108339607D01*
X115132403Y-108165959D02*
X115468524Y-109139110D01*
X116117211Y-108339607D02*
X115132403Y-108165959D01*
X115268227Y-105955970D02*
X116745439Y-106216442D01*
X116745439Y-106216442D02*
X115807739Y-111534404D01*
%TO.C,D8*%
X206830244Y-54589217D02*
X205892544Y-49271255D01*
X208307456Y-54328745D02*
X206830244Y-54589217D01*
X207679228Y-52205580D02*
X206694420Y-52379228D01*
X207169459Y-52193923D02*
X207505580Y-51220772D01*
X206520772Y-51394420D02*
X207169459Y-52193923D01*
X207505580Y-51220772D02*
X206520772Y-51394420D01*
X205892544Y-49271255D02*
X207369756Y-49010783D01*
X207369756Y-49010783D02*
X208307456Y-54328745D01*
%TO.C,D5*%
X120830527Y-74073932D02*
X121768227Y-68755970D01*
X122307739Y-74334404D02*
X120830527Y-74073932D01*
X122443563Y-72124415D02*
X121458755Y-71950767D01*
X121968524Y-71939110D02*
X122617211Y-71139607D01*
X121632403Y-70965959D02*
X121968524Y-71939110D01*
X122617211Y-71139607D02*
X121632403Y-70965959D01*
X121768227Y-68755970D02*
X123245439Y-69016442D01*
X123245439Y-69016442D02*
X122307739Y-74334404D01*
%TO.C,D33*%
X118622301Y-141321966D02*
X119560001Y-136004004D01*
X120099513Y-141582438D02*
X118622301Y-141321966D01*
X120235337Y-139372449D02*
X119250529Y-139198801D01*
X119760298Y-139187144D02*
X120408985Y-138387641D01*
X119424177Y-138213993D02*
X119760298Y-139187144D01*
X120408985Y-138387641D02*
X119424177Y-138213993D01*
X119560001Y-136004004D02*
X121037213Y-136264476D01*
X121037213Y-136264476D02*
X120099513Y-141582438D01*
%TO.C,D21*%
X39330527Y-98273932D02*
X40268227Y-92955970D01*
X40807739Y-98534404D02*
X39330527Y-98273932D01*
X40943563Y-96324415D02*
X39958755Y-96150767D01*
X40468524Y-96139110D02*
X41117211Y-95339607D01*
X40132403Y-95165959D02*
X40468524Y-96139110D01*
X41117211Y-95339607D02*
X40132403Y-95165959D01*
X40268227Y-92955970D02*
X41745439Y-93216442D01*
X41745439Y-93216442D02*
X40807739Y-98534404D01*
%TO.C,D31*%
X82822301Y-125321966D02*
X83760001Y-120004004D01*
X84299513Y-125582438D02*
X82822301Y-125321966D01*
X84435337Y-123372449D02*
X83450529Y-123198801D01*
X83960298Y-123187144D02*
X84608985Y-122387641D01*
X83624177Y-122213993D02*
X83960298Y-123187144D01*
X84608985Y-122387641D02*
X83624177Y-122213993D01*
X83760001Y-120004004D02*
X85237213Y-120264476D01*
X85237213Y-120264476D02*
X84299513Y-125582438D01*
%TO.C,D23*%
X78430527Y-95173932D02*
X79368227Y-89855970D01*
X79907739Y-95434404D02*
X78430527Y-95173932D01*
X80043563Y-93224415D02*
X79058755Y-93050767D01*
X79568524Y-93039110D02*
X80217211Y-92239607D01*
X79232403Y-92065959D02*
X79568524Y-93039110D01*
X80217211Y-92239607D02*
X79232403Y-92065959D01*
X79368227Y-89855970D02*
X80845439Y-90116442D01*
X80845439Y-90116442D02*
X79907739Y-95434404D01*
%TO.C,D32*%
X100522301Y-133121966D02*
X101460001Y-127804004D01*
X101999513Y-133382438D02*
X100522301Y-133121966D01*
X102135337Y-131172449D02*
X101150529Y-130998801D01*
X101660298Y-130987144D02*
X102308985Y-130187641D01*
X101324177Y-130013993D02*
X101660298Y-130987144D01*
X102308985Y-130187641D02*
X101324177Y-130013993D01*
X101460001Y-127804004D02*
X102937213Y-128064476D01*
X102937213Y-128064476D02*
X101999513Y-133382438D01*
%TO.C,D1*%
X45730527Y-60773932D02*
X46668227Y-55455970D01*
X47207739Y-61034404D02*
X45730527Y-60773932D01*
X47343563Y-58824415D02*
X46358755Y-58650767D01*
X46868524Y-58639110D02*
X47517211Y-57839607D01*
X46532403Y-57665959D02*
X46868524Y-58639110D01*
X47517211Y-57839607D02*
X46532403Y-57665959D01*
X46668227Y-55455970D02*
X48145439Y-55716442D01*
X48145439Y-55716442D02*
X47207739Y-61034404D01*
%TO.C,D18*%
X210530244Y-73889217D02*
X209592544Y-68571255D01*
X212007456Y-73628745D02*
X210530244Y-73889217D01*
X211379228Y-71505580D02*
X210394420Y-71679228D01*
X210869459Y-71493923D02*
X211205580Y-70520772D01*
X210220772Y-70694420D02*
X210869459Y-71493923D01*
X211205580Y-70520772D02*
X210220772Y-70694420D01*
X209592544Y-68571255D02*
X211069756Y-68310783D01*
X211069756Y-68310783D02*
X212007456Y-73628745D01*
%TO.C,D19*%
X230222018Y-75241183D02*
X229284318Y-69923221D01*
X231699230Y-74980711D02*
X230222018Y-75241183D01*
X231071002Y-72857546D02*
X230086194Y-73031194D01*
X230561233Y-72845889D02*
X230897354Y-71872738D01*
X229912546Y-72046386D02*
X230561233Y-72845889D01*
X230897354Y-71872738D02*
X229912546Y-72046386D01*
X229284318Y-69923221D02*
X230761530Y-69662749D01*
X230761530Y-69662749D02*
X231699230Y-74980711D01*
%TO.C,D11*%
X42530527Y-79473932D02*
X43468227Y-74155970D01*
X44007739Y-79734404D02*
X42530527Y-79473932D01*
X44143563Y-77524415D02*
X43158755Y-77350767D01*
X43668524Y-77339110D02*
X44317211Y-76539607D01*
X43332403Y-76365959D02*
X43668524Y-77339110D01*
X44317211Y-76539607D02*
X43332403Y-76365959D01*
X43468227Y-74155970D02*
X44945439Y-74416442D01*
X44945439Y-74416442D02*
X44007739Y-79734404D01*
%TO.C,D26*%
X178130244Y-108489217D02*
X177192544Y-103171255D01*
X179607456Y-108228745D02*
X178130244Y-108489217D01*
X178979228Y-106105580D02*
X177994420Y-106279228D01*
X178469459Y-106093923D02*
X178805580Y-105120772D01*
X177820772Y-105294420D02*
X178469459Y-106093923D01*
X178805580Y-105120772D02*
X177820772Y-105294420D01*
X177192544Y-103171255D02*
X178669756Y-102910783D01*
X178669756Y-102910783D02*
X179607456Y-108228745D01*
%TO.C,D30*%
X252922018Y-95341183D02*
X251984318Y-90023221D01*
X254399230Y-95080711D02*
X252922018Y-95341183D01*
X253771002Y-92957546D02*
X252786194Y-93131194D01*
X253261233Y-92945889D02*
X253597354Y-91972738D01*
X252612546Y-92146386D02*
X253261233Y-92945889D01*
X253597354Y-91972738D02*
X252612546Y-92146386D01*
X251984318Y-90023221D02*
X253461530Y-89762749D01*
X253461530Y-89762749D02*
X254399230Y-95080711D01*
%TO.C,D4*%
X103130527Y-65773932D02*
X104068227Y-60455970D01*
X104607739Y-66034404D02*
X103130527Y-65773932D01*
X104743563Y-63824415D02*
X103758755Y-63650767D01*
X104268524Y-63639110D02*
X104917211Y-62839607D01*
X103932403Y-62665959D02*
X104268524Y-63639110D01*
X104917211Y-62839607D02*
X103932403Y-62665959D01*
X104068227Y-60455970D02*
X105545439Y-60716442D01*
X105545439Y-60716442D02*
X104607739Y-66034404D01*
%TO.C,D35*%
X191530244Y-130589217D02*
X190592544Y-125271255D01*
X193007456Y-130328745D02*
X191530244Y-130589217D01*
X192379228Y-128205580D02*
X191394420Y-128379228D01*
X191869459Y-128193923D02*
X192205580Y-127220772D01*
X191220772Y-127394420D02*
X191869459Y-128193923D01*
X192205580Y-127220772D02*
X191220772Y-127394420D01*
X190592544Y-125271255D02*
X192069756Y-125010783D01*
X192069756Y-125010783D02*
X193007456Y-130328745D01*
%TD*%
D13*
%TO.C,SW37*%
X141350000Y-95200000D03*
X134850000Y-95200000D03*
%TD*%
D14*
%TO.C,U1*%
X146111400Y-59947000D03*
X146111400Y-62487000D03*
X146111400Y-65027000D03*
X146111400Y-67567000D03*
X146111400Y-70107000D03*
X146111400Y-72647000D03*
X146111400Y-75187000D03*
X146111400Y-77727000D03*
X146111400Y-80267000D03*
X146111400Y-82807000D03*
X146111400Y-85347000D03*
X146111400Y-87887000D03*
X130891400Y-87887000D03*
X130891400Y-85347000D03*
X130891400Y-82807000D03*
X130891400Y-80267000D03*
X130891400Y-77727000D03*
X130891400Y-75187000D03*
X130891400Y-72647000D03*
X130891400Y-70107000D03*
X130891400Y-67567000D03*
X130891400Y-65027000D03*
X130891400Y-62487000D03*
X130891400Y-59947000D03*
%TD*%
M02*
