M48
; DRILL file {KiCad 7.0.2} date Sat May 13 02:56:24 2023
; FORMAT={-:-/ absolute / metric / decimal}
; #@! TF.CreationDate,2023-05-13T02:56:24+09:00
; #@! TF.GenerationSoftware,Kicad,Pcbnew,7.0.2
; #@! TF.FileFunction,NonPlated,1,2,NPTH
FMAT,2
METRIC
; #@! TA.AperFunction,NonPlated,NPTH,ComponentDrill
T1C1.900
; #@! TA.AperFunction,NonPlated,NPTH,ComponentDrill
T2C3.000
; #@! TA.AperFunction,NonPlated,NPTH,ComponentDrill
T3C4.100
; #@! TA.AperFunction,NonPlated,NPTH,ComponentDrill
T4C4.300
%
G90
G05
T1
X28.337Y-87.091
X31.645Y-68.33
X34.953Y-49.57
X38.342Y-88.855
X41.65Y-70.095
X44.958Y-51.334
X47.924Y-85.709
X51.232Y-66.948
X54.54Y-48.188
X57.93Y-87.473
X61.238Y-68.713
X64.546Y-49.952
X67.512Y-84.327
X70.82Y-65.566
X71.93Y-114.122
X74.128Y-46.806
X77.517Y-86.091
X80.825Y-67.33
X81.936Y-115.886
X84.133Y-48.57
X85.445Y-92.325
X88.753Y-73.564
X89.864Y-122.12
X92.061Y-54.804
X95.451Y-94.089
X98.759Y-75.329
X99.869Y-123.884
X102.067Y-56.568
X103.379Y-100.323
X106.687Y-81.562
X107.797Y-130.118
X109.995Y-62.802
X113.385Y-102.087
X116.693Y-83.327
X117.803Y-131.882
X120.001Y-64.566
X157.382Y-64.525
X159.58Y-131.841
X160.69Y-83.286
X163.998Y-102.046
X167.388Y-62.761
X169.585Y-130.077
X170.696Y-81.521
X174.004Y-100.282
X175.316Y-56.527
X177.513Y-123.843
X178.624Y-75.288
X181.932Y-94.048
X185.321Y-54.763
X187.519Y-122.079
X188.629Y-73.523
X191.937Y-92.284
X193.249Y-48.529
X195.447Y-115.845
X196.557Y-67.289
X199.865Y-86.05
X203.255Y-46.765
X205.453Y-114.081
X206.563Y-65.525
X209.871Y-84.286
X212.837Y-49.911
X216.145Y-68.672
X219.453Y-87.432
X222.843Y-48.147
X226.151Y-66.907
X229.459Y-85.668
X232.424Y-51.293
X235.732Y-70.054
X239.04Y-88.814
X242.43Y-49.529
X245.738Y-68.289
X249.046Y-87.05
T2
X30.028Y-84.81
X33.336Y-66.05
X36.644Y-47.289
X36.723Y-83.411
X40.031Y-64.651
X43.339Y-45.89
X49.616Y-83.428
X52.924Y-64.667
X56.232Y-45.907
X56.31Y-82.029
X59.618Y-63.269
X62.926Y-44.508
X69.203Y-82.046
X72.511Y-63.285
X73.622Y-111.841
X75.819Y-44.525
X75.898Y-80.647
X79.206Y-61.886
X80.316Y-110.442
X82.514Y-43.126
X87.137Y-90.044
X90.445Y-71.283
X91.555Y-119.839
X93.753Y-52.523
X93.832Y-88.645
X97.14Y-69.885
X98.25Y-118.44
X100.448Y-51.124
X105.071Y-98.042
X108.379Y-79.282
X109.489Y-127.837
X111.687Y-60.521
X111.765Y-96.643
X115.073Y-77.883
X116.184Y-126.438
X118.381Y-59.122
X158.192Y-61.803
X160.389Y-129.119
X161.5Y-80.564
X164.004Y-58.199
X164.808Y-99.324
X166.202Y-125.515
X167.312Y-76.96
X170.62Y-95.72
X176.125Y-53.805
X178.323Y-121.121
X179.433Y-72.566
X181.938Y-50.201
X182.741Y-91.326
X184.136Y-117.517
X185.246Y-68.961
X188.554Y-87.722
X194.059Y-45.807
X196.257Y-113.123
X197.367Y-64.567
X199.871Y-42.203
X200.675Y-83.328
X202.069Y-109.519
X203.179Y-60.963
X206.487Y-79.724
X213.647Y-47.189
X216.955Y-65.95
X219.459Y-43.585
X220.263Y-84.71
X222.767Y-62.345
X226.075Y-81.106
X233.234Y-48.571
X236.542Y-67.332
X239.047Y-44.967
X239.85Y-86.092
X242.355Y-63.728
X245.663Y-82.488
T3
X33.339Y-87.973
X36.647Y-69.213
X39.955Y-50.452
X52.927Y-86.591
X56.235Y-67.83
X59.543Y-49.07
X72.515Y-85.209
X75.823Y-66.448
X76.933Y-115.004
X79.131Y-47.688
X90.448Y-93.207
X93.756Y-74.446
X94.866Y-123.002
X97.064Y-55.686
X108.382Y-101.205
X111.69Y-82.445
X112.8Y-131.0
X114.998Y-63.684
X162.385Y-63.643
X164.583Y-130.959
X165.693Y-82.404
X169.001Y-101.164
X180.319Y-55.645
X182.516Y-122.961
X183.627Y-74.405
X186.935Y-93.166
X198.252Y-47.647
X200.45Y-114.963
X201.56Y-66.407
X204.868Y-85.168
X217.84Y-49.029
X221.148Y-67.789
X224.456Y-86.55
X237.427Y-50.411
X240.735Y-69.172
X244.043Y-87.932
T4
X35.56Y-78.74
X38.1Y-59.69
X91.6Y-108.8
X113.665Y-73.025
X121.8Y-119.1
X155.6Y-119.3
X165.735Y-72.39
X186.7Y-108.9
X234.95Y-60.325
X238.76Y-79.375
T0
M30
